<?xml version="1.0" standalone="no"?>
<!DOCTYPE svg PUBLIC "-//W3C//DTD SVG 20010904//EN"
 "http://www.w3.org/TR/2001/REC-SVG-20010904/DTD/svg10.dtd">
<svg version="1.0" xmlns="http://www.w3.org/2000/svg"
 width="369.000000pt" height="369.000000pt" viewBox="0 0 369.000000 369.000000"
 preserveAspectRatio="xMidYMid meet">
<metadata>
Created by potrace 1.11, written by Peter Selinger 2001-2013
</metadata>
<g transform="translate(0.000000,369.000000) scale(0.100000,-0.100000)"
fill="#000000" stroke="none">
<path d="M1711 3675 c-81 -23 -182 -80 -249 -141 -59 -53 -62 -54 -119 -54
-120 0 -300 -65 -455 -165 -112 -72 -236 -204 -284 -300 -33 -68 -39 -88 -39
-144 0 -82 25 -128 89 -161 l43 -24 -52 -80 c-152 -235 -225 -485 -225 -776 0
-260 60 -487 190 -713 136 -239 364 -450 618 -572 l82 -39 0 -122 c0 -116 1
-124 25 -152 30 -36 69 -45 112 -27 45 19 53 42 53 148 l0 94 50 -11 50 -10 0
-43 c0 -105 87 -158 159 -97 27 22 31 32 31 75 l0 49 49 0 49 0 4 -80 c2 -64
7 -84 23 -100 49 -48 132 -41 165 13 15 24 20 50 20 109 l0 77 43 8 42 9 6
-65 c5 -56 10 -68 38 -93 35 -31 68 -35 110 -13 38 19 51 60 51 159 l1 81 78
37 c134 64 257 153 382 277 211 212 335 446 395 746 27 134 25 406 -4 537 -41
185 -113 361 -206 502 -26 38 -45 70 -44 71 2 1 18 7 35 14 51 21 100 82 108
135 14 92 -50 230 -158 345 -147 154 -406 284 -592 298 -77 5 -82 7 -125 48
-64 60 -130 102 -207 132 -86 33 -256 42 -342 18z m291 -243 c210 -103 329
-355 316 -670 -5 -97 -11 -134 -38 -215 -59 -177 -178 -318 -310 -368 -84 -32
-185 -24 -270 22 -206 109 -323 363 -307 664 7 131 25 202 78 312 42 87 131
194 196 234 112 70 222 77 335 21z m-758 -209 c-4 -10 -18 -57 -32 -105 l-26
-86 -72 -42 c-81 -46 -190 -84 -272 -94 -53 -7 -53 -7 -41 16 57 111 206 233
367 303 70 30 87 31 76 8z m1347 -38 c107 -55 220 -147 280 -229 42 -57 39
-67 -18 -59 -107 13 -317 101 -328 136 -12 42 -57 184 -61 194 -7 16 48 -3
127 -42z m117 -518 c64 -62 147 -176 199 -272 141 -265 176 -581 97 -875 -25
-95 -109 -287 -142 -324 -23 -26 -197 -107 -326 -151 -244 -83 -489 -117 -703
-96 -304 29 -542 131 -719 306 -121 119 -194 239 -258 423 -57 164 -78 290
-83 509 l-6 193 41 67 c67 113 172 235 222 260 69 34 73 32 66 -30 -9 -70 9
-244 35 -344 86 -328 328 -564 605 -589 252 -22 523 170 639 452 15 38 47 112
71 165 49 109 81 224 90 326 l7 71 61 -25 c35 -14 80 -43 104 -66z"/>
<path d="M1589 3037 c-32 -21 -63 -81 -52 -99 2 -5 17 -8 33 -8 21 0 29 6 34
25 10 38 48 52 82 30 14 -9 29 -26 31 -36 4 -13 14 -19 34 -19 34 0 39 25 13
70 -36 61 -115 78 -175 37z"/>
<path d="M2005 3050 c-32 -13 -64 -53 -71 -88 -6 -30 -5 -32 24 -32 22 0 32 6
37 20 4 11 18 28 31 37 31 20 70 5 84 -32 7 -19 17 -25 40 -25 34 0 36 7 16
55 -25 59 -101 90 -161 65z"/>
</g>
</svg>
