<svg xmlns="http://www.w3.org/2000/svg" viewBox="0 0 260 76">
    <g fill="none" fill-rule="evenodd">
        <rect width="260" height="76" fill="#2E2E2E" rx="3"/>
        <g fill="#FFF" fill-rule="nonzero">
            <path d="M68.266 35.432a8.704 8.704 0 0 1 4.121-7.296 8.849 8.849 0 0 0-6.98-3.791c-2.937-.31-5.784 1.765-7.28 1.765-1.526 0-3.83-1.734-6.312-1.683a9.29 9.29 0 0 0-7.823 4.793c-3.382 5.884-.859 14.53 2.381 19.286 1.621 2.329 3.516 4.93 5.995 4.838 2.426-.101 3.332-1.554 6.26-1.554 2.9 0 3.75 1.554 6.28 1.495 2.603-.042 4.243-2.339 5.808-4.69a19.298 19.298 0 0 0 2.655-5.434 8.403 8.403 0 0 1-5.105-7.73zM63.488 21.217a8.588 8.588 0 0 0 1.95-6.133A8.657 8.657 0 0 0 59.827 18a8.17 8.17 0 0 0-2 5.906 7.156 7.156 0 0 0 5.66-2.689z"/>
            <g>
                <path d="M98.93 47.448h-8.278l-1.988 5.898h-3.507l7.841-21.82h3.643l7.842 21.82h-3.567l-1.986-5.898zm-7.42-2.721h6.561l-3.235-9.571h-.09l-3.237 9.571zM121.417 45.393c0 4.943-2.634 8.12-6.608 8.12a5.363 5.363 0 0 1-4.982-2.784h-.075v7.88h-3.25V37.438h3.145v2.646h.06a5.611 5.611 0 0 1 5.042-2.813c4.019 0 6.668 3.192 6.668 8.122zm-3.341 0c0-3.221-1.657-5.338-4.184-5.338-2.484 0-4.154 2.162-4.154 5.338 0 3.205 1.67 5.352 4.154 5.352 2.527 0 4.184-2.102 4.184-5.352zM138.845 45.393c0 4.943-2.634 8.12-6.608 8.12a5.363 5.363 0 0 1-4.983-2.784h-.075v7.88h-3.25V37.438h3.146v2.646h.06a5.611 5.611 0 0 1 5.042-2.813c4.018 0 6.668 3.192 6.668 8.122zm-3.341 0c0-3.221-1.657-5.338-4.185-5.338-2.483 0-4.153 2.162-4.153 5.338 0 3.205 1.67 5.352 4.153 5.352 2.528 0 4.185-2.102 4.185-5.352zM150.363 47.267c.24 2.163 2.333 3.584 5.192 3.584 2.74 0 4.71-1.42 4.71-3.372 0-1.693-1.188-2.707-4.003-3.402l-2.815-.682c-3.988-.967-5.84-2.841-5.84-5.882 0-3.765 3.266-6.35 7.904-6.35 4.589 0 7.735 2.585 7.84 6.35h-3.28c-.197-2.177-1.988-3.492-4.607-3.492-2.618 0-4.41 1.33-4.41 3.266 0 1.542 1.145 2.45 3.944 3.145l2.393.59c4.456 1.059 6.307 2.857 6.307 6.049 0 4.082-3.236 6.639-8.384 6.639-4.816 0-8.068-2.497-8.278-6.444h3.327zM170.713 33.673v3.765h3.01v2.586h-3.01v8.77c0 1.362.603 1.997 1.926 1.997a10.11 10.11 0 0 0 1.07-.075v2.57c-.596.112-1.2.162-1.806.151-3.206 0-4.456-1.21-4.456-4.295v-9.118h-2.302v-2.586h2.302v-3.765h3.266zM175.468 45.393c0-5.006 2.934-8.15 7.51-8.15 4.59 0 7.511 3.144 7.511 8.15 0 5.019-2.905 8.15-7.511 8.15-4.605 0-7.51-3.131-7.51-8.15zm11.71 0c0-3.434-1.567-5.46-4.2-5.46-2.634 0-4.199 2.042-4.199 5.46 0 3.447 1.565 5.458 4.199 5.458 2.633 0 4.2-2.01 4.2-5.458zM193.169 37.438h3.1v2.707h.075a3.78 3.78 0 0 1 3.809-2.874 4.99 4.99 0 0 1 1.113.122v3.054a4.524 4.524 0 0 0-1.46-.197 3.267 3.267 0 0 0-2.532 1.047 3.3 3.3 0 0 0-.855 2.613v9.436h-3.25V37.438zM216.251 48.674c-.437 2.887-3.236 4.87-6.818 4.87-4.606 0-7.465-3.101-7.465-8.076 0-4.99 2.874-8.226 7.329-8.226 4.38 0 7.135 3.024 7.135 7.847v1.119H205.25v.197a4.155 4.155 0 0 0 1.118 3.219 4.114 4.114 0 0 0 3.142 1.287 3.58 3.58 0 0 0 3.656-2.237h3.086zm-10.987-4.748h7.917a3.836 3.836 0 0 0-1.064-2.872 3.799 3.799 0 0 0-2.82-1.166 3.999 3.999 0 0 0-2.854 1.175 4.037 4.037 0 0 0-1.179 2.863z"/>
            </g>
            <g>
                <path d="M87.293 20.805c0-3.638 1.8-5.885 4.697-5.885 2.166-.116 4.052 1.575 4.337 3.887h-1.613c-.279-1.364-1.426-2.317-2.724-2.262-1.872 0-3.043 1.64-3.043 4.26 0 2.613 1.171 4.252 3.05 4.252 1.25.1 2.39-.767 2.717-2.067h1.613c-.326 2.258-2.212 3.865-4.33 3.692-2.898 0-4.704-2.246-4.704-5.877zM98.099 22.174c-.135-1.518.541-2.986 1.745-3.79a3.507 3.507 0 0 1 3.932 0c1.204.804 1.88 2.272 1.745 3.79.138 1.519-.538 2.99-1.743 3.796a3.507 3.507 0 0 1-3.936 0c-1.205-.806-1.88-2.277-1.743-3.796zm5.825 0c0-1.835-.766-2.909-2.111-2.909-1.35 0-2.11 1.074-2.11 2.909 0 1.85.76 2.914 2.11 2.914 1.345 0 2.11-1.072 2.11-2.914zM107.605 17.944h1.495v1.345h.116c.404-.99 1.347-1.596 2.349-1.508.776-.063 1.536.257 2.066.87.53.613.772 1.451.658 2.279v5.48h-1.553v-5.06c0-1.361-.55-2.038-1.698-2.038a1.742 1.742 0 0 0-1.398.608 2.035 2.035 0 0 0-.482 1.538v4.952h-1.553v-8.466zM119.568 17.781c1.77 0 2.927.886 3.079 2.379h-1.49c-.143-.622-.708-1.018-1.59-1.018-.866 0-1.525.442-1.525 1.103 0 .506.398.824 1.251 1.035l1.307.325c1.497.374 2.199 1.066 2.199 2.31 0 1.594-1.38 2.659-3.26 2.659-1.872 0-3.093-.91-3.231-2.41h1.555c.276.735.983 1.171 1.712 1.056.967 0 1.655-.466 1.655-1.142 0-.505-.368-.832-1.157-1.034l-1.372-.343c-1.497-.38-2.19-1.103-2.19-2.362 0-1.501 1.279-2.558 3.057-2.558zM124.76 16.529l1.814-2.674h1.821l-2.03 2.674h-1.605zm.16 1.415h1.547v8.466h-1.547v-8.466zM128.885 27.257h1.589c.131.615.788 1.011 1.836 1.011 1.294 0 2.06-.66 2.06-1.78v-1.625h-.116c-.496.928-1.435 1.477-2.428 1.422-2.01 0-3.252-1.67-3.252-4.205 0-2.581 1.257-4.276 3.267-4.276 1.018-.038 1.972.538 2.471 1.493h.123v-1.352h1.489v8.535c0 1.936-1.41 3.164-3.636 3.164-1.966 0-3.237-.948-3.403-2.387zm5.514-5.185c0-1.687-.81-2.767-2.133-2.767-1.336 0-2.087 1.08-2.087 2.767 0 1.687.75 2.767 2.087 2.767 1.331 0 2.133-1.072 2.133-2.767zM145.033 26.41h-1.496v-1.345h-.123c-.408 1.001-1.366 1.609-2.378 1.509-.77.058-1.525-.261-2.052-.87a2.888 2.888 0 0 1-.659-2.264v-5.496h1.556v5.061c0 1.368.512 2.022 1.654 2.022a1.717 1.717 0 0 0 1.443-.567c.378-.414.561-.988.5-1.564v-4.952h1.555v8.466zM154.163 24.124c-.436 1.597-1.872 2.629-3.41 2.45-1.05.03-2.058-.439-2.758-1.28a4.043 4.043 0 0 1-.878-3.09 4.106 4.106 0 0 1 .876-3.102c.697-.849 1.7-1.33 2.753-1.32 2.19 0 3.51 1.608 3.51 4.267v.583H148.7v.093c-.049.629.15 1.25.55 1.712.399.461.96.72 1.546.714.76.098 1.5-.308 1.873-1.027h1.495zm-5.464-2.728h3.975a2.137 2.137 0 0 0-.517-1.558 1.835 1.835 0 0 0-1.42-.635 1.942 1.942 0 0 0-1.449.634 2.253 2.253 0 0 0-.589 1.56zM156.414 14.64h1.553v11.77h-1.553zM160.126 22.174c-.135-1.518.542-2.986 1.746-3.79a3.507 3.507 0 0 1 3.931 0c1.204.804 1.88 2.272 1.746 3.79.137 1.519-.539 2.99-1.744 3.796a3.507 3.507 0 0 1-3.936 0c-1.205-.806-1.88-2.277-1.743-3.796zm5.825 0c0-1.835-.766-2.909-2.111-2.909-1.35 0-2.11 1.074-2.11 2.909 0 1.85.76 2.914 2.11 2.914 1.345 0 2.111-1.072 2.111-2.914zM180.557 24.124c-.435 1.597-1.872 2.629-3.41 2.45-1.049.03-2.058-.439-2.758-1.28a4.043 4.043 0 0 1-.877-3.09 4.106 4.106 0 0 1 .876-3.102c.696-.849 1.7-1.33 2.753-1.32 2.19 0 3.51 1.608 3.51 4.267v.583h-5.557v.093c-.049.629.15 1.25.55 1.712.399.461.96.72 1.546.714.76.098 1.5-.308 1.872-1.027h1.495zm-5.463-2.728h3.975a2.137 2.137 0 0 0-.517-1.558 1.835 1.835 0 0 0-1.42-.635 1.942 1.942 0 0 0-1.449.634 2.253 2.253 0 0 0-.589 1.56zM182.737 17.944h1.495v1.345h.116c.404-.99 1.347-1.596 2.349-1.508.775-.063 1.535.257 2.065.87s.772 1.451.659 2.279v5.48h-1.554v-5.06c0-1.361-.55-2.038-1.698-2.038a1.742 1.742 0 0 0-1.398.608 2.035 2.035 0 0 0-.48 1.538v4.952h-1.554v-8.466zM202.747 24.124c-.436 1.597-1.872 2.629-3.41 2.45-1.05.03-2.058-.439-2.758-1.28a4.043 4.043 0 0 1-.878-3.09 4.106 4.106 0 0 1 .877-3.102c.696-.849 1.7-1.33 2.752-1.32 2.19 0 3.51 1.608 3.51 4.267v.583h-5.556v.093c-.05.629.15 1.25.549 1.712.399.461.96.72 1.546.714.76.098 1.5-.308 1.873-1.027h1.495zm-5.463-2.728h3.975a2.137 2.137 0 0 0-.518-1.558 1.835 1.835 0 0 0-1.42-.635 1.942 1.942 0 0 0-1.448.634 2.253 2.253 0 0 0-.59 1.56zM204.998 14.64h1.553v11.77h-1.553z"/>
            </g>
        </g>
    </g>
</svg>
