<svg id="Layer_1" data-name="Layer 1" xmlns="http://www.w3.org/2000/svg" viewBox="0 0 606.69 96.81"><defs><style>.cls-1{fill:#bb1a1a;}</style></defs><title>bbc-rojo</title><path class="cls-1" d="M2.82,309.45v96.81H609.51V309.45Zm77.11,72.44H28.79V333.7H79.93Zm59,0H87.71V333.73H139ZM198,381c0,.26,0,.53,0,.87H146.73V333.69c.3,0,.59,0,.87,0q24.74,0,49.46,0c.78,0,1,.22,1,1Q198,357.81,198,381Zm58.24-5.71c-1.35,0-2.73,0-4.12,0-.24,0-.51-.35-.71-.59l-18.6-21.43c-1.13-1.3-2.26-2.59-3.38-3.89a5.67,5.67,0,0,1-.45-.64l-.21.14v26.39h-4.74V340.41c1.31,0,2.59,0,3.87,0,.21,0,.44.26.61.45l22.32,25.68c.15.18.32.35.65.71V340.47h4.76Zm29.22-.05h-1c-6.1,0-12.21,0-18.31,0-.74,0-1-.14-1-1q0-16.49,0-33c0-.27,0-.53,0-.88H285v4.49H270.37v10.48h14.12V360H270.38v10.74h15.1Zm55.32-28.82-11.37,28.23c-.17.43-.27.81-.91.82s-.74-.39-.91-.82q-5.34-13.29-10.69-26.59c-.08-.22-.2-.43-.35-.75l-3.31,8.14q-3.92,9.66-7.85,19.32c-.16.4-.3.68-.83.69s-.71-.3-.88-.72Q297,358,290.27,341.27c-.1-.24-.18-.49-.31-.86,1.67,0,3.24,0,4.81,0,.21,0,.47.44.59.73q3,7.43,6,14.87l3.29,8.22c.81-2,1.58-3.88,2.33-5.76q3.49-8.7,7-17.41a1,1,0,0,1,1.06-.71,24,24,0,0,0,3.06,0c.79-.06,1.1.25,1.38.95q4.47,11.18,9,22.33l.24.57c.54-1.34,1-2.56,1.51-3.79,2.55-6.44,5.11-12.87,7.63-19.32a1,1,0,0,1,1.11-.74c1.37.05,2.74,0,4.28,0C342.37,342.51,341.59,344.47,340.8,346.43Zm16.44,29.2a15.42,15.42,0,0,1-10.17-2.6,1.39,1.39,0,0,1-.72-1.31c0-1.79,0-3.58,0-5.37l.24-.11a29.52,29.52,0,0,0,2.48,2.52,9.76,9.76,0,0,0,8,2.31c3.81-.65,5.32-4.42,2.88-7.41a17,17,0,0,0-3.53-3c-2-1.38-4.11-2.55-6.09-3.94a8.88,8.88,0,0,1-4-6,9.07,9.07,0,0,1,8-10.63A14.45,14.45,0,0,1,364,342a1.14,1.14,0,0,1,.65,1.14c0,1.63,0,3.26,0,4.84-1.3-.84-2.5-1.74-3.82-2.42a8.72,8.72,0,0,0-6.49-.73c-1.63.44-3,1.3-3.31,3.13a3.84,3.84,0,0,0,1.26,3.58,25.56,25.56,0,0,0,3.31,2.55c1.7,1.12,3.53,2.06,5.22,3.2a10.71,10.71,0,0,1,5,7C366.9,370.57,362.89,375.1,357.24,375.63Zm44.94,7.31h-4.34V333.1h4.34Zm55.14-13.78v1.17c-1.09,0-2.09,0-3.1,0-.13,0-.32-.23-.36-.39a2.53,2.53,0,0,1,0-.73V352.45c-.31.33-.49.5-.64.69q-3,3.72-5.92,7.45c-.69.87-1,.87-1.67,0l-5.91-7.35-.77-.9V370.3h-3.41v-.9c0-7.18,0-14.36,0-21.54,0-.72.19-.89.93-1a3.69,3.69,0,0,1,3.76,1.77c1.78,2.45,3.78,4.75,5.7,7.11.16.2.34.4.58.67,2.4-3,4.76-5.89,7.08-8.82a1.65,1.65,0,0,1,1.48-.71c2.3,0,2.3,0,2.3,2.34Zm26.83-7.55c-.06,5-3.15,8.31-8.1,8.87a13.29,13.29,0,0,1-7-.85,7.61,7.61,0,0,1-4.87-7.1c-.14-5-.06-10-.08-15,0-.36,0-.63.5-.62h2.95v13.66c0,.4,0,.8,0,1.21.16,3.2,1.68,5,4.84,5.59a7.85,7.85,0,0,0,6.11-1.05,4.52,4.52,0,0,0,2.08-3.47c.09-1,.16-1.93.16-2.89,0-4.06,0-8.12,0-12.18,0-.73.23-.93.92-.89s1.65,0,2.5,0c0,.33.05.54.05.75C484.18,352.32,484.2,357,484.15,361.61Zm28.52,8.72c-.91,0-1.82,0-2.71,0-.24,0-.49-.31-.67-.52q-7-8.09-14.06-16.19a3.1,3.1,0,0,0-1-.8v17.49h-3.2V346.92c.85,0,1.66-.05,2.45,0,.28,0,.58.34.8.58l14.49,16.68.64.68V347h3.22Zm17.09-.06c-3.2.1-6.4,0-9.6,0a3.64,3.64,0,0,1-.42-.05v-.86c0-7.18,0-14.36,0-21.53,0-.73.17-1,.93-1,3.14.08,6.29,0,9.43.15A11.24,11.24,0,0,1,541,355.92,11.65,11.65,0,0,1,529.76,370.27Zm30.64.19c-.69.09-1.39.13-2.08.19-5.5,0-10.19-3.11-11.73-7.86-2.63-8.13,2.59-15.86,11.14-16.18,5.33-.21,9.7,1.73,12.11,6.63C573.57,360.81,569.08,369.34,560.4,370.46Z" transform="translate(-2.82 -309.45)"/><path class="cls-1" d="M187.8,366c0,2,0,4,0,5.9a.87.87,0,0,1-.43.65,27.34,27.34,0,0,1-10.25,2.84,24.38,24.38,0,0,1-10.95-1.31c-5.94-2.34-10-6.55-11.18-12.85-1.38-7.15,1.13-13.05,7-17.36,4.57-3.36,9.84-4.24,15.39-3.7a37.38,37.38,0,0,1,9.4,2.48.89.89,0,0,1,.7,1c0,1.82,0,3.64,0,5.57-1.1-.55-2.07-1.05-3.06-1.51a21.82,21.82,0,0,0-10-2.26c-4.67.12-8.7,1.67-11.49,5.62a11.91,11.91,0,0,0,7,18.37c4.94,1.39,9.68.57,14.27-1.51C185.35,367.35,186.51,366.67,187.8,366Z" transform="translate(-2.82 -309.45)"/><path class="cls-1" d="M101.4,340.43h2.87c3.25,0,6.51-.05,9.75.15a10.14,10.14,0,0,1,8.21,4.25c2.3,3.34,2.16,8.91-2.46,11.46-.14.07-.27.17-.47.29.78.32,1.5.58,2.2.91,5.65,2.65,7.1,9.4,3,13.91a11.1,11.1,0,0,1-6.65,3.3,25.93,25.93,0,0,1-3.93.32c-4.14,0-8.28,0-12.48,0Zm6.1,19.71v9.54c2.46,0,4.84.06,7.23,0a9.63,9.63,0,0,0,2.74-.57,4.29,4.29,0,0,0,3-5c-.41-2.15-2-3.11-3.92-3.57C113.59,359.82,110.54,360.29,107.5,360.14Zm0-5.3c1.24,0,2.45.08,3.64,0a15.43,15.43,0,0,0,3.46-.64,4.06,4.06,0,0,0,2.82-4.46,3.62,3.62,0,0,0-3.46-3.69,60.78,60.78,0,0,0-6.34-.19s-.08.06-.12.1Z" transform="translate(-2.82 -309.45)"/><path class="cls-1" d="M42.33,375V341.54c0-1.11,0-1.12,1.14-1.11,3.84,0,7.69,0,11.52.14a10.69,10.69,0,0,1,7.43,3.23c3.15,3.23,3.42,9.83-1.76,12.55-.09,0-.17.12-.37.25.41.16.75.27,1.07.4,3.14,1.21,5.48,3.19,6.23,6.61a8.74,8.74,0,0,1-5.22,10A15.45,15.45,0,0,1,56,375c-4.38.06-8.76,0-13.14,0C42.69,375,42.56,375,42.33,375Zm6.21-14.85a2.93,2.93,0,0,0-.1.48c0,2.85,0,5.7,0,8.54,0,.55.29.59.71.59,1.91,0,3.81,0,5.72,0a9.3,9.3,0,0,0,4.64-1.11,4.24,4.24,0,0,0,.09-7.24,6.49,6.49,0,0,0-1.92-.81C54.66,359.83,51.59,360.29,48.54,360.14Zm-.11-14.43v7.23c0,1.92,0,1.91,1.89,1.92a14.75,14.75,0,0,0,5.24-.64,4.22,4.22,0,0,0,2.84-4.71A3.63,3.63,0,0,0,55,346C52.86,345.76,50.7,345.8,48.43,345.71Z" transform="translate(-2.82 -309.45)"/><path class="cls-1" d="M557.58,367.35a8,8,0,0,1-7.16-4.9,8.56,8.56,0,0,1,1.05-9.4A9.43,9.43,0,0,1,564,351.44a8.74,8.74,0,0,1,2.33,11.81C564.51,366,561.87,367.37,557.58,367.35Z" transform="translate(-2.82 -309.45)"/><path class="cls-1" d="M523.3,367.23V350c2.08,0,4.14-.09,6.18,0a10.77,10.77,0,0,1,3.42.77,8.08,8.08,0,0,1,4.82,8.86c-.56,4-3.31,6.89-7.13,7.28C528.2,367.19,525.78,367.14,523.3,367.23Z" transform="translate(-2.82 -309.45)"/></svg>