<svg id="Capa_1" data-name="Capa 1" xmlns="http://www.w3.org/2000/svg" viewBox="0 0 358.4 76.61"><title>ovrik</title><path d="M462.68,548.23l-1.16-1,1-.67-.86-3.43.86-.93-.9-.9.76-2.85-.81-.76.56-18.75-.65-.28.78-.92-.58-.92.47-.43-.82-3,1.32-.75v-.84l-1.05-1.05,1-.92v-1l-.8-.6.36-1.19-.81-.52,1-4.67-.81-.54.86-4.48-.85-.59.31-1.43-.41-.44.15-5.29,1.07-1-.58-.42-.65-4.8-4,.6-.62-.56-1.44.32-.47-.78-11.65.71-.55-.84-.93.93-4.59-.83-.54,1.17-.9-.89H434l-.53.53-2.76,0-.48-.48-1.51.57-1.29-1.11-2.31,1-1.12-.42-.09.43L414.23,482l-1.3,1.39L388,482.55l-.66.6-2.78-1-1.51.88-.86-.8-.9.9-15,.2-.71-1.25-11.6,1-.16-.46h-.93l-.34.53-2.74-.81-.88,1.09-9.71-.28-.48-.82-10.52.86-.8-.94-1,1-.56-.85-6.64.12-.46.58-11.27-.78-.91,1.06h-.9l-.45-.68-1.11.72-3.28-.77-.58.64H273.52l-.73-1-1.64,1.24-.92-1.14-1.18,1-3.34-1-1,1-7.54-1-.89,1h-1l-.78-.78-1,.6-.58-.8-10.8.85-.94-.94-1.71,1-.5-.79-11.26.27-.18.39-13.72-.61-.29.57-.51-.55h-.62l-.35.46-12.49.27-.84-1-2.14,1.37-2.32-1.24-1.58,1-1.83-1.08-.92,1.18-.63-.91-3.85-.21-.62.74-2.22-1.08-1.39,1.34L178,482.35l-1.48,1.09-2.58-.95-.87.87h-.8l-.9-1.11-.85.85-2.83,0-.58-.88-1.36,1.26-.62-1h-3.59l-.34.48-5.92-.66-.61.93-.43-.7-9.19.51-.75-.75-.87.86-2.78-.57-.41.47H135l-.4-.51-8.87.51-.61-.82-10.62.05-.92.95-.36-.63-2,.46-1-.81-.83,1-4.48-.64.51,3.09-.79.73.47,24.71-.67.43,0,3.73.73.67-.74,7,1.22.9v.88l-1,.65.72,3-.85.71.92.83-.35.47.31,2.29-.43.3-.26,2.19.76.79-1,.87.49,1-.59.65.3,10.64.77.49-1,1.85,1.11.92-.5,5.82,11.78.14.72-.72,4.67.42.18-.54,3,.71.84-.85,5.47.69.38-.62,8-.08.8,1.09,5.36-1.24.72,1.05,26.18.13,1.08-1.08.41,1.06,14.71-1.06.58.9,5.49.28.76-.84,4.41.84,1-1.17,1.1,1.09,3.41-.75.38.49h2.34l.66-.77,3.18-.21,1.06,1.42.73-1,1.17.34.65-.59,1.38.87,1.48-1.11.41.66,1.26-.58,1.56.65.43-.43,2.74.84,1.09-1.11.74,1.23,10.37-.21.38-.59,1.94.53.67-.77,1.83,1,1.74-1,.42.73H275l.12-.46,6.16-.3.77.77,2.05-.74,1.75,1,.93-1.15,5.39.1,1,1.06,2.72-.27.33-.59.59.59H307l.62-.82,19,0,.84.83,1.1-.71,3.61.92.3-.21,1.17.22.86-1,.75.75,5.33-.07.57-.69.66.08v.82l32.85-.19.23-.34,3.13-.32.48.73,25.18-.76.75,1,.88-.26.15.17,1.09-1.13.22.53,14.86.76,1.17-1.17,1.06,1.23.41-.6,2.77-.57,1.13,1,.55-.86,2.73-.29,1.06,1.06,9.7-.2.57-.9,19.92.47-1.54-5.89,1.07-.76.5-2.73ZM142.39,503.56l-2.69.73-.58-1.16-2,.36-1.79-.4-1.06.67-1.52-.43-.55.25v.8l.71,1-.22,1,.48,1.29v1l-.54,1,.57.63-.6,1.23.83,1.64-1.36,6.63.6.67-.5,1.61.66.6.14,2.71-.84,1.3.58.7-.5,1.79,1.05,1.05-.34,3.07-.78.78,0,2.46,1.11.81,3-.58,1.25.71.58-.74,2.09,1.16,1.6-.81.72,2.35-1,1.34.37,1.61-.36,2.67,1,3.12-.79.6-.2-.08-4.18.35-1-.26-.51-.46-1.5.27-.55-.55h-.59l-.7,1.22-5.33-.48-.6-.37-.36-.63h-1.37l-2.63-2.93.25-.3-2.07-4.06-.45-.45.47-1.69-.71-.59.59-2.44,1.14-1.81-1.24-3.46.85-.71-.21-3.19-.4-.25,1-2.08-1-5-.43-.72,1-2.39-.61-1.43.61-.68-.59-.64,1-4.36-1.25-.92.29-3.06.49-.87v-1.21l.48-.48V500.8l-.42-.18,0-3.46.49-.49-.28-.56.92-.54.53-.71-.22-1.24,4-.05.72-1.5.54.51,1.74-1,1.9.23.84-.31,1,1.24.91-.67h.73l1,1,3.68-1.22.55.69h2.41l-.37,1.83.44,1.54-.76,1.57.88.57-.62.76.27,4.71Zm27.22,8-.26,1.91-1,1.78.31,3.59-.33.63.51.18-.32,1.79.88.81-.58,3.29,1.07.85-.95.59v.91l.5.53-.25,1.36.22,1.4-.9.62.83,1.69-.74,1.11,1,3.14-1.23,2.4.92,1.2-.27,2.91-1.46,1.14-.24,1.17-7.17,2.29-1-1.15-1,1-2.19-.88L155,549.2l-2.27-.72-.66.66-.72-.6-3.35.34-1.06-.78.78-.61-1-2.64v-3l1.08-3.37-.06-1,.3-.3,1.71.46,1-.52,1.66.95.33-.69h4.63l-.65-2.14V531l.11-.27.09-4.74.79-.61-.54-.54v-1.54l.52-.59-.57-1.61-.49-.7.38-1.6.77-.62-1-3.56.91-7.44-1-3.76-1.19-.59-7.48.93-.72-1.07.27-2.54,1.11-.94-.89-.69-.58-1.14.33-2.42.38-.34,0-2.58,1,.61.81.2,2.13-.68h1.65l1.38-.89,6.19,0,1.48,1.08.36-.28,1.26,1.26,1.11-.15.35.73,2.41,1.75.08,2.43.91.58.67,3.61-.86.93.05,1.65-.36,1,.61.47v1.74l.83.7-.55,1.84.21.91Zm42.56,33.11-.33,4.23-.57-.29-4.11,0-.49-.82-.14.13v-2l-.74-.74v-1.53l-2.1-2.86.64-.5-1.14-1.63.22-.33L202.34,537l-.58-1.69.22-.66-1.27-1.27v-1l.3-.66-1.64-1.31.54-2.31-.92-.84-.51-1.85-1.4-1.8.19-1.38-.72-.78.33-1.27-1-.48-.38-.84-.75-.73.26-.55-.59-.87-.12-2.18-.75-.51-.44-1.17-.61-.49.34-1.31-1.22-1L190.52,508v-.62l-.84-.67.55-1.39-.49-2.2-2.3-3.46.79-1.16-1.3-1-2.06-4.94,3.25-.07,1.38-1,1.47,1.16,6.29-.6.91.84.74-1,.76,1v3.43l1.64,1.47.67,1.73v2.8l1.22.61,2.34,6.78-.5.5,2.54,4.39,1.06.68-.34,1.82,1.25.94.11.62.73.73.55,1.84-.45.87,1,1-.38,1.19,1.54,3.08-.36,1.78-.47.53.57,3-.75,2.87.8,3.1-.91.74.85.62-.52,2.66h.63l.43.79-.76,1.17ZM245.24,495l-1.53,1-1.6,3.18.88,1.34-1.25,3.06-2.6,2.43.24,1.69-.37,2-.38.3v.88l-1.06.71.27,1.35-.65.1-.82.82v3.27l-2.35,3-.43.24v1.5l-1.06,1.47.25,1.83-2.59,4.39.59.66-.31,1-2,2.66.38,1.09-2.78,4.77.63,1.49-2.1,2.85.24.78-.36,1,.15,1.19-1.54,1.2v.9H222l-1.44-.76H218.8l-1,.66v-1.32l.37-.33.08-.27-.51-5.68.77-.49-.74-1.15.27-1-.64-.28,1.14-2.26-.24-1.23.45-.82-1-1.32.3-4.4-.66-.74.57-.35.22-.49-.24-1.57,1.12-.75-.36-1.83,1.33-1V520l.41-.4,1.9-3.76v-.34l1.76-3.9v-1l1.32-1.64,0-2.94,1-1v-1l1.23-1.26.56-3.18.94-1.66L231,496v-1.29l1-.88v-1l1.21-.51.15.14h2.36l.69-.94h1.46l.79,1,1.09-.42,1.07.74,1.42-.23,1,.49,1-.52,1.28,2.19-.25.25ZM274,515.49l-.42,2.19.2.2-.89,1.44.63,2.59-.26,2.28.57.65-.73.86.65,4.5-1.22.89.74,1.7,0,1.8.67.75-.66.73-.71,1.67.79.64.55,2.26-.56,1,.49,1.31-.74,2.1.25,3.47-.83.4-.53-.67-1.59.07-.49.49h-3l-1.66.57-3.53-.37-.36-.36.32-.65-.64-.76.69-1.08-.55-.85v-1l1-2.88-.65-.5-.31-3.25.47-.47v-1l-.49-.52.49-.49-.71-2,1.44-1.64-.29-2-.66-1.29v-1.85l-.26-.89,1-2.77-.31-4.43.57-.73v-.77l-.6-.41.35-1-.85-1.34-.16-6.28-.61-.43.07-1.34.53-.94-.3-1.17.77-.63.06-4.35-.51-1.07.62-3.62-.6-.6.48-1.4,2.49.46,2.41-1.5,2.93,1h1l.39-.58,1.7.75.76,1.56.43,10.44-.92,1.24,1,3.14-.3,3.64.79.8-.52,1.1.24,1.1Zm36.46,24.08-.82,1.46.63,1.06-.83,1.34.38,1.94.64.9-.78.71v1.27l-.84-.38-2.32,1-2.79.27-.7-.85-2.92,1.11-.8-.35-2,.07.36-1-.45-.92.73-.73-1-.91.45-2.91-.5-.47,1.27-1.93-.54-6.28-.55-.22.79-1,0-4.94-.76-.62.67-1.3.3-2.64-.32-.27-.69.26-.84-.77-.2.67h-1.56l-1.4-.74-4.15.51-.82-.43-5.22-.07-.51.52-2.52-.05-.52-.79-1.27-6.51,1.25-1.08-1.11-2.22.39-1.44,1.52.61.93-.52,1.11.57,8.62.52.74-.64,3.28.61,3.08-1.16-.29-.32.86-1.34-.78-1.24v-1l.44-.44.32-2-.6-1-3,.58-2.16-.27-1.92-.91-.91.91-1.08-.56-.7.88-1.45-.64-3.52.58-1.64-1-.94.46-2.21-2.3V500l.45-.36v-.93l-.42-.42-.36-2.58.59-.43-.2-3.5,4.68.73,1-1,2,.65.31.31h.9l1.91-1.1,1.36.9,1.49-.22.89.46.3-.21,2.48.33,1-.62h1.4l1,.54,1.84-.82h.48l.81.81,2-.33,2.16,2.31.93-.18,1.85,1.58.76,2-.74,1.14,1,1.73-.27.66.45,4-.5.31.37,2.12-.57.5v.71l-.3.59.87.61-.29.8v.92l-4.15,4.17H305l-1.51,1.13.7.66h2.26l3.44,5.56.29,3.19-.67.72,1,2-.6.65v2.2l.78,1.47-.74,1.1-.36,3.75.82.91Zm51.89,1.74-.27,1.88-.38.1-.29,1.95.75,1.47-.19,2.45-3.6-.79-3.51.44-1.39-.25-.72.9-.95-.88h-1l-1.39-2.87.76-.51v-.84l-.75-.56-.26-3.24.54-.46-.23-1.34.47-.52-.55-6.32.52-.41-.25-9-.71-.41.51-1.16.1-5.15-.24-.36.83-.63,0-.43-.84-.71.25-4.07-.24-.84,1-.46.24-.56-1.39-7.17.45-2.19.8-1.31-.84-.84.52-1-1-1,.34-1.88H351l2.73-1,1.93.27,1.07.72.92-.2,2.24.25,1.54-.36.73.79-.53,1v2l-.52.41v.59l.82.47-.24,2.28.67.69-.18.77.09,1.89-1,3,.55.61v.5l-.5.5.24,1.74-.21.53.22.53-.53,1.37.27.47.53,6.3-.41.41-.34,1.8,1.5,1.84-1.52,2.35.87.56-.59,1.07.72,4.06-.66,1.72.14.18-.27,1.23.56.59V535l.77.77-.78.55-.06,4.69.51.33Zm50.25-29.21-.27.64-.26,2.57.27.41-.81,2.66.8,1.21.22,2.9-1.27,3.63,1,1.21-.18,2.93.66,1-.49,4.24-.51.54.18,1.27-.2,1.31.65.39.12,2.38-.71.71.58,1.06-.64.32.44.85v4l-2.41.28-.94.48-.15-.12-4.84-.34-1.37-.83-2.19,1.05.78-7.21-.71-1.11.57-.37-.34-1,.28-.73-.86-1.29-.28-4.6.61-.68.24-5.89-.8-1.9.28-.32.27-3.58-.53-2.36.76-1.49-.83-4.74.93-1.55-.62-1.26.33-.85-.57-1.15,1.07-1.62L400,503.3l.56-1.27-.42-.23.69-3.26-.48-.53-.14-6.15.28.88.22-.25,2,.3,1.54-.92,4.67-.32.71.72,2.42.3.61,4.61-1.07,1,.76,1.47-.24,6.48.25.67v.66l.54.49-.6.31-.41,3.33.75.49Zm41.18,37-4.29-.47-1.83.76-.41-.25H444l-.47-.47-1,.53-3.71-.83-.4.57-2.11-1.4v-1l-3.06-4.07-.07-.88-.92-.59.56-1.58L427.38,534l-.1-.68-.84-.53-.73-2.73-.92.75v1.27l-1,.74v1.1l-1.06,1.39.29.94-1.85.78-1.45,1.45,0,.86-1.38,1.39-1-.33-.33-2.46.4-.36.4-2.71.51-.56-1.09-1.53.68-1.68-1-2.34,1.63-2.26-.78-1.76-.26-3,.78-.65v-1l1-.34.51-.53.32-3.31,1.93-1.26v-.89l2.64-1.78,4.57-6.39-.22-1.45.41-.19-.11-.11h.29l.9-.65-.31-.86,6.63-7.53,1.29-.44-.13-2.44.29-.36,1.23.62,1.06-.52.8.46h7.81l.61.58,1.25-.78.31.43h1.12l.43.43-.5,1.75-.8.8-.5,1.92-1.58.67-.93.94v2.12l-2.79,1.17v1.16l-2.87,3.57-1.26.66.15,1.12-2.66,2.66v1.39l-6.13,7.8v.73l2.77,2.77v.78l.77.58v.5l2,1.93V529l.66.71h.54l5.43,6v1.14l1.25.57v1.09l3.58,5.43,1.24.86v.81l.41.4.38.08v1.11l1.75.91v.95Z" transform="translate(-104.35 -482.05)"/></svg>