<svg width="359" height="77" viewBox="0 0 359 77" version="1.1" xmlns="http://www.w3.org/2000/svg" xmlns:xlink="http://www.w3.org/1999/xlink">
<title>ovrik-blanco</title>
<desc>Created using Figma</desc>
<g id="Canvas" transform="translate(-283 -3061)">
<g id="ovrik-blanco">
<g id="Vector">
<use xlink:href="#path0_fill" transform="translate(283 3061)" fill="#FFFFFF"/>
</g>
</g>
</g>
<defs>
<path id="path0_fill" d="M 358.32 66.23L 357.16 65.23L 358.16 64.56L 357.3 61.13L 358.16 60.2L 357.26 59.3L 358.02 56.45L 357.21 55.69L 357.77 36.94L 357.12 36.66L 357.9 35.74L 357.32 34.82L 357.79 34.39L 356.97 31.39L 358.29 30.64L 358.29 29.8L 357.24 28.75L 358.24 27.83L 358.24 26.83L 357.44 26.23L 357.8 25.04L 356.99 24.52L 357.99 19.85L 357.18 19.31L 358.04 14.83L 357.19 14.24L 357.5 12.81L 357.09 12.37L 357.24 7.07999L 358.31 6.07999L 357.73 5.66L 357.08 0.859985L 353.08 1.45999L 352.46 0.899994L 351.02 1.22L 350.55 0.440002L 338.9 1.14999L 338.35 0.309998L 337.42 1.23999L 332.83 0.410004L 332.29 1.57999L 331.39 0.690002L 329.64 0.690002L 329.11 1.22L 326.35 1.22L 325.87 0.73999L 324.36 1.31L 323.07 0.200012L 320.76 1.20001L 319.64 0.779999L 319.55 1.20999L 309.87 0L 308.57 1.39001L 283.64 0.549988L 282.98 1.14999L 280.2 0.149994L 278.69 1.03L 277.83 0.230011L 276.93 1.13L 261.93 1.32999L 261.22 0.0799866L 249.62 1.07999L 249.46 0.619995L 248.53 0.619995L 248.19 1.14999L 245.45 0.339996L 244.57 1.42999L 234.86 1.14999L 234.38 0.329987L 223.86 1.19L 223.06 0.25L 222.06 1.25L 221.5 0.399994L 214.86 0.519989L 214.4 1.10001L 203.13 0.320007L 202.22 1.38L 201.32 1.38L 200.87 0.700012L 199.76 1.42001L 196.48 0.649994L 195.9 1.29001L 169.16 1.29001L 168.43 0.290009L 166.79 1.53L 165.87 0.390015L 164.69 1.39001L 161.35 0.390015L 160.35 1.39001L 152.81 0.390015L 151.92 1.39001L 150.92 1.39001L 150.14 0.609985L 149.14 1.20999L 148.56 0.410004L 137.76 1.26001L 136.82 0.320007L 135.11 1.32001L 134.61 0.529999L 123.35 0.799988L 123.17 1.19L 109.45 0.579987L 109.16 1.14999L 108.65 0.600006L 108.03 0.600006L 107.68 1.06L 95.19 1.32999L 94.35 0.329987L 92.21 1.70001L 89.89 0.459991L 88.31 1.45999L 86.48 0.380005L 85.56 1.56L 84.93 0.649994L 81.08 0.440002L 80.46 1.17999L 78.24 0.100006L 76.85 1.44L 73.64 0.350006L 72.16 1.44L 69.58 0.48999L 68.71 1.35999L 67.91 1.35999L 67.01 0.25L 66.16 1.10001L 63.33 1.10001L 62.75 0.220001L 61.39 1.48001L 60.77 0.480011L 57.18 0.480011L 56.84 0.959991L 50.92 0.299988L 50.31 1.23001L 49.88 0.529999L 40.69 1.04001L 39.94 0.290009L 39.07 1.14999L 36.29 0.579987L 35.88 1.04999L 30.64 1.04999L 30.24 0.540009L 21.37 1.04999L 20.76 0.230011L 10.14 0.279999L 9.22 1.23001L 8.86 0.600006L 6.86 1.06L 5.86 0.25L 5.03 1.25L 0.550004 0.609985L 1.06 3.70001L 0.269997 4.42999L 0.739998 29.14L 0.0700003 29.57L 0.0700003 33.3L 0.800004 33.97L 0.0599982 40.97L 1.28 41.87L 1.28 42.75L 0.279999 43.4L 1 46.4L 0.150002 47.11L 1.07 47.94L 0.720002 48.41L 1.03 50.7L 0.599999 51L 0.339997 53.19L 1.1 53.98L 0.0999991 54.85L 0.589997 55.85L 6.10352e-07 56.5L 0.300004 67.14L 1.07 67.63L 0.0700003 69.48L 1.18 70.4L 0.680001 76.22L 12.46 76.36L 13.18 75.64L 17.85 76.06L 18.03 75.52L 21.03 76.23L 21.87 75.38L 27.34 76.07L 27.72 75.45L 35.72 75.37L 36.52 76.46L 41.88 75.22L 42.6 76.27L 68.78 76.4L 69.86 75.32L 70.27 76.38L 84.98 75.32L 85.56 76.22L 91.05 76.5L 91.81 75.66L 96.22 76.5L 97.22 75.33L 98.32 76.42L 101.73 75.67L 102.11 76.16L 104.45 76.16L 105.11 75.39L 108.29 75.18L 109.35 76.6L 110.08 75.6L 111.25 75.94L 111.9 75.35L 113.28 76.22L 114.76 75.11L 115.17 75.77L 116.43 75.19L 117.99 75.84L 118.42 75.41L 121.16 76.25L 122.25 75.14L 122.99 76.37L 133.36 76.16L 133.74 75.57L 135.68 76.1L 136.35 75.33L 138.18 76.33L 139.92 75.33L 140.34 76.06L 170.64 76.06L 170.76 75.6L 176.92 75.3L 177.69 76.07L 179.74 75.33L 181.49 76.33L 182.42 75.18L 187.81 75.28L 188.81 76.34L 191.53 76.07L 191.86 75.48L 192.45 76.07L 202.64 76.07L 203.26 75.25L 222.26 75.25L 223.1 76.08L 224.2 75.37L 227.81 76.29L 228.11 76.08L 229.28 76.3L 230.14 75.3L 230.89 76.05L 236.22 75.98L 236.79 75.29L 237.45 75.37L 237.45 76.19L 270.3 76L 270.53 75.66L 273.66 75.34L 274.14 76.07L 299.32 75.31L 300.07 76.31L 300.95 76.05L 301.1 76.22L 302.19 75.09L 302.41 75.62L 317.27 76.38L 318.44 75.21L 319.5 76.44L 319.91 75.84L 322.68 75.27L 323.81 76.27L 324.36 75.41L 327.09 75.12L 328.15 76.18L 337.85 75.98L 338.42 75.08L 358.34 75.55L 356.8 69.66L 357.87 68.9L 358.37 66.17L 358.32 66.23ZM 38.03 21.56L 35.34 22.29L 34.76 21.13L 32.76 21.49L 30.97 21.09L 29.91 21.76L 28.39 21.33L 27.84 21.58L 27.84 22.38L 28.55 23.38L 28.33 24.38L 28.81 25.67L 28.81 26.67L 28.27 27.67L 28.84 28.3L 28.24 29.53L 29.07 31.17L 27.71 37.8L 28.31 38.47L 27.81 40.08L 28.47 40.68L 28.61 43.39L 27.77 44.69L 28.35 45.39L 27.85 47.18L 28.9 48.23L 28.56 51.3L 27.78 52.08L 27.78 54.54L 28.89 55.35L 31.89 54.77L 33.14 55.48L 33.72 54.74L 35.81 55.9L 37.41 55.09L 38.13 57.44L 37.13 58.78L 37.5 60.39L 37.14 63.06L 38.14 66.18L 37.35 66.78L 37.15 66.7L 32.97 67.05L 31.97 66.79L 31.46 66.33L 29.96 66.6L 29.41 66.05L 28.82 66.05L 28.12 67.27L 22.79 66.79L 22.19 66.42L 21.83 65.79L 20.46 65.79L 17.83 62.86L 18.08 62.56L 16.01 58.5L 15.56 58.05L 16.03 56.36L 15.32 55.77L 15.91 53.33L 17.05 51.52L 15.81 48.06L 16.66 47.35L 16.45 44.16L 16.05 43.91L 17.05 41.83L 16.05 36.83L 15.62 36.11L 16.62 33.72L 16.01 32.29L 16.62 31.61L 16.03 30.97L 17.03 26.61L 15.78 25.69L 16.07 22.63L 16.56 21.76L 16.56 20.55L 17.04 20.07L 17.04 18.8L 16.62 18.62L 16.62 15.16L 17.11 14.67L 16.83 14.11L 17.75 13.57L 18.28 12.86L 18.06 11.62L 22.06 11.57L 22.78 10.07L 23.32 10.58L 25.06 9.57999L 26.96 9.81L 27.8 9.5L 28.8 10.74L 29.71 10.07L 30.44 10.07L 31.44 11.07L 35.12 9.85001L 35.67 10.54L 38.08 10.54L 37.71 12.37L 38.15 13.91L 37.39 15.48L 38.27 16.05L 37.65 16.81L 37.92 21.52L 38.03 21.56ZM 65.25 29.56L 64.99 31.47L 63.99 33.25L 64.3 36.84L 63.97 37.47L 64.48 37.65L 64.16 39.44L 65.04 40.25L 64.46 43.54L 65.53 44.39L 64.58 44.98L 64.58 45.89L 65.08 46.42L 64.83 47.78L 65.05 49.18L 64.15 49.8L 64.98 51.49L 64.24 52.6L 65.24 55.74L 64.01 58.14L 64.93 59.34L 64.66 62.25L 63.2 63.39L 62.96 64.56L 55.79 66.85L 54.79 65.7L 53.79 66.7L 51.6 65.82L 50.64 67.2L 48.37 66.48L 47.71 67.14L 46.99 66.54L 43.64 66.88L 42.58 66.1L 43.36 65.49L 42.36 62.85L 42.36 59.85L 43.44 56.48L 43.38 55.48L 43.68 55.18L 45.39 55.64L 46.39 55.12L 48.05 56.07L 48.38 55.38L 53.01 55.38L 52.36 53.24L 52.36 49L 52.47 48.73L 52.56 43.99L 53.35 43.38L 52.81 42.84L 52.81 41.3L 53.33 40.71L 52.76 39.1L 52.27 38.4L 52.65 36.8L 53.42 36.18L 52.42 32.62L 53.33 25.18L 52.33 21.42L 51.14 20.83L 43.66 21.76L 42.94 20.69L 43.21 18.15L 44.32 17.21L 43.43 16.52L 42.85 15.38L 43.18 12.96L 43.56 12.62L 43.56 10.04L 44.56 10.65L 45.37 10.85L 47.5 10.17L 49.15 10.17L 50.53 9.28L 56.72 9.28L 58.2 10.36L 58.56 10.08L 59.82 11.34L 60.93 11.19L 61.28 11.92L 63.69 13.67L 63.77 16.1L 64.68 16.68L 65.35 20.29L 64.49 21.22L 64.54 22.87L 64.18 23.87L 64.79 24.34L 64.79 26.08L 65.62 26.78L 65.07 28.62L 65.28 29.53L 65.25 29.56ZM 107.81 62.67L 107.48 66.9L 106.91 66.61L 102.8 66.61L 102.31 65.79L 102.17 65.92L 102.17 63.92L 101.43 63.18L 101.43 61.65L 99.33 58.79L 99.97 58.29L 98.83 56.66L 99.05 56.33L 97.98 55L 97.4 53.31L 97.62 52.65L 96.35 51.38L 96.35 50.38L 96.65 49.72L 95.01 48.41L 95.55 46.1L 94.63 45.26L 94.12 43.41L 92.72 41.61L 92.91 40.23L 92.19 39.45L 92.52 38.18L 91.52 37.7L 91.14 36.86L 90.39 36.13L 90.65 35.58L 90.06 34.71L 89.94 32.53L 89.19 32.02L 88.75 30.85L 88.14 30.36L 88.48 29.05L 87.26 28.05L 86.16 26L 86.16 25.38L 85.32 24.71L 85.87 23.32L 85.38 21.12L 83.08 17.66L 83.87 16.5L 82.57 15.5L 80.51 10.56L 83.76 10.49L 85.14 9.48999L 86.61 10.65L 92.9 10.05L 93.81 10.89L 94.55 9.89001L 95.31 10.89L 95.31 14.32L 96.95 15.79L 97.62 17.52L 97.62 20.32L 98.84 20.93L 101.18 27.71L 100.68 28.21L 103.22 32.6L 104.28 33.28L 103.94 35.1L 105.19 36.04L 105.3 36.66L 106.03 37.39L 106.58 39.23L 106.13 40.1L 107.13 41.1L 106.75 42.29L 108.29 45.37L 107.93 47.15L 107.46 47.68L 108.03 50.68L 107.28 53.55L 108.08 56.65L 107.17 57.39L 108.02 58.01L 107.5 60.67L 108.13 60.67L 108.56 61.46L 107.8 62.63L 107.81 62.67ZM 140.88 13L 139.35 14L 137.75 17.18L 138.63 18.52L 137.38 21.58L 134.78 24.01L 135.02 25.7L 134.65 27.7L 134.27 28L 134.27 28.88L 133.21 29.59L 133.48 30.94L 132.83 31.04L 132.01 31.86L 132.01 35.13L 129.66 38.13L 129.23 38.37L 129.23 39.87L 128.17 41.34L 128.42 43.17L 125.83 47.56L 126.42 48.22L 126.11 49.22L 124.11 51.88L 124.49 52.97L 121.71 57.74L 122.34 59.23L 120.24 62.08L 120.48 62.86L 120.12 63.86L 120.27 65.05L 118.73 66.25L 118.73 67.15L 117.64 67.15L 116.2 66.39L 114.44 66.39L 113.44 67.05L 113.44 65.73L 113.81 65.4L 113.89 65.13L 113.38 59.45L 114.15 58.96L 113.41 57.81L 113.68 56.81L 113.04 56.53L 114.18 54.27L 113.94 53.04L 114.39 52.22L 113.39 50.9L 113.69 46.5L 113.03 45.76L 113.6 45.41L 113.82 44.92L 113.58 43.35L 114.7 42.6L 114.34 40.77L 115.67 39.77L 115.67 38L 116.08 37.6L 117.98 33.84L 117.98 33.5L 119.74 29.6L 119.74 28.6L 121.06 26.96L 121.06 24.02L 122.06 23.02L 122.06 22.02L 123.29 20.76L 123.85 17.58L 124.79 15.92L 126.64 14L 126.64 12.71L 127.64 11.83L 127.64 10.83L 128.85 10.32L 129 10.46L 131.36 10.46L 132.05 9.51999L 133.51 9.51999L 134.3 10.52L 135.39 10.1L 136.46 10.84L 137.88 10.61L 138.88 11.1L 139.88 10.58L 141.16 12.77L 140.91 13.02L 140.88 13ZM 169.64 33.49L 169.22 35.68L 169.42 35.88L 168.53 37.32L 169.16 39.91L 168.9 42.19L 169.47 42.84L 168.74 43.7L 169.39 48.2L 168.17 49.09L 168.91 50.79L 168.91 52.59L 169.58 53.34L 168.92 54.07L 168.21 55.74L 169 56.38L 169.55 58.64L 168.99 59.64L 169.48 60.95L 168.74 63.05L 168.99 66.52L 168.16 66.92L 167.63 66.25L 166.04 66.32L 165.55 66.81L 162.55 66.81L 160.89 67.38L 157.36 67.01L 157 66.65L 157.32 66L 156.68 65.24L 157.37 64.16L 156.82 63.31L 156.82 62.31L 157.82 59.43L 157.17 58.93L 156.86 55.68L 157.33 55.21L 157.33 54.21L 156.84 53.69L 157.33 53.2L 156.62 51.2L 158.06 49.56L 157.77 47.56L 157.11 46.27L 157.11 44.42L 156.85 43.53L 157.85 40.76L 157.54 36.33L 158.11 35.6L 158.11 34.83L 157.51 34.42L 157.86 33.42L 157.01 32.08L 156.85 25.8L 156.24 25.37L 156.31 24.03L 156.84 23.09L 156.54 21.92L 157.31 21.29L 157.37 16.94L 156.86 15.87L 157.48 12.25L 156.88 11.65L 157.36 10.25L 159.85 10.71L 162.26 9.20999L 165.19 10.21L 166.19 10.21L 166.58 9.63L 168.28 10.38L 169.04 11.94L 169.47 22.38L 168.55 23.62L 169.55 26.76L 169.25 30.4L 170.04 31.2L 169.52 32.3L 169.76 33.4L 169.64 33.49ZM 206.1 57.57L 205.28 59.03L 205.91 60.09L 205.08 61.43L 205.46 63.37L 206.1 64.27L 205.32 64.98L 205.32 66.25L 204.48 65.87L 202.16 66.87L 199.37 67.14L 198.67 66.29L 195.75 67.4L 194.95 67.05L 192.95 67.12L 193.31 66.12L 192.86 65.2L 193.59 64.47L 192.59 63.56L 193.04 60.65L 192.54 60.18L 193.81 58.25L 193.27 51.97L 192.72 51.75L 193.51 50.75L 193.51 45.81L 192.75 45.19L 193.42 43.89L 193.72 41.25L 193.4 40.98L 192.71 41.24L 191.87 40.47L 191.67 41.14L 190.11 41.14L 188.71 40.4L 184.56 40.91L 183.74 40.48L 178.52 40.41L 178.01 40.93L 175.49 40.88L 174.97 40.09L 173.7 33.58L 174.95 32.5L 173.84 30.28L 174.23 28.84L 175.75 29.45L 176.68 28.93L 177.79 29.5L 186.41 30.02L 187.15 29.38L 190.43 29.99L 193.51 28.83L 193.22 28.51L 194.08 27.17L 193.3 25.93L 193.3 24.93L 193.74 24.49L 194.06 22.49L 193.46 21.49L 190.46 22.07L 188.3 21.8L 186.38 20.89L 185.47 21.8L 184.39 21.24L 183.69 22.12L 182.24 21.48L 178.72 22.06L 177.08 21.06L 176.14 21.52L 173.93 19.22L 173.93 18L 174.38 17.64L 174.38 16.71L 173.96 16.29L 173.6 13.71L 174.19 13.28L 173.99 9.78L 178.67 10.51L 179.67 9.51001L 181.67 10.16L 181.98 10.47L 182.88 10.47L 184.79 9.37L 186.15 10.27L 187.64 10.05L 188.53 10.51L 188.83 10.3L 191.31 10.63L 192.31 10.01L 193.71 10.01L 194.71 10.55L 196.55 9.73001L 197.03 9.73001L 197.84 10.54L 199.84 10.21L 202 12.52L 202.93 12.34L 204.78 13.92L 205.54 15.92L 204.8 17.06L 205.8 18.79L 205.53 19.45L 205.98 23.45L 205.48 23.76L 205.85 25.88L 205.28 26.38L 205.28 27.09L 204.98 27.68L 205.85 28.29L 205.56 29.09L 205.56 30.01L 201.41 34.18L 200.64 34.18L 199.13 35.31L 199.83 35.97L 202.09 35.97L 205.53 41.53L 205.82 44.72L 205.15 45.44L 206.15 47.44L 205.55 48.09L 205.55 50.29L 206.33 51.76L 205.59 52.86L 205.23 56.61L 206.05 57.52L 206.1 57.57ZM 257.99 59.31L 257.72 61.19L 257.34 61.29L 257.05 63.24L 257.8 64.71L 257.61 67.16L 254.01 66.37L 250.5 66.81L 249.11 66.56L 248.39 67.46L 247.44 66.58L 246.44 66.58L 245.05 63.71L 245.81 63.2L 245.81 62.36L 245.06 61.8L 244.8 58.56L 245.34 58.1L 245.11 56.76L 245.58 56.24L 245.03 49.92L 245.55 49.51L 245.3 40.51L 244.59 40.1L 245.1 38.94L 245.2 33.79L 244.96 33.43L 245.79 32.8L 245.79 32.37L 244.95 31.66L 245.2 27.59L 244.96 26.75L 245.96 26.29L 246.2 25.73L 244.81 18.56L 245.26 16.37L 246.06 15.06L 245.22 14.22L 245.74 13.22L 244.74 12.22L 245.08 10.34L 246.64 10.34L 249.37 9.34L 251.3 9.60999L 252.37 10.33L 253.29 10.13L 255.53 10.38L 257.07 10.02L 257.8 10.81L 257.27 11.81L 257.27 13.81L 256.75 14.22L 256.75 14.81L 257.57 15.28L 257.33 17.56L 258 18.25L 257.82 19.02L 257.91 20.91L 256.91 23.91L 257.46 24.52L 257.46 25.02L 256.96 25.52L 257.2 27.26L 256.99 27.79L 257.21 28.32L 256.68 29.69L 256.95 30.16L 257.48 36.46L 257.07 36.87L 256.73 38.67L 258.23 40.51L 256.71 42.86L 257.58 43.42L 256.99 44.49L 257.71 48.55L 257.05 50.27L 257.19 50.45L 256.92 51.68L 257.48 52.27L 257.48 53L 258.25 53.77L 257.47 54.32L 257.41 59.01L 257.92 59.34L 257.99 59.31ZM 308.24 30.1L 307.97 30.74L 307.71 33.31L 307.98 33.72L 307.17 36.38L 307.97 37.59L 308.19 40.49L 306.92 44.12L 307.92 45.33L 307.74 48.26L 308.4 49.26L 307.91 53.5L 307.4 54.04L 307.58 55.31L 307.38 56.62L 308.03 57.01L 308.15 59.39L 307.44 60.1L 308.02 61.16L 307.38 61.48L 307.82 62.33L 307.82 66.33L 305.41 66.61L 304.47 67.09L 304.32 66.97L 299.48 66.63L 298.11 65.8L 295.92 66.85L 296.7 59.64L 295.99 58.53L 296.56 58.16L 296.22 57.16L 296.5 56.43L 295.64 55.14L 295.36 50.54L 295.97 49.86L 296.21 43.97L 295.41 42.07L 295.69 41.75L 295.96 38.17L 295.43 35.81L 296.19 34.32L 295.36 29.58L 296.29 28.03L 295.67 26.77L 296 25.92L 295.43 24.77L 296.5 23.15L 295.64 21.3L 296.2 20.03L 295.78 19.8L 296.47 16.54L 295.99 16.01L 295.85 9.85999L 296.13 10.74L 296.35 10.49L 298.35 10.79L 299.89 9.87L 304.56 9.54999L 305.27 10.27L 307.69 10.57L 308.3 15.18L 307.23 16.18L 307.99 17.65L 307.75 24.13L 308 24.8L 308 25.46L 308.54 25.95L 307.94 26.26L 307.53 29.59L 308.28 30.08L 308.24 30.1ZM 349.42 67.1L 345.13 66.63L 343.3 67.39L 342.89 67.14L 339.64 67.14L 339.17 66.67L 338.17 67.2L 334.46 66.37L 334.06 66.94L 331.95 65.54L 331.95 64.54L 328.89 60.47L 328.82 59.59L 327.9 59L 328.46 57.42L 323.02 52L 322.92 51.32L 322.08 50.79L 321.35 48.06L 320.43 48.81L 320.43 50.08L 319.43 50.82L 319.43 51.92L 318.37 53.31L 318.66 54.25L 316.81 55.03L 315.36 56.48L 315.36 57.34L 313.98 58.73L 312.98 58.4L 312.65 55.94L 313.05 55.58L 313.45 52.87L 313.96 52.31L 312.87 50.78L 313.55 49.1L 312.55 46.76L 314.18 44.5L 313.4 42.74L 313.14 39.74L 313.92 39.09L 313.92 38.09L 314.92 37.75L 315.43 37.22L 315.75 33.91L 317.68 32.65L 317.68 31.76L 320.32 29.98L 324.89 23.59L 324.67 22.14L 325.08 21.95L 324.97 21.84L 325.26 21.84L 326.16 21.19L 325.85 20.33L 332.48 12.8L 333.77 12.36L 333.64 9.92001L 333.93 9.56L 335.16 10.18L 336.22 9.66L 337.02 10.12L 344.83 10.12L 345.44 10.7L 346.69 9.92001L 347 10.35L 348.12 10.35L 348.55 10.78L 348.05 12.53L 347.25 13.33L 346.75 15.25L 345.17 15.92L 344.24 16.86L 344.24 18.98L 341.45 20.15L 341.45 21.31L 338.58 24.88L 337.32 25.54L 337.47 26.66L 334.81 29.32L 334.81 30.71L 328.68 38.51L 328.68 39.24L 331.45 42.01L 331.45 42.79L 332.22 43.37L 332.22 43.87L 334.22 45.8L 334.22 47L 334.88 47.71L 335.42 47.71L 340.85 53.71L 340.85 54.85L 342.1 55.42L 342.1 56.51L 345.68 61.94L 346.92 62.8L 346.92 63.61L 347.33 64.01L 347.71 64.09L 347.71 65.2L 349.46 66.11L 349.46 67.06L 349.42 67.1Z"/>
</defs>
</svg>
