<svg xmlns="http://www.w3.org/2000/svg" viewBox="0 0 181 28">
    <g fill="none" fill-rule="nonzero">
        <path fill="#B2252B" d="M152.19.46c1.927 5.036 4.125 15.253-1.036 26.476-.055.145.129.273.324.142 6.176-4.094 11.558-11.95 13.333-18.368-6.15-3.19-9.85-6.485-12.083-8.598a.32.32 0 0 0-.418-.06.33.33 0 0 0-.12.409"/>
        <path fill="#6E1C45" d="M180.008 13.691c-5.117-.816-10.096-2.516-13.342-4.078-1.878 4.989-5.505 10.338-9.306 14.012-.203.18-.036.49.304.247 8.115-5.68 16.556-8.406 22.358-9.544.315-.074.322-.547-.009-.637"/>
        <path fill="#434343" d="M6.076 17.199c-2.253-.808-2.912-1.195-2.912-2.2 0-.914.951-1.603 2.208-1.603 1.187 0 2.428.362 3.792 1.107a.164.164 0 0 0 .157 0 .18.18 0 0 0 .089-.136l.367-2.456a.173.173 0 0 0-.096-.187 10.134 10.134 0 0 0-4.224-.9c-2.93 0-4.973 1.85-4.973 4.5 0 2.434 1.558 3.451 4.634 4.576 2.036.727 2.714 1.16 2.714 2.289 0 1.129-1.033 1.866-2.631 1.866-1.324 0-3.117-.516-4.584-1.313a.167.167 0 0 0-.155-.003.185.185 0 0 0-.09.137l-.37 2.39c-.012.081.03.16.102.192 1.658.735 3.425 1.14 4.982 1.14 3.247 0 5.427-1.904 5.427-4.733 0-2.56-1.559-3.616-4.438-4.666M26.114 10.823h-2.607a.176.176 0 0 0-.173.178v9.182c0 2.467-1.107 3.76-3.21 3.76-2.049 0-3.18-1.356-3.18-3.819v-9.123a.175.175 0 0 0-.171-.178h-2.585a.175.175 0 0 0-.171.178v9.246c0 3.975 2.27 6.35 6.075 6.35 3.874 0 6.19-2.417 6.19-6.469v-9.127a.175.175 0 0 0-.17-.178M34.484 17.66h-1.706v-4.309h1.766c1.286 0 2.818.374 2.818 2.155 0 1.451-.945 2.155-2.878 2.155m.322-6.838H29.96a.175.175 0 0 0-.175.172v14.554c0 .095.078.172.175.172h2.642a.175.175 0 0 0 .175-.172v-5.394h1.706c3.695 0 5.814-1.716 5.814-4.708 0-2.853-2.103-4.619-5.492-4.619M53.266 23.115h-6.522V19.29h5.398a.177.177 0 0 0 .17-.2l-.373-2.27a.175.175 0 0 0-.174-.143h-5.021v-3.24h6.32a.172.172 0 0 0 .173-.17v-2.271a.172.172 0 0 0-.172-.172h-9.09a.173.173 0 0 0-.173.172v14.554c0 .095.077.172.173.172h9.291a.172.172 0 0 0 .173-.172v-2.262a.169.169 0 0 0-.173-.172M63.568 15.455c0 1.426-.993 2.216-2.793 2.216h-1.737v-4.288h1.737c1.275 0 2.793.358 2.793 2.073v-.001zm-.013 4.137c1.92-.723 2.977-2.195 2.977-4.171 0-2.88-2.138-4.598-5.727-4.598h-4.567a.175.175 0 0 0-.121.05.166.166 0 0 0-.05.12v14.383c0 .045.017.088.05.12.031.032.075.05.121.05h2.62c.047 0 .091-.017.124-.05a.166.166 0 0 0 .05-.12v-5.384h1.336l4.07 5.66c.032.042.08.068.134.07h.041l2.708-.607a.173.173 0 0 0 .126-.105.18.18 0 0 0-.025-.16l-3.867-5.258zM82.182 10.836H79.6a.167.167 0 0 0-.158.111l-4.042 10.914-3.964-10.919a.182.182 0 0 0-.162-.119h-2.808a.174.174 0 0 0-.114.086.187.187 0 0 0-.009.145l5.61 14.557c.025.065.087.11.156.11h2.367a.175.175 0 0 0 .16-.11l5.701-14.542a.18.18 0 0 0-.015-.161.178.178 0 0 0-.141-.074M88.328 10.823h-2.323c-.084 0-.152.077-.152.172v14.554c0 .095.068.172.152.172h2.323c.085 0 .153-.077.153-.172V10.995c0-.095-.069-.171-.153-.172M102.322 23.115h-6.519V19.29h5.396c.052 0 .1-.022.133-.06a.18.18 0 0 0 .041-.14l-.38-2.27a.168.168 0 0 0-.167-.143h-5.023v-3.24h6.318a.173.173 0 0 0 .175-.17v-2.271a.172.172 0 0 0-.175-.172h-9.086a.173.173 0 0 0-.174.172v14.554c0 .095.078.172.174.172h9.287a.174.174 0 0 0 .175-.172v-2.262a.171.171 0 0 0-.175-.172M126.485 23.143h-5.309V10.995a.171.171 0 0 0-.17-.172h-2.568a.172.172 0 0 0-.172.172v14.554c0 .095.077.172.172.172h8.416c.05 0 .099-.021.131-.06a.17.17 0 0 0 .04-.14l-.37-2.243a.17.17 0 0 0-.168-.144M139.119 23.115h-6.525V19.29h5.4a.173.173 0 0 0 .171-.2l-.372-2.27a.175.175 0 0 0-.172-.143h-5.023v-3.24h6.32a.173.173 0 0 0 .176-.17v-2.271a.172.172 0 0 0-.175-.172h-9.092a.172.172 0 0 0-.172.172v14.554a.171.171 0 0 0 .172.172h9.296a.173.173 0 0 0 .168-.172v-2.262a.172.172 0 0 0-.172-.172M115.097 23.143h-5.312V10.995a.171.171 0 0 0-.169-.172h-2.568a.172.172 0 0 0-.17.172v14.554c0 .095.076.172.17.172h8.419c.05 0 .098-.021.131-.06a.178.178 0 0 0 .038-.14l-.371-2.243a.17.17 0 0 0-.17-.144"/>
    </g>
</svg>
