<svg xmlns="http://www.w3.org/2000/svg" viewBox="1787 282 247.825 21">
  <defs>
    <style>
      .cls-1 {
        fill: #1c1c21;
      }
    </style>
  </defs>
  <g id="WSJ_Logo" transform="translate(1719.908 -419.441)">
    <path id="path13406" class="cls-1" d="M313.6,719.557a1.415,1.415,0,1,0,1.322,1.412,1.356,1.356,0,0,0-1.322-1.412m-47.829,2.734h6.068v-.541l-.66-.15c-.6-.15-.872-.481-.872-1.322v-8.171h1.412c.871,0,1.322.21,1.382,2.043l.15,3.845c.12,3.455,1.112,4.417,2.795,4.417,1.712,0,2.163-1.172,2.163-2.824V718.9h-.631v.511c0,1.112-.15,1.893-.571,1.893-.39,0-.42-.3-.511-1.682l-.18-2.643c-.241-3.545-.691-4.777-3.305-5.258a5.044,5.044,0,0,0,4.026-5.107,4.932,4.932,0,0,0-5.227-5.017H261.561v.541l.571.12c1.081.241,1.112.811,1.112,3.245v11.957c0,2.674-.751,3.966-2.464,3.966-1.531,0-2.373-.751-2.373-3.665v-14.21c0-.841.27-1.081.931-1.232l.811-.18v-.541H253.87v.541l.66.18c.6.18.811.421.811,1.262v13.97c0,3.154,1.833,4.9,4.627,4.9s4.176-1.743,4.176-4.987V704.416c0-1.622.331-2.193,1.652-2.193,1.052,0,1.5.361,1.5,1.352v16.7c0,.842-.27,1.142-.872,1.292l-.661.18v.541Zm40.318-18.717c0-.841.271-1.111.871-1.232l.811-.18v-.571h-6.249v.541l.661.18c.6.18.871.421.871,1.262V720.4c0,.811-.33,1.262-1.262,1.262-1.081,0-1.232-.36-1.622-2.133l-3.845-18h-1.2l-3.665,17.425c-.421,1.953-.631,2.4-1.443,2.644l-.511.15v.541h4.3v-.541l-.631-.12c-.9-.18-1.142-.661-.691-2.944l2.163-11.146,2.373,11.807c.361,1.712.331,2.043-.961,2.283l-.631.12v.54h15.923v-6.85h-.571c-.3,3.154-.931,6.129-3.485,6.129h-1.2v-18ZM296.711,716.7v-.811h-4.056l-.12.811Zm-16.764-12.768V718.3c0,2.163,0,3.185-1.081,3.365l-.541.09v.541h4.416v-.541c-1.923-.27-1.923-.931-1.923-3.275V704.836l-.721-.661,7.361,18.116h1.261v-16.7c0-2.464,0-3,1.2-3.335l.42-.12v-.541H285.8v.541l.511.12c1.532.27,1.532.872,1.532,3.155v10.455l.3-.09-5.588-14.18h-4.3v.541l.42.12c.481.15.751.691,1.262,1.682m-9.644-1.622h1.2c1.2,0,2.313.781,2.313,4.687,0,4-.841,4.386-2.523,4.386H270.3Zm-20.008,9.434c0,8.682-.721,9.914-2.284,9.914s-2.253-1.232-2.253-9.854c0-8.352.751-9.554,2.253-9.554,1.562,0,2.284,1.2,2.284,9.494m3.275.18c0-5.738-1.833-10.485-5.558-10.485-3.755,0-5.528,4.747-5.528,10.485,0,5.768,1.833,10.515,5.528,10.515,3.816,0,5.558-4.747,5.558-10.515m-12.858-8.352c0-.841.21-1.111.811-1.262l.661-.18v-.541h-6.219v.541l.751.18c.6.15.932.361.932,1.232V718c0,2.013-.181,3.635-1.682,3.635-.962,0-1.682-.751-1.652-1.292.089-.932,1.652-.871,1.772-2.374a1.384,1.384,0,0,0-1.232-1.622,2.038,2.038,0,0,0-2.1,2.223,3.567,3.567,0,0,0,3.545,3.846c2.494,0,4.417-1.682,4.417-4.9v-13.94Zm-100.344,0c0-.841.27-1.111.871-1.232l.811-.18v-.571H135.8v.541l.661.18c.6.18.871.421.871,1.262V720.4c0,.811-.331,1.262-1.262,1.262-1.081,0-1.262-.361-1.652-2.133l-3.846-18h-1.2l-3.665,17.425c-.42,1.953-.631,2.4-1.442,2.644l-.511.15v.541h4.3v-.541l-.631-.12c-.9-.18-1.142-.661-.691-2.944l2.163-11.206,2.373,11.867c.33,1.712.33,2.043-.961,2.283l-.631.12v.541h15.953v-6.85h-.571c-.3,3.154-.931,6.129-3.485,6.129h-1.2v-18Zm83.639-1.262h.661c1.863,0,2.494,2.974,2.7,6.129h.57v-6.85H217.037v6.85h.571c.211-3.155.842-6.129,2.7-6.129h.661v17.965c0,.842-.27,1.142-.871,1.292l-.781.18v.541h6.489v-.541l-.932-.21c-.571-.15-.872-.331-.872-1.262V702.313ZM210.277,711.9l.931.03c1.352.03,1.742.541,2.014,3.816h.57V707.39h-.57c-.331,2.614-.692,3.725-1.983,3.755l-.961.03v-8.863h2.073c2.314,0,2.824,2.914,3.154,6.129h.571v-6.85H205.711v.541l.661.18c.69.18.871.6.871,1.292v16.673c0,.842-.27,1.142-.871,1.292l-.661.18v.54h10.665v-6.85H215.8c-.361,3.125-.751,6.129-3.455,6.129h-2.073Zm-11.326,0,.931.03c1.352.03,1.742.541,2.013,3.816h.571V707.39H201.9c-.33,2.614-.691,3.725-1.982,3.755l-.962.03v-8.863h2.073c2.314,0,2.824,2.974,3.154,6.129h.571v-6.85H194.084v.541l.961.18c.691.18.871.6.871,1.292v16.673c0,.842-.27,1.142-.871,1.292l-.661.18v.54h10.665v-6.85h-.57c-.361,3.125-.751,6.129-3.455,6.129h-2.073ZM186.6,702.313h.9c1.2,0,2.313.781,2.313,4.687,0,3.935-.841,4.386-2.523,4.386H186.6Zm-4.536,19.979h6.069v-.541l-.661-.15c-.6-.15-.871-.481-.871-1.322v-8.171h1.112c.871,0,1.322.361,1.382,2.043l.15,3.845c.12,3.455,1.112,4.417,2.794,4.417,1.712,0,2.163-1.172,2.163-2.824V718.9h-.631v.511c0,1.112-.15,1.893-.571,1.893-.391,0-.421-.3-.511-1.682l-.181-2.643c-.24-3.635-.721-4.777-3.3-5.258a5.044,5.044,0,0,0,4.026-5.107,4.932,4.932,0,0,0-5.227-5.017h-5.738v.541l.661.18c.6.18.871.421.871,1.262v16.7c0,.842-.27,1.142-.871,1.292l-.661.18v.54Zm-4.6-19.979h.661c1.862,0,2.493,2.974,2.7,6.129h.57v-6.85H170.5v6.85h.571c.21-3.155.841-6.129,2.7-6.129h.661v17.965c0,.842-.271,1.142-.871,1.292l-.781.18v.541h6.339v-.541l-.781-.18a1.124,1.124,0,0,1-.871-1.292Zm-6.94,14.6c0-6.159-6.759-7.781-6.759-12.257,0-.961.361-2.4,1.862-2.4,2.163,0,2.974,2.794,3.335,6.189h.571v-6.85h-.361c-.15.661-.421.962-.811.962-.691,0-1.052-1.082-2.7-1.082-2.554,0-4.3,2.133-4.3,4.927,0,5.077,6.76,7.21,6.76,11.9,0,2.133-.992,3.335-2.343,3.335-2.013,0-3.335-2.373-3.7-6.189h-.571v6.85h.361c.3-.991.691-1.081,1.021-1.081.571,0,1.172,1.2,2.914,1.2,2.674,0,4.717-2.313,4.717-5.5m-19.678-13.339c0-.841.27-1.111.871-1.232l.811-.18v-.571h-6.249v.541l.661.18c.6.18.871.421.871,1.262v16.7c0,.842-.27,1.142-.871,1.292l-.661.18v.54h9.824v-6.85h-.571c-.3,3.154-.931,6.129-3.485,6.129h-1.2v-18ZM130.963,716.7v-.811h-4.055l-.12.811ZM113.6,722.351h1.232l2.794-14.781h-.42l3.064,14.781h1.082l3.665-17.425c.391-1.833.6-2.464,1.322-2.644l.571-.15v-.541h-4.236v.541l.631.12c.9.18,1.111.721.691,2.944l-2.373,11.687h.361l-2.4-12.318c-.241-1.172-.391-2.133.6-2.314l.661-.12v-.541h-5.8v.541l.391.09c.6.15.691.511.931,1.653l.931,4.476-.18-2.7-2.073,10.936h.27l-2.434-12.017c-.27-1.232-.361-2.163.6-2.343l.451-.09v-.541h-5.919v.541l.571.15c.54.15.841.421,1.2,2.073l3.815,18ZM97.556,711.9l.931.03c1.352.03,1.742.541,2.013,3.816h.571V707.39H100.5c-.33,2.614-.691,3.725-1.983,3.755l-.961.03v-8.863h2.073c2.313,0,2.824,2.974,3.154,6.129h.571v-6.85H92.989v.541l.661.18c.691.18.871.6.871,1.292v16.673c0,.842-.27,1.142-.871,1.292l-.661.18v.541h10.665v-6.85h-.571c-.36,3.125-.751,6.129-3.455,6.129H97.556V711.9Zm-18.9,10.395h6.159v-.54l-.691-.15c-.541-.12-.9-.481-.9-1.322v-8.2h4.537v8.2c0,.842-.36,1.2-.9,1.322l-.691.15v.54h6.159v-.54l-.661-.18c-.6-.15-.872-.481-.872-1.322V703.574c0-.841.271-1.111.872-1.262l.661-.18v-.541H86.17v.541l.691.18a1.071,1.071,0,0,1,.9,1.232v7.721H83.225v-7.721c0-.841.331-1.081.9-1.232l.691-.18v-.541H78.659v.541l.661.18c.6.18.871.421.871,1.262v16.7c0,.842-.27,1.142-.871,1.292l-.661.18Zm-4.6-19.978h.661c1.862,0,2.493,2.974,2.7,6.129H78v-6.85H67.092v6.85h.571c.21-3.155.841-6.129,2.7-6.129h.661v17.965c0,.842-.27,1.142-.871,1.292l-.781.18v.54h6.489v-.54l-.931-.21c-.571-.15-.872-.331-.872-1.262V702.313Z" transform="translate(0 0)"/>
  </g>
</svg>
