<svg width="248" height="22" viewBox="0 0 248 22" version="1.1" xmlns="http://www.w3.org/2000/svg" xmlns:xlink="http://www.w3.org/1999/xlink">
<title>wall-street-blanco</title>
<desc>Created using Figma</desc>
<g id="Canvas" transform="translate(-265 -926)">
<g id="wall-street-blanco">
<g id="WSJ Logo">
<g id="path13406">
<use xlink:href="#path0_fill" transform="translate(265 926)" fill="#FFFFFF"/>
</g>
</g>
</g>
</g>
<defs>
<path id="path0_fill" d="M 246.508 18.111C 246.225 18.0924 245.943 18.1593 245.698 18.3031C 245.453 18.447 245.257 18.6611 245.136 18.9176C 245.015 19.1742 244.973 19.4613 245.017 19.7417C 245.061 20.0221 245.188 20.2828 245.382 20.49C 245.576 20.6972 245.828 20.8413 246.105 20.9035C 246.382 20.9657 246.671 20.9433 246.935 20.839C 247.199 20.7347 247.425 20.5535 247.585 20.3188C 247.745 20.0841 247.83 19.8068 247.83 19.523C 247.837 19.3431 247.809 19.1635 247.746 18.9947C 247.684 18.8259 247.588 18.6713 247.465 18.5398C 247.342 18.4084 247.194 18.3028 247.03 18.2292C 246.865 18.1555 246.688 18.1154 246.508 18.111L 246.508 18.111ZM 198.679 20.845L 204.747 20.845L 204.747 20.304L 204.087 20.154C 203.487 20.004 203.215 19.673 203.215 18.832L 203.215 10.661L 204.627 10.661C 205.498 10.661 205.949 10.871 206.009 12.704L 206.159 16.549C 206.279 20.004 207.271 20.966 208.954 20.966C 210.666 20.966 211.117 19.794 211.117 18.142L 211.117 17.454L 210.486 17.454L 210.486 17.965C 210.486 19.077 210.336 19.858 209.915 19.858C 209.525 19.858 209.495 19.558 209.404 18.176L 209.224 15.533C 208.983 11.988 208.533 10.756 205.919 10.275C 207.085 10.0355 208.128 9.39152 208.865 8.45695C 209.602 7.52239 209.984 6.35741 209.945 5.16801C 209.958 4.48763 209.83 3.81191 209.569 3.18339C 209.308 2.55488 208.92 1.98714 208.429 1.51591C 207.938 1.04469 207.355 0.680136 206.716 0.445235C 206.078 0.210335 205.397 0.110158 204.718 0.150985L 194.469 0.150985L 194.469 0.692001L 195.04 0.811996C 196.121 1.053 196.152 1.62299 196.152 4.05699L 196.152 16.014C 196.152 18.688 195.401 19.98 193.688 19.98C 192.157 19.98 191.315 19.229 191.315 16.315L 191.315 2.10503C 191.315 1.26403 191.585 1.02397 192.246 0.87297L 193.057 0.692977L 193.057 0.152022L 186.778 0.152022L 186.778 0.692977L 187.438 0.87297C 188.038 1.05297 188.249 1.29399 188.249 2.13499L 188.249 16.105C 188.249 19.259 190.082 21.005 192.876 21.005C 195.67 21.005 197.052 19.262 197.052 16.018L 197.052 2.97002C 197.052 1.34802 197.383 0.777022 198.704 0.777022C 199.756 0.777022 200.204 1.13801 200.204 2.12901L 200.204 18.829C 200.204 19.671 199.934 19.971 199.332 20.121L 198.671 20.301L 198.671 20.842L 198.679 20.845ZM 238.997 2.12797C 238.997 1.28697 239.268 1.01698 239.868 0.89598L 240.679 0.715987L 240.679 0.145003L 234.43 0.145003L 234.43 0.686019L 235.091 0.866012C 235.691 1.04601 235.962 1.28697 235.962 2.12797L 235.962 18.954C 235.962 19.765 235.632 20.216 234.7 20.216C 233.619 20.216 233.468 19.856 233.078 18.083L 229.233 0.0829917L 228.033 0.0829917L 224.368 17.508C 223.947 19.461 223.737 19.908 222.925 20.152L 222.414 20.302L 222.414 20.843L 226.714 20.843L 226.714 20.302L 226.083 20.182C 225.183 20.002 224.941 19.521 225.392 17.238L 227.555 6.09202L 229.928 17.899C 230.289 19.611 230.259 19.942 228.967 20.182L 228.336 20.302L 228.336 20.842L 244.259 20.842L 244.259 13.992L 243.688 13.992C 243.388 17.146 242.757 20.121 240.203 20.121L 239.003 20.121L 239.003 2.12102L 238.997 2.12797ZM 229.619 15.254L 229.619 14.443L 225.563 14.443L 225.443 15.254L 229.619 15.254ZM 212.855 2.48601L 212.855 16.854C 212.855 19.017 212.855 20.039 211.774 20.219L 211.233 20.309L 211.233 20.85L 215.649 20.85L 215.649 20.309C 213.726 20.039 213.726 19.378 213.726 17.034L 213.726 3.39L 213.005 2.72899L 220.366 20.845L 221.627 20.845L 221.627 4.145C 221.627 1.681 221.627 1.14498 222.827 0.809981L 223.247 0.689986L 223.247 0.148971L 218.708 0.148971L 218.708 0.689986L 219.219 0.809981C 220.751 1.07998 220.751 1.68201 220.751 3.96501L 220.751 14.42L 221.051 14.33L 215.463 0.150008L 211.163 0.150008L 211.163 0.691024L 211.583 0.811019C 212.064 0.961019 212.334 1.50203 212.845 2.49303L 212.855 2.48601ZM 203.201 0.871017L 204.401 0.871017C 205.601 0.871017 206.714 1.65203 206.714 5.55803C 206.714 9.55803 205.873 9.94401 204.191 9.94401L 203.208 9.94401L 203.201 0.871017ZM 183.193 10.305C 183.193 18.987 182.472 20.219 180.909 20.219C 179.346 20.219 178.656 18.987 178.656 10.365C 178.656 2.01297 179.407 0.811019 180.909 0.811019C 182.471 0.811019 183.193 2.01098 183.193 10.305L 183.193 10.305ZM 186.468 10.485C 186.468 4.74703 184.635 -1.61133e-05 180.91 -1.61133e-05C 177.155 -1.61133e-05 175.382 4.74703 175.382 10.485C 175.382 16.253 177.215 21 180.91 21C 184.726 21 186.468 16.253 186.468 10.485ZM 173.61 2.13298C 173.61 1.29198 173.82 1.02202 174.421 0.871017L 175.082 0.691024L 175.082 0.150008L 168.863 0.150008L 168.863 0.691024L 169.614 0.871017C 170.214 1.02102 170.546 1.23201 170.546 2.10301L 170.546 16.554C 170.546 18.567 170.365 20.189 168.864 20.189C 167.902 20.189 167.182 19.438 167.212 18.897C 167.301 17.965 168.864 18.026 168.984 16.523C 169.018 16.3346 169.012 16.1412 168.967 15.9551C 168.923 15.7689 168.84 15.5942 168.724 15.4418C 168.608 15.2893 168.462 15.1625 168.295 15.0694C 168.127 14.9764 167.943 14.919 167.752 14.901C 167.463 14.891 167.175 14.9427 166.907 15.0525C 166.64 15.1624 166.399 15.328 166.2 15.5383C 166.001 15.7485 165.85 15.9987 165.755 16.2721C 165.661 16.5456 165.626 16.8359 165.652 17.124C 165.614 17.6135 165.677 18.1057 165.837 18.5697C 165.998 19.0337 166.253 19.4595 166.585 19.8205C 166.918 20.1816 167.322 20.47 167.771 20.6678C 168.221 20.8656 168.706 20.9685 169.197 20.97C 171.691 20.97 173.614 19.288 173.614 16.07L 173.614 2.12999L 173.61 2.13298ZM 73.266 2.13298C 73.266 1.29198 73.536 1.02198 74.137 0.900985L 74.948 0.720992L 74.948 0.150008L 68.708 0.150008L 68.708 0.691024L 69.369 0.871017C 69.969 1.05102 70.24 1.29198 70.24 2.13298L 70.24 18.954C 70.24 19.765 69.909 20.216 68.978 20.216C 67.897 20.216 67.716 19.855 67.326 18.083L 63.48 0.0829917L 62.28 0.0829917L 58.615 17.508C 58.195 19.461 57.984 19.908 57.173 20.152L 56.662 20.302L 56.662 20.843L 60.962 20.843L 60.962 20.302L 60.331 20.182C 59.431 20.002 59.189 19.521 59.64 17.238L 61.803 6.03203L 64.176 17.899C 64.506 19.611 64.506 19.942 63.215 20.182L 62.584 20.302L 62.584 20.843L 78.537 20.843L 78.537 13.993L 77.966 13.993C 77.666 17.147 77.035 20.122 74.481 20.122L 73.281 20.122L 73.281 2.12199L 73.266 2.13298ZM 156.905 0.871017L 157.566 0.871017C 159.429 0.871017 160.06 3.84498 160.266 6.99998L 160.836 6.99998L 160.836 0.150008L 149.945 0.150008L 149.945 6.99998L 150.516 6.99998C 150.727 3.84498 151.358 0.871017 153.216 0.871017L 153.877 0.871017L 153.877 18.836C 153.877 19.678 153.607 19.978 153.006 20.128L 152.225 20.308L 152.225 20.849L 158.714 20.849L 158.714 20.308L 157.782 20.098C 157.211 19.948 156.91 19.767 156.91 18.836L 156.91 0.866988L 156.905 0.871017ZM 143.185 10.454L 144.116 10.484C 145.468 10.514 145.858 11.025 146.13 14.3L 146.7 14.3L 146.7 5.94401L 146.13 5.94401C 145.799 8.55801 145.438 9.66902 144.147 9.69902L 143.186 9.72899L 143.186 0.866012L 145.259 0.866012C 147.573 0.866012 148.083 3.77998 148.413 6.99498L 148.984 6.99498L 148.984 0.145003L 138.619 0.145003L 138.619 0.686019L 139.28 0.866012C 139.97 1.04601 140.151 1.466 140.151 2.158L 140.151 18.831C 140.151 19.673 139.881 19.973 139.28 20.123L 138.619 20.303L 138.619 20.843L 149.284 20.843L 149.284 13.993L 148.708 13.993C 148.347 17.118 147.957 20.122 145.253 20.122L 143.18 20.122L 143.185 10.454ZM 131.859 10.454L 132.79 10.484C 134.142 10.514 134.532 11.025 134.803 14.3L 135.374 14.3L 135.374 5.94401L 134.808 5.94401C 134.478 8.55801 134.117 9.66902 132.826 9.69902L 131.864 9.72899L 131.864 0.866012L 133.937 0.866012C 136.251 0.866012 136.761 3.83998 137.091 6.99498L 137.662 6.99498L 137.662 0.145003L 126.992 0.145003L 126.992 0.686019L 127.953 0.866012C 128.644 1.04601 128.824 1.466 128.824 2.158L 128.824 18.831C 128.824 19.673 128.554 19.973 127.953 20.123L 127.292 20.303L 127.292 20.843L 137.957 20.843L 137.957 13.993L 137.387 13.993C 137.026 17.118 136.636 20.122 133.932 20.122L 131.859 20.122L 131.859 10.454ZM 119.508 0.866988L 120.408 0.866988C 121.608 0.866988 122.721 1.648 122.721 5.554C 122.721 9.489 121.88 9.93999 120.198 9.93999L 119.508 9.93999L 119.508 0.866988ZM 114.972 20.846L 121.041 20.846L 121.041 20.305L 120.38 20.155C 119.78 20.005 119.509 19.674 119.509 18.833L 119.509 10.662L 120.621 10.662C 121.492 10.662 121.943 11.023 122.003 12.705L 122.153 16.55C 122.273 20.005 123.265 20.967 124.947 20.967C 126.659 20.967 127.11 19.795 127.11 18.143L 127.11 17.454L 126.479 17.454L 126.479 17.965C 126.479 19.077 126.329 19.858 125.908 19.858C 125.517 19.858 125.487 19.558 125.397 18.176L 125.216 15.533C 124.976 11.898 124.495 10.756 121.916 10.275C 123.082 10.0355 124.125 9.39152 124.862 8.45695C 125.599 7.52239 125.981 6.35741 125.942 5.16801C 125.955 4.48763 125.827 3.81191 125.566 3.18339C 125.305 2.55488 124.917 1.98714 124.426 1.51591C 123.935 1.04469 123.352 0.680136 122.713 0.445235C 122.075 0.210335 121.394 0.110158 120.715 0.150985L 114.977 0.150985L 114.977 0.692001L 115.638 0.871993C 116.238 1.05199 116.509 1.29302 116.509 2.13402L 116.509 18.834C 116.509 19.676 116.239 19.976 115.638 20.126L 114.977 20.306L 114.977 20.846L 114.972 20.846ZM 110.372 0.866988L 111.033 0.866988C 112.895 0.866988 113.526 3.84102 113.733 6.99602L 114.303 6.99602L 114.303 0.14598L 103.408 0.14598L 103.408 6.99602L 103.979 6.99602C 104.189 3.84102 104.82 0.866988 106.679 0.866988L 107.34 0.866988L 107.34 18.832C 107.34 19.674 107.069 19.974 106.469 20.124L 105.688 20.304L 105.688 20.845L 112.027 20.845L 112.027 20.304L 111.246 20.124C 110.962 20.0629 110.713 19.8943 110.55 19.6534C 110.388 19.4126 110.325 19.1182 110.375 18.832L 110.372 0.866988ZM 103.432 15.467C 103.432 9.30802 96.673 7.68601 96.673 3.21001C 96.673 2.24901 97.034 0.809981 98.535 0.809981C 100.698 0.809981 101.509 3.60401 101.87 6.99901L 102.441 6.99901L 102.441 0.148971L 102.08 0.148971C 101.93 0.809971 101.659 1.11101 101.269 1.11101C 100.578 1.11101 100.217 0.0289756 98.569 0.0289756C 96.015 0.0289756 94.269 2.16198 94.269 4.95598C 94.269 10.033 101.029 12.166 101.029 16.856C 101.029 18.989 100.037 20.191 98.686 20.191C 96.673 20.191 95.351 17.818 94.986 14.002L 94.415 14.002L 94.415 20.852L 94.776 20.852C 95.076 19.861 95.467 19.771 95.797 19.771C 96.368 19.771 96.969 20.971 98.711 20.971C 101.385 20.971 103.428 18.658 103.428 15.471L 103.432 15.467ZM 83.75 2.132C 83.75 1.291 84.02 1.02101 84.621 0.900008L 85.432 0.720016L 85.432 0.148971L 79.183 0.148971L 79.183 0.689986L 79.844 0.869979C 80.444 1.04998 80.715 1.291 80.715 2.132L 80.715 18.832C 80.715 19.674 80.445 19.974 79.844 20.124L 79.183 20.304L 79.183 20.844L 89.007 20.844L 89.007 13.994L 88.436 13.994C 88.136 17.148 87.505 20.123 84.951 20.123L 83.751 20.123L 83.751 2.12297L 83.75 2.132ZM 63.871 15.254L 63.871 14.443L 59.816 14.443L 59.696 15.254L 63.871 15.254ZM 46.508 20.905L 47.74 20.905L 50.534 6.12401L 50.114 6.12401L 53.178 20.905L 54.26 20.905L 57.925 3.48003C 58.316 1.64703 58.525 1.01598 59.247 0.835982L 59.818 0.686019L 59.818 0.145003L 55.582 0.145003L 55.582 0.686019L 56.213 0.806014C 57.113 0.986014 57.324 1.52698 56.904 3.74998L 54.531 15.437L 54.892 15.437L 52.492 3.119C 52.251 1.947 52.101 0.985977 53.092 0.804977L 53.753 0.684981L 53.753 0.144027L 47.953 0.144027L 47.953 0.684981L 48.344 0.775008C 48.944 0.925008 49.035 1.28602 49.275 2.42802L 50.206 6.90398L 50.026 4.20402L 47.953 15.14L 48.223 15.14L 45.789 3.12297C 45.519 1.89097 45.428 0.960013 46.389 0.780013L 46.84 0.689986L 46.84 0.148971L 40.921 0.148971L 40.921 0.689986L 41.492 0.840011C 42.032 0.990011 42.333 1.26101 42.692 2.91301L 46.507 20.913L 46.508 20.905ZM 30.464 10.454L 31.395 10.484C 32.747 10.514 33.137 11.025 33.408 14.3L 33.979 14.3L 33.979 5.94401L 33.408 5.94401C 33.078 8.55801 32.717 9.66902 31.425 9.69902L 30.464 9.72899L 30.464 0.866012L 32.537 0.866012C 34.85 0.866012 35.361 3.83998 35.691 6.99498L 36.262 6.99498L 36.262 0.145003L 25.897 0.145003L 25.897 0.686019L 26.558 0.866012C 27.249 1.04601 27.429 1.466 27.429 2.158L 27.429 18.831C 27.429 19.673 27.159 19.973 26.558 20.123L 25.897 20.303L 25.897 20.844L 36.562 20.844L 36.562 13.994L 35.991 13.994C 35.631 17.119 35.24 20.123 32.536 20.123L 30.464 20.123L 30.464 10.454ZM 11.564 20.849L 17.723 20.849L 17.723 20.309L 17.032 20.159C 16.491 20.039 16.132 19.678 16.132 18.837L 16.132 10.637L 20.669 10.637L 20.669 18.837C 20.669 19.679 20.309 20.037 19.769 20.159L 19.078 20.309L 19.078 20.849L 25.237 20.849L 25.237 20.309L 24.576 20.129C 23.976 19.979 23.704 19.648 23.704 18.807L 23.704 2.12797C 23.704 1.28697 23.975 1.01701 24.576 0.866012L 25.237 0.686019L 25.237 0.145003L 19.078 0.145003L 19.078 0.686019L 19.769 0.866012C 19.9094 0.886824 20.0443 0.935354 20.1659 1.00877C 20.2874 1.08219 20.3931 1.17905 20.4768 1.29369C 20.5606 1.40833 20.6207 1.53847 20.6537 1.67656C 20.6867 1.81464 20.6919 1.95789 20.669 2.09801L 20.669 9.81901L 16.133 9.81901L 16.133 2.09801C 16.133 1.25701 16.464 1.01701 17.033 0.866012L 17.724 0.686019L 17.724 0.145003L 11.567 0.145003L 11.567 0.686019L 12.228 0.866012C 12.828 1.04601 13.099 1.28697 13.099 2.12797L 13.099 18.828C 13.099 19.67 12.829 19.97 12.228 20.12L 11.567 20.3L 11.564 20.849ZM 6.964 0.871017L 7.625 0.871017C 9.487 0.871017 10.118 3.84498 10.325 6.99998L 10.908 6.99998L 10.908 0.150008L 2.86865e-06 0.150008L 2.86865e-06 6.99998L 0.571002 6.99998C 0.781002 3.84498 1.412 0.871017 3.271 0.871017L 3.932 0.871017L 3.932 18.836C 3.932 19.678 3.662 19.978 3.061 20.128L 2.28 20.308L 2.28 20.848L 8.769 20.848L 8.769 20.308L 7.838 20.098C 7.267 19.948 6.966 19.767 6.966 18.836L 6.966 0.866988L 6.964 0.871017Z"/>
</defs>
</svg>
