<svg xmlns="http://www.w3.org/2000/svg" width="260" height="76" viewBox="0 0 260 76">
    <defs>
        <linearGradient id="a" x1="60.804%" x2="26.974%" y1="4.947%" y2="71.916%">
            <stop offset="0%" stop-color="#00A0FF"/>
            <stop offset=".657%" stop-color="#00A1FF"/>
            <stop offset="26.01%" stop-color="#00BEFF"/>
            <stop offset="51.22%" stop-color="#00D2FF"/>
            <stop offset="76.04%" stop-color="#00DFFF"/>
            <stop offset="100%" stop-color="#00E3FF"/>
        </linearGradient>
        <linearGradient id="b" x1="107.622%" x2="-130.536%" y1="50.016%" y2="50.016%">
            <stop offset="0%" stop-color="#FFE000"/>
            <stop offset="40.87%" stop-color="#FFBD00"/>
            <stop offset="77.54%" stop-color="#FFA500"/>
            <stop offset="100%" stop-color="#FF9C00"/>
        </linearGradient>
        <linearGradient id="c" x1="86.253%" x2="-50.188%" y1="30.503%" y2="137.853%">
            <stop offset="0%" stop-color="#FF3A44"/>
            <stop offset="100%" stop-color="#C31162"/>
        </linearGradient>
        <linearGradient id="d" x1="-18.77%" x2="42.12%" y1="-13.105%" y2="34.774%">
            <stop offset="0%" stop-color="#32A071"/>
            <stop offset="6.85%" stop-color="#2DA771"/>
            <stop offset="47.62%" stop-color="#15CF74"/>
            <stop offset="80.09%" stop-color="#06E775"/>
            <stop offset="100%" stop-color="#00F076"/>
        </linearGradient>
    </defs>
    <g fill="none" fill-rule="evenodd">
        <rect width="260" height="76" fill="#2E2E2E" rx="3"/>
        <g fill-rule="nonzero">
            <path fill="#FFF" d="M130.798 41.345c-3.728 0-6.774 2.832-6.774 6.723 0 3.875 3.046 6.722 6.774 6.722s6.774-2.847 6.774-6.722c0-3.891-3.046-6.723-6.774-6.723zm0 10.804c-2.047 0-3.808-1.677-3.808-4.081 0-2.42 1.761-4.081 3.808-4.081 2.046 0 3.807 1.66 3.807 4.08 0 2.405-1.777 4.082-3.807 4.082zm-14.786-10.804c-3.728 0-6.774 2.832-6.774 6.723 0 3.875 3.046 6.722 6.774 6.722s6.774-2.847 6.774-6.722c0-3.891-3.046-6.723-6.774-6.723zm0 10.804c-2.047 0-3.808-1.677-3.808-4.081 0-2.42 1.761-4.081 3.808-4.081 2.046 0 3.807 1.66 3.807 4.08 0 2.405-1.76 4.082-3.807 4.082zm-17.578-8.731v2.847h6.853c-.206 1.597-.745 2.783-1.554 3.59-1 .997-2.554 2.088-5.283 2.088-4.22 0-7.52-3.385-7.52-7.592 0-4.208 3.3-7.593 7.52-7.593 2.268 0 3.934.886 5.156 2.04l2.015-2.008c-1.714-1.629-3.982-2.879-7.187-2.879-5.775 0-10.63 4.682-10.63 10.456 0 5.757 4.855 10.455 10.63 10.455 3.125 0 5.473-1.013 7.314-2.926 1.887-1.883 2.474-4.54 2.474-6.675 0-.665-.047-1.281-.158-1.788h-9.63v-.015zm71.882 2.214c-.555-1.503-2.268-4.287-5.774-4.287-3.475 0-6.362 2.721-6.362 6.723 0 3.764 2.856 6.722 6.695 6.722 3.094 0 4.886-1.882 5.616-2.974l-2.3-1.534c-.762 1.123-1.809 1.867-3.316 1.867s-2.586-.696-3.268-2.04l9.027-3.718-.318-.76zm-9.201 2.246c-.08-2.594 2.015-3.923 3.522-3.923 1.174 0 2.173.586 2.507 1.424l-6.029 2.499zm-7.33 6.517h2.967V34.623h-2.966v19.772zm-4.854-11.547h-.111c-.666-.79-1.936-1.503-3.554-1.503-3.379 0-6.472 2.958-6.472 6.754 0 3.765 3.093 6.707 6.472 6.707 1.603 0 2.888-.712 3.554-1.534h.095v.965c0 2.578-1.38 3.954-3.601 3.954-1.809 0-2.935-1.297-3.395-2.389l-2.586 1.076c.746 1.787 2.713 3.97 5.98 3.97 3.475 0 6.41-2.04 6.41-7.007V41.757h-2.808v1.091h.016zm-3.41 9.3c-2.047 0-3.76-1.708-3.76-4.049 0-2.372 1.713-4.096 3.76-4.096 2.014 0 3.6 1.74 3.6 4.096.016 2.341-1.57 4.05-3.6 4.05zm38.693-17.525h-7.092v19.772h2.967v-7.498h4.14c3.285 0 6.505-2.372 6.505-6.137 0-3.764-3.252-6.137-6.52-6.137zm.063 9.522h-4.204V37.36h4.204c2.221 0 3.475 1.834 3.475 3.384 0 1.55-1.254 3.401-3.475 3.401zm18.308-2.831c-2.142 0-4.363.949-5.283 3.02l2.634 1.092c.555-1.091 1.602-1.455 2.697-1.455 1.523 0 3.093.918 3.11 2.547v.205c-.54-.3-1.682-.759-3.094-.759-2.84 0-5.712 1.55-5.712 4.445 0 2.641 2.317 4.35 4.918 4.35 1.983 0 3.094-.886 3.776-1.93h.095v1.534h2.856v-7.576c.016-3.512-2.618-5.473-5.997-5.473zm-.365 10.835c-.968 0-2.316-.49-2.316-1.677 0-1.518 1.682-2.104 3.141-2.104 1.301 0 1.92.285 2.697.665-.222 1.819-1.808 3.116-3.522 3.116zm16.785-10.408l-3.395 8.573h-.095l-3.522-8.573h-3.189l5.283 11.99-3.014 6.658h3.093l8.139-18.648h-3.3zm-26.653 12.654h2.967V34.623h-2.967v19.772z"/>
            <path fill="url(#a)" d="M1.387.892C.913 1.403.635 2.196.635 3.203v36.524c0 1.024.278 1.816.752 2.312l.114.115 20.251-20.441v-.495L1.502.776l-.115.116z" transform="translate(37.695 17.076)"/>
            <path fill="url(#b)" d="M28.502 28.532l-6.75-6.82v-.494l6.75-6.82.147.083 7.993 4.59c2.288 1.304 2.288 3.45 0 4.772l-7.993 4.59-.147.1z" transform="translate(37.695 17.076)"/>
            <path fill="url(#c)" d="M28.65 28.433l-6.898-6.968L1.387 42.04c.752.809 1.994.908 3.4.099l23.862-13.705" transform="translate(37.695 17.076)"/>
            <path fill="url(#d)" d="M28.65 14.497L4.77.793c-1.405-.81-2.647-.71-3.4.099l20.382 20.573 6.897-6.968z" transform="translate(37.695 17.076)"/>
            <g fill="#000">
                <path d="M66.197 45.36L42.465 58.983c-1.323.76-2.517.71-3.268.016l-.115.116.115.115c.768.694 1.945.743 3.268-.016l23.88-13.705-.148-.149z" opacity=".2"/>
                <path d="M39.082 58.884c-.474-.512-.752-1.305-.752-2.312v.248c0 1.023.278 1.816.752 2.311l.115-.115-.115-.132z" opacity=".12"/>
            </g>
            <path fill="#000" d="M74.337 40.688L66.18 45.36l.147.15 7.993-4.591c1.144-.66 1.716-1.52 1.716-2.378-.082.776-.654 1.552-1.7 2.147z" opacity=".12"/>
            <path fill="#FFF" d="M42.465 18.1l31.872 18.295c1.03.594 1.618 1.354 1.716 2.146 0-.858-.572-1.734-1.716-2.378L42.465 17.87c-2.288-1.305-4.151-.215-4.151 2.427v.247c0-2.658 1.88-3.748 4.151-2.443z" opacity=".25"/>
            <g fill="#FFF" stroke="#FFF" stroke-width=".2">
                <path d="M86.555 25.704v-8.838h2.957c1.486 0 2.682.412 3.571 1.222.889.825 1.341 1.886 1.341 3.197 0 1.31-.452 2.372-1.34 3.196-.89.81-2.07 1.223-3.556 1.223h-2.973zm1.244-1.09h1.713c1.115 0 2.004-.295 2.666-.884.663-.59.986-1.4.986-2.46 0-1.046-.323-1.856-.986-2.445-.662-.59-1.535-.884-2.666-.884h-1.713v6.673zM96.186 25.704v-8.838h1.244v8.838zM102.391 25.896c-.711 0-1.39-.207-2.068-.634-.68-.427-1.115-1.002-1.325-1.768l1.13-.412c.13.486.405.899.825 1.223.42.338.889.5 1.422.5.533 0 1.002-.132 1.39-.382.387-.266.581-.604.581-1.061 0-.486-.194-.87-.581-1.134-.388-.266-.986-.516-1.826-.752-.857-.25-1.503-.56-1.956-.957a1.932 1.932 0 0 1-.662-1.503c0-.633.274-1.178.824-1.65.55-.471 1.276-.707 2.15-.707.823 0 1.486.192 2.003.56.517.368.856.78 1.002 1.223l-1.131.427c-.081-.28-.275-.545-.598-.78-.324-.237-.727-.354-1.245-.354-.484 0-.888.117-1.228.368-.34.25-.5.545-.5.913 0 .324.16.604.468.84.307.22.776.427 1.374.604.484.147.872.28 1.195.412.324.133.647.31.97.53.323.222.582.487.743.81.162.325.259.708.259 1.135 0 .427-.097.81-.291 1.15a2.142 2.142 0 0 1-.776.795 4.26 4.26 0 0 1-1.034.456 3.98 3.98 0 0 1-1.115.148zM108.661 25.704h-1.244v-8.838h3.296c.824 0 1.535.25 2.133.75.598.502.905 1.12.905 1.886 0 .752-.307 1.385-.905 1.886-.598.5-1.309.751-2.133.751h-2.052v3.565zm0-4.67h2.085c.517 0 .937-.162 1.26-.486.323-.324.469-.677.469-1.06s-.162-.737-.469-1.061c-.323-.324-.743-.486-1.26-.486h-2.085v3.093zM123.253 24.555c-.953.899-2.133 1.34-3.555 1.34-1.422 0-2.602-.441-3.555-1.34-.954-.884-1.438-1.974-1.438-3.27 0-1.297.468-2.387 1.422-3.27.953-.9 2.133-1.341 3.555-1.341 1.406 0 2.585.442 3.555 1.34.953.9 1.438 1.99 1.438 3.27 0 1.297-.485 2.387-1.422 3.271zm-6.189-.736c.711.662 1.6.987 2.634.987 1.034 0 1.923-.325 2.634-.987.711-.663 1.083-1.503 1.083-2.534s-.356-1.871-1.083-2.534c-.711-.663-1.6-.987-2.634-.987-1.034 0-1.923.324-2.634.987-.711.663-1.083 1.503-1.083 2.534s.356 1.87 1.083 2.534zM126.42 25.704v-8.838h1.52l4.718 6.879h.049l-.049-1.709v-5.17h1.244v8.838h-1.292l-4.93-7.203h-.048l.049 1.708v5.495zM136.116 25.704v-8.838h1.245v8.838zM139.59 25.704v-8.838h3.507c.76 0 1.422.235 1.972.677.55.457.84 1.031.84 1.724 0 .427-.113.795-.356 1.104-.242.325-.549.56-.953.722v.044a2.39 2.39 0 0 1 1.18.767c.307.368.468.78.468 1.266 0 .722-.29 1.326-.872 1.798-.614.5-1.293.736-2.101.736h-3.684zm1.245-5.053h2.262c.469 0 .84-.147 1.131-.427.291-.28.42-.59.42-.928 0-.339-.129-.648-.42-.928-.274-.28-.63-.427-1.082-.427h-2.311v2.71zm0 3.963h2.505c.484 0 .872-.147 1.163-.457.29-.309.453-.633.453-1.001 0-.369-.146-.693-.47-.987-.306-.295-.71-.457-1.211-.457h-2.456v2.902h.016zM147.897 25.704v-8.838h1.244v7.748h4.201v1.09zM160.566 17.956h-4.412v2.798h3.975v1.061h-3.975v2.799h4.412v1.09h-5.656v-8.838h5.656zM171.441 17.956h-4.411v2.798h3.975v1.061h-3.975v2.799h4.411v1.09h-5.656v-8.838h5.656zM173.38 25.704v-8.838h1.52l4.718 6.879h.048l-.048-1.709v-5.17h1.244v8.838h-1.293l-4.928-7.203h-.049l.049 1.708v5.495z"/>
            </g>
        </g>
    </g>
</svg>
