<?xml version="1.0" encoding="UTF-8"?>
<svg viewBox="0 0 54 12" version="1.1" xmlns="http://www.w3.org/2000/svg" xmlns:xlink="http://www.w3.org/1999/xlink">
    <!-- Generator: Sketch 52.6 (67491) - http://www.bohemiancoding.com/sketch -->
    <title>brando-bco</title>
    <desc>Created with Sketch.</desc>
    <defs>
        <path d="M33.0006316,7.01873684 L29.6103158,0.631578947 L26.3261053,0.631578947 L26.3261053,10.6882105 L23.2351579,0.631578947 L19.1665263,0.631578947 L16.2612632,10.3787368 L14.2907368,7.60736842 C15.6898103,7.51429945 16.8090134,6.4093451 16.92,5.01157895 L16.92,3.51157895 C16.9198473,2.74451339 16.613766,2.00918676 16.0695933,1.46857075 C15.5254206,0.927954741 14.7881027,0.626701734 14.0210526,0.631578947 L8.69431579,0.631520636 L8.69431579,11.4315789 L11.3052632,11.4315789 L11.3052632,7.55115789 L13.968,11.4315789 L18.6075789,11.4315789 L19.1677895,9.62968421 L23.2364211,9.62968421 L23.7896842,11.4315789 L28.9263158,11.4315789 L28.9263158,4.85747368 L32.5717895,11.4315789 L35.6128421,11.4315789 L35.6128421,0.631520636 L33.0006316,0.631578947 L33.0006316,7.01873684 Z M14.2351579,4.54168421 C14.2351579,5.18463158 14.076,5.42968421 13.404,5.42968421 L11.2951579,5.42968421 L11.2951579,3.12315789 L13.404,3.12315789 C14.076,3.12315789 14.2338947,3.36947368 14.2351579,4.01242105 L14.2351579,4.54168421 Z M19.8789474,7.25305263 L21.1995789,3.06757895 L22.5258947,7.25305263 L19.8789474,7.25305263 Z M6.87410526,5.97978947 C7.71865906,5.45885867 8.23555802,4.53984764 8.24210526,3.54757895 C8.22440415,2.7547601 7.89180364,2.00160575 7.31776741,1.45447005 C6.74373118,0.907334364 5.97549233,0.611237004 5.18273684,0.631578947 L0,0.631578947 L0,11.4315789 L5.36273684,11.4315789 C6.15564762,11.4522614 6.92414621,11.1562966 7.49835761,10.6091069 C8.072569,10.0619172 8.4052049,9.30856564 8.42273684,8.51557895 C8.40649551,7.45178951 7.81327883,6.48091736 6.87410526,5.98105263 L6.87410526,5.97978947 Z M2.60526316,3.12442105 L4.67368421,3.12442105 C5.24905263,3.12442105 5.48715789,3.33852632 5.48715789,3.89621053 L5.48715789,4.22652632 C5.48715789,4.78484211 5.25473684,4.99831579 4.67368421,4.99831579 L2.60526316,4.99831579 L2.60526316,3.12442105 Z M5.652,8.12336842 C5.652,8.70442105 5.39936842,8.92673684 4.78105263,8.92673684 L2.60526316,8.92673684 L2.60526316,6.97831579 L4.78042105,6.97831579 C5.39747368,6.97831579 5.65136842,7.20063158 5.65136842,7.78168421 L5.652,8.12336842 Z M50.1909474,0.631578947 L47.5275789,0.631578947 C46.7591301,0.631243673 46.0220586,0.936360318 45.4786831,1.47973577 C44.9353077,2.02311123 44.630191,2.76018272 44.6305263,3.52863158 L44.6305263,8.53705263 C44.6308613,9.30506377 44.9362737,10.0414861 45.4795765,10.5843151 C46.0228793,11.1271441 46.7595678,11.431914 47.5275789,11.4315789 L50.2105263,11.4315789 C50.9754777,11.4354685 51.7102144,11.1332696 52.2510643,10.592301 C52.7919143,10.0513324 53.093952,9.31652943 53.0898947,8.55157895 L53.0898947,3.51157895 C53.0897421,2.74451339 52.7836607,2.00918676 52.239488,1.46857075 C51.6953153,0.927954741 50.9579974,0.626701734 50.1909474,0.631578947 Z M50.4713684,8.20610526 C50.4717182,8.60186276 50.1515457,8.92316555 49.7557895,8.92421053 L47.9728421,8.92421053 C47.7833425,8.92454592 47.6014895,8.8495025 47.4673744,8.71562438 C47.3332593,8.58174626 47.2578944,8.4000262 47.2578947,8.21052632 L47.2578947,3.84378947 C47.2568465,3.447785 47.5768387,3.12581405 47.9728421,3.12442105 L49.7557895,3.12442105 C49.9455081,3.12408497 50.1275531,3.19930164 50.2617047,3.3334532 C50.3958563,3.46760476 50.4710729,3.64964976 50.4707368,3.83936842 L50.4713684,8.20610526 Z M41.3962105,0.631578947 L36.0385263,0.631575459 L36.0385263,11.4315789 L41.4195789,11.4315789 C42.1823976,11.4305746 42.9135742,11.1265825 43.4522577,10.5864776 C43.9909413,10.0463726 44.2930057,9.31439761 44.292,8.55157895 L44.292,3.51157895 C44.2857339,1.91743498 42.9903649,0.629129085 41.3962105,0.631578947 Z M41.6627368,8.20484211 C41.6637851,8.60084658 41.3437929,8.92281753 40.9477895,8.92421053 L38.6526316,8.92421053 L38.6526316,3.13957895 L40.9509474,3.13957895 C41.3446111,3.13992717 41.6636518,3.45896781 41.664,3.85263158 L41.6627368,8.20484211 Z" id="path-1"></path>
    </defs>
    <g id="Page-1" stroke="none" stroke-width="1" fill="none" fill-rule="evenodd">
        <g id="Elementos" transform="translate(-507.000000, -550.000000)">
            <g id="brando-bco" transform="translate(507.000000, 550.000000)">
                <rect id="Rectangle-Copy" x="0" y="0" width="53.2533333" height="16"></rect>
                <mask id="mask-2" fill="white">
                    <use xlink:href="#path-1"></use>
                </mask>
                <use id="brando" fill="#FFFFFF" fill-rule="nonzero" xlink:href="#path-1"></use>
            </g>
        </g>
    </g>
</svg>