<?xml version="1.0" encoding="UTF-8"?>
<svg width="19px" height="19px" viewBox="0 0 19 19" version="1.1" xmlns="http://www.w3.org/2000/svg" xmlns:xlink="http://www.w3.org/1999/xlink">
    <!-- Generator: Sketch 57 (83077) - https://sketch.com -->
    <title>check</title>
    <desc>Created with Sketch.</desc>
    <g id="Page-1" stroke="none" stroke-width="1" fill="none" fill-rule="evenodd">
        <g id="Libreria---iconografía" transform="translate(-727.000000, -269.000000)">
            <g id="check" transform="translate(721.000000, 263.000000)">
                <rect id="Rectangle-Copy-22" x="0" y="0" width="30" height="30"></rect>
                <path d="M15.5,6 C17.2110217,6 18.7943547,6.42775577 20.2500002,7.28326641 C21.7056457,8.13877706 22.8612238,9.29435514 23.7167345,10.7499998 C24.5722451,12.2056453 25,13.7889783 25,15.5 C25,17.2110217 24.5722451,18.7943547 23.7167345,20.2500002 C22.8612238,21.7056457 21.7056457,22.8612238 20.2500002,23.7167345 C18.7943547,24.5722442 17.2110217,25 15.5,25 C13.7889783,25 12.2056453,24.5722442 10.7499998,23.7167345 C9.29435514,22.8612238 8.13877706,21.7056457 7.28326641,20.2500002 C6.42775577,18.7943547 6,17.2110217 6,15.5 C6,13.7889783 6.42775577,12.2056453 7.28326641,10.7499998 C8.13877706,9.29435514 9.29435514,8.13877706 10.7499998,7.28326641 C12.2056453,6.42775577 13.7889783,6 15.5,6 Z M15.5,8 C14.1499998,8 12.9000001,8.33750015 11.7500002,9.01250045 C10.6000004,9.68749988 9.68749988,10.6000004 9.01250045,11.7500002 C8.33750015,12.9000001 8,14.1499998 8,15.5 C8,16.8500002 8.33750015,18.0999999 9.01250045,19.2499998 C9.68749988,20.4000005 10.6000004,21.3125001 11.7500002,21.9875004 C12.9000001,22.6624998 14.1499998,23 15.5,23 C16.8500002,23 18.0999999,22.6624998 19.2500007,21.9875004 C20.4000005,21.3125001 21.3125001,20.4000005 21.9875004,19.2499998 C22.6624998,18.0999999 23,16.8500002 23,15.5 C23,14.1499998 22.6624998,12.9000001 21.9875004,11.7500002 C21.3125001,10.6000004 20.4000005,9.68749988 19.2500007,9.01250045 C18.0999999,8.33750015 16.8500002,8 15.5,8 Z M20.8472219,12.9541277 C20.9490745,13.0519879 21,13.1620797 21,13.2844031 C21,13.4067274 20.9490745,13.5045867 20.8472219,13.577981 L14.2777775,19.8532107 C14.1759257,19.9510699 14.0613423,20 13.9340273,20 C13.8067132,20 13.7048605,19.9510699 13.6284719,19.8532107 L10.1527773,16.513761 C10.0509255,16.4159017 10,16.3058099 10,16.1834856 C10,16.0611622 10.0509255,15.963302 10.1527773,15.8899078 L11.0312496,15.045871 C11.1076382,14.9724767 11.2094909,14.9357792 11.336805,14.9357792 C11.46412,14.9357792 11.5787034,14.9724767 11.6805552,15.045871 L13.9340273,17.2844036 L19.3576387,12.1100909 C19.4340273,12.0366967 19.53588,12 19.6631941,12 C19.7905091,12 19.9050925,12.0489292 20.0069443,12.1467885 L20.8472219,12.9541277 Z" fill="#ffffff" fill-rule="nonzero"></path>
            </g>
        </g>
    </g>
</svg>