<svg xmlns="http://www.w3.org/2000/svg" xmlns:xlink="http://www.w3.org/1999/xlink" width="518" height="79" viewBox="0 0 518 79">
    <defs>
        <path id="a" d="M0 0h530v47H0z"/>
    </defs>
    <g fill="none" fill-rule="evenodd">
        <g transform="translate(-1)">
            <mask id="b" fill="#fff">
                <use xlink:href="#a"/>
            </mask>
            <g fill-rule="nonzero" mask="url(#b)">
                <path fill="#000" d="M85.818 1.915c2.281-1.219 4.036-2.96 5.265-5.222a16.01 16.01 0 0 0 1.93-7.66 16.01 16.01 0 0 0-1.93-7.659c-1.229-2.263-2.984-4.004-5.265-5.222-2.282-1.219-4.739-1.915-7.547-1.915s-5.265.696-7.546 1.915c-2.281 1.218-4.036 2.96-5.265 5.222a16.01 16.01 0 0 0-1.93 7.66c0 2.785.702 5.396 1.93 7.659 1.229 2.263 2.984 4.003 5.265 5.222 2.281 1.218 4.738 1.915 7.546 1.915s5.44-.697 7.547-1.915zM65.285 9.922c-3.861-2.089-7.02-4.874-9.126-8.53-2.282-3.655-3.335-7.659-3.335-12.359 0-4.526 1.053-8.703 3.335-12.359 2.281-3.655 5.265-6.44 9.126-8.53 3.86-2.088 8.248-3.133 13.162-3.133 4.914 0 9.301 1.045 13.162 3.133 3.861 2.09 6.844 4.875 9.126 8.53 2.281 3.656 3.334 7.66 3.334 12.36 0 4.525-1.053 8.703-3.334 12.359-2.282 3.655-5.265 6.44-9.126 8.53-3.86 2.088-8.248 3.133-13.162 3.133-4.914 0-9.301-1.045-13.162-3.134z"/>
                <path fill="#00C0D1" d="M85.818 51.7c2.281-1.219 4.036-2.96 5.265-5.222a16.01 16.01 0 0 0 1.93-7.66 16.01 16.01 0 0 0-1.93-7.659c-1.229-2.263-2.984-4.003-5.265-5.222-2.282-1.218-4.739-1.915-7.547-1.915s-5.265.697-7.546 1.915c-2.281 1.219-4.036 2.96-5.265 5.222a16.01 16.01 0 0 0-1.93 7.66c0 2.959.702 5.396 1.93 7.659 1.229 2.263 2.984 4.003 5.265 5.222 2.281 1.219 4.738 1.915 7.546 1.915s5.44-.522 7.547-1.915zm-20.533 8.007c-3.861-2.088-7.02-4.874-9.126-8.53-2.282-3.655-3.335-7.658-3.335-12.358 0-4.526 1.053-8.704 3.335-12.36 2.281-3.655 5.265-6.44 9.126-8.53 3.86-2.088 8.248-3.133 13.162-3.133 4.914 0 9.301 1.045 13.162 3.134 3.861 2.089 6.844 4.874 9.126 8.53 2.281 3.655 3.334 7.659 3.334 12.359 0 4.525-1.053 8.703-3.334 12.359-2.282 3.655-5.265 6.44-9.126 8.53-3.86 2.088-8.248 3.133-13.162 3.133-4.914 0-9.301-1.045-13.162-3.134z"/>
                <path fill="#000" d="M352.397 22.804c2.282-1.219 4.037-2.96 5.265-5.223a16.01 16.01 0 0 0 1.93-7.659 16.01 16.01 0 0 0-1.93-7.659c-1.228-2.263-2.983-4.004-5.265-5.222-2.281-1.219-4.738-1.915-7.546-1.915s-5.265.696-7.546 1.915c-2.282 1.218-4.037 2.959-5.265 5.222a16.01 16.01 0 0 0-1.93 7.66c0 2.784.701 5.396 1.93 7.658 1.228 2.263 2.983 4.004 5.265 5.223 2.281 1.218 4.738 1.915 7.546 1.915s5.265-.523 7.546-1.915zm-20.533 8.007c-3.86-2.089-7.02-4.874-9.126-8.53-2.281-3.655-3.334-7.659-3.334-12.359 0-4.526 1.053-8.703 3.334-12.359 2.282-3.656 5.265-6.44 9.126-8.53 3.861-2.089 8.249-3.133 13.162-3.133 4.914 0 9.302 1.044 13.163 3.133 3.86 2.09 6.844 4.874 9.126 8.53 2.281 3.656 3.334 7.66 3.334 12.36 0 4.525-1.053 8.703-3.334 12.358-2.282 3.656-5.265 6.441-9.126 8.53-3.861 2.089-8.249 3.133-13.163 3.133-4.913 0-9.3-1.044-13.162-3.133z"/>
                <path fill="#00C0D1" d="M352.397 72.589c2.282-1.219 4.037-2.96 5.265-5.222a16.01 16.01 0 0 0 1.93-7.66 16.01 16.01 0 0 0-1.93-7.659c-1.228-2.263-2.983-4.004-5.265-5.222-2.281-1.219-4.738-1.915-7.546-1.915s-5.265.696-7.546 1.915c-2.282 1.218-4.037 2.96-5.265 5.222a16.01 16.01 0 0 0-1.93 7.66c0 2.959.701 5.396 1.93 7.659 1.228 2.263 2.983 4.003 5.265 5.222 2.281 1.218 4.738 1.915 7.546 1.915s5.265-.523 7.546-1.915zm-20.533 8.007c-3.86-2.089-7.02-4.874-9.126-8.53-2.281-3.655-3.334-7.659-3.334-12.359 0-4.526 1.053-8.703 3.334-12.359 2.282-3.655 5.265-6.44 9.126-8.53 3.861-2.088 8.249-3.133 13.162-3.133 4.914 0 9.302 1.045 13.163 3.134 3.86 2.088 6.844 4.874 9.126 8.53 2.281 3.655 3.334 7.658 3.334 12.358 0 4.526-1.053 8.704-3.334 12.36-2.282 3.655-5.265 6.44-9.126 8.53-3.861 2.088-8.249 3.133-13.163 3.133-4.913 0-9.3-1.045-13.162-3.134z"/>
                <path fill="#000" d="M111.616.348h10.88v37.774h23.517v8.704h-34.397zM189.536 38.296v8.53h-36.152V.522h35.275v8.53h-24.57v10.096h21.762v8.356h-21.762v10.792zM472.086 37.948v8.704h-36.152V.174h35.275v8.53h-24.57V18.8h21.762v8.356h-21.762v10.792zM309.927.348h-10.88v46.478h10.88zM422.947.174v46.478h-8.95l-23.341-28.2v28.2H379.95V.174h8.95l23.342 28.2V.174zM487.179 81.815c-3.51-1.045-6.143-2.263-8.249-3.83l3.686-8.007c1.93 1.392 4.387 2.61 7.195 3.481 2.808.87 5.44 1.393 8.249 1.393 3.159 0 5.265-.522 6.844-1.393 1.404-.87 2.281-2.089 2.281-3.655 0-1.045-.35-2.09-1.228-2.785-.878-.697-1.93-1.393-3.334-1.741-1.404-.348-3.16-.87-5.44-1.393-3.51-.87-6.494-1.74-8.776-2.437-2.281-.87-4.212-2.263-5.791-4.004-1.58-1.914-2.457-4.351-2.457-7.485 0-2.61.702-5.048 2.281-7.31 1.404-2.264 3.686-4.005 6.67-5.223 2.983-1.219 6.493-1.915 10.88-1.915 2.984 0 5.967.348 8.775 1.045 2.808.696 5.265 1.74 7.546 3.133l-3.334 8.181c-4.388-2.437-8.6-3.655-12.987-3.655-2.983 0-5.265.522-6.669 1.392-1.404 1.045-2.106 2.263-2.106 3.83 0 1.567.878 2.785 2.457 3.482 1.755.696 4.212 1.566 7.722 2.262 3.51.87 6.493 1.741 8.775 2.438 2.281.87 4.212 2.088 5.791 4.003 1.58 1.741 2.457 4.352 2.457 7.311 0 2.611-.702 5.048-2.281 7.311-1.58 2.263-3.686 4.004-6.67 5.223-2.983 1.218-6.668 1.914-10.88 1.914-4.387 0-7.897-.522-11.407-1.566z"/>
                <path fill="#00C0D1" d="M487.179 32.726c-3.51-1.045-6.143-2.263-8.249-3.83l3.686-8.181c1.93 1.392 4.387 2.61 7.195 3.481 2.808.87 5.44 1.393 8.249 1.393 3.159 0 5.265-.522 6.844-1.393 1.404-.87 2.281-2.089 2.281-3.655 0-1.045-.35-2.09-1.228-2.785-.878-.697-1.93-1.393-3.334-1.741-1.404-.522-3.16-.87-5.44-1.393-3.51-.87-6.494-1.74-8.776-2.437-2.281-.87-4.212-2.263-5.791-4.003-1.58-1.915-2.457-4.352-2.457-7.486 0-2.61.702-5.048 2.281-7.31 1.404-2.264 3.686-4.004 6.67-5.223 2.983-1.218 6.493-1.915 10.88-1.915 2.984 0 5.967.348 8.775 1.045 2.808.696 5.265 1.74 7.546 3.133l-3.334 8.181c-4.388-2.437-8.6-3.655-12.987-3.655-2.983 0-5.265.522-6.669 1.393-1.404 1.044-2.106 2.262-2.106 3.83 0 1.566.878 2.784 2.457 3.48 1.755.697 4.212 1.567 7.722 2.264 3.51.87 6.493 1.74 8.775 2.437 2.281.87 4.212 2.089 5.791 4.003 1.58 1.741 2.457 4.178 2.457 7.311 0 2.611-.702 5.049-2.281 7.311-1.58 2.263-3.686 4.004-6.67 5.223-2.983 1.218-6.668 1.915-10.88 1.915-4.387 0-7.897-.349-11.407-1.393z"/>
                <path fill="#FFF" d="M14.04 45.085c-3.861-2.089-6.845-4.874-9.126-8.53-2.106-3.655-3.335-7.833-3.335-12.359s1.053-8.703 3.335-12.359c2.281-3.655 5.265-6.44 9.126-8.53C17.9 1.22 22.288.174 27.026.174c4.037 0 7.722.696 11.057 2.089 3.334 1.393 5.966 3.482 8.248 6.093l-7.02 6.44C36.152 11.141 32.291 9.4 27.553 9.4c-2.984 0-5.44.696-7.722 1.915-2.282 1.218-4.036 2.96-5.265 5.222a16.01 16.01 0 0 0-1.93 7.66c0 2.784.702 5.396 1.93 7.659 1.229 2.263 2.983 4.003 5.265 5.222a16.351 16.351 0 0 0 7.722 1.915c4.738 0 8.6-1.915 11.758-5.57l7.02 6.44c-2.282 2.611-4.914 4.7-8.248 6.093-3.335 1.392-7.02 2.088-11.057 2.088-4.914 0-9.126-1.044-12.986-2.959zM208.841 45.085c-3.86-2.089-6.844-4.874-9.126-8.53-2.281-3.655-3.334-7.833-3.334-12.359s1.053-8.703 3.334-12.359c2.282-3.655 5.265-6.44 9.126-8.53C212.702 1.22 217.09.174 221.828.174c4.036 0 7.722.696 11.056 2.089 3.335 1.393 5.967 3.482 8.248 6.093l-7.02 6.44c-3.158-3.655-7.02-5.396-11.758-5.396-2.808 0-5.44.696-7.722 1.915-2.281 1.218-4.036 2.96-5.264 5.222a16.01 16.01 0 0 0-1.93 7.66c0 2.959.701 5.396 1.93 7.659 1.228 2.263 2.983 4.003 5.264 5.222a16.351 16.351 0 0 0 7.722 1.915c4.739 0 8.6-1.915 11.759-5.57l7.02 6.44c-2.282 2.611-4.914 4.7-8.249 6.093-3.334 1.392-7.02 2.088-11.056 2.088-4.914.175-9.126-.87-12.987-2.959zM257.454 45.085c-3.861-2.089-6.845-4.874-9.126-8.53-2.282-3.655-3.335-7.833-3.335-12.359s1.053-8.703 3.335-12.359c2.281-3.655 5.265-6.44 9.126-8.53 3.86-2.088 8.248-3.133 12.986-3.133 4.037 0 7.722.696 11.057 2.089 3.334 1.393 5.967 3.482 8.248 6.093l-7.02 6.44c-3.159-3.655-7.02-5.396-11.758-5.396-2.808 0-5.44.696-7.722 1.915-2.281 1.218-4.036 2.96-5.265 5.222a16.01 16.01 0 0 0-1.93 7.66c0 2.959.702 5.396 1.93 7.659 1.229 2.263 2.984 4.003 5.265 5.222a16.351 16.351 0 0 0 7.722 1.915c4.738 0 8.6-1.915 11.758-5.57l7.02 6.44c-2.281 2.611-4.914 4.7-8.248 6.093-3.335 1.392-7.02 2.088-11.057 2.088-4.738.175-9.125-.87-12.986-2.959zM85.818 1.915c2.281-1.219 4.036-2.96 5.265-5.222a16.01 16.01 0 0 0 1.93-7.66 16.01 16.01 0 0 0-1.93-7.659c-1.229-2.263-2.984-4.004-5.265-5.222-2.282-1.219-4.739-1.915-7.547-1.915s-5.265.696-7.546 1.915c-2.281 1.218-4.036 2.96-5.265 5.222a16.01 16.01 0 0 0-1.93 7.66c0 2.785.702 5.396 1.93 7.659 1.229 2.263 2.984 4.003 5.265 5.222 2.281 1.218 4.738 1.915 7.546 1.915s5.44-.697 7.547-1.915zM65.285 9.922c-3.861-2.089-7.02-4.874-9.126-8.53-2.282-3.655-3.335-7.659-3.335-12.359 0-4.526 1.053-8.703 3.335-12.359 2.281-3.655 5.265-6.44 9.126-8.53 3.86-2.088 8.248-3.133 13.162-3.133 4.914 0 9.301 1.045 13.162 3.133 3.861 2.09 6.844 4.875 9.126 8.53 2.281 3.656 3.334 7.66 3.334 12.36 0 4.525-1.053 8.703-3.334 12.359-2.282 3.655-5.265 6.44-9.126 8.53-3.86 2.088-8.248 3.133-13.162 3.133-4.914 0-9.301-1.045-13.162-3.134z"/>
                <path fill="#00C0D1" d="M85.818 51.7c2.281-1.219 4.036-2.96 5.265-5.222a16.01 16.01 0 0 0 1.93-7.66 16.01 16.01 0 0 0-1.93-7.659c-1.229-2.263-2.984-4.003-5.265-5.222-2.282-1.218-4.739-1.915-7.547-1.915s-5.265.697-7.546 1.915c-2.281 1.219-4.036 2.96-5.265 5.222a16.01 16.01 0 0 0-1.93 7.66c0 2.959.702 5.396 1.93 7.659 1.229 2.263 2.984 4.003 5.265 5.222 2.281 1.219 4.738 1.915 7.546 1.915s5.44-.522 7.547-1.915zm-20.533 8.007c-3.861-2.088-7.02-4.874-9.126-8.53-2.282-3.655-3.335-7.658-3.335-12.358 0-4.526 1.053-8.704 3.335-12.36 2.281-3.655 5.265-6.44 9.126-8.53 3.86-2.088 8.248-3.133 13.162-3.133 4.914 0 9.301 1.045 13.162 3.134 3.861 2.089 6.844 4.874 9.126 8.53 2.281 3.655 3.334 7.659 3.334 12.359 0 4.525-1.053 8.703-3.334 12.359-2.282 3.655-5.265 6.44-9.126 8.53-3.86 2.088-8.248 3.133-13.162 3.133-4.914 0-9.301-1.045-13.162-3.134z"/>
                <path fill="#FFF" d="M352.397 22.804c2.282-1.219 4.037-2.96 5.265-5.223a16.01 16.01 0 0 0 1.93-7.659 16.01 16.01 0 0 0-1.93-7.659c-1.228-2.263-2.983-4.004-5.265-5.222-2.281-1.219-4.738-1.915-7.546-1.915s-5.265.696-7.546 1.915c-2.282 1.218-4.037 2.959-5.265 5.222a16.01 16.01 0 0 0-1.93 7.66c0 2.784.701 5.396 1.93 7.658 1.228 2.263 2.983 4.004 5.265 5.223 2.281 1.218 4.738 1.915 7.546 1.915s5.265-.523 7.546-1.915zm-20.533 8.007c-3.86-2.089-7.02-4.874-9.126-8.53-2.281-3.655-3.334-7.659-3.334-12.359 0-4.526 1.053-8.703 3.334-12.359 2.282-3.656 5.265-6.44 9.126-8.53 3.861-2.089 8.249-3.133 13.162-3.133 4.914 0 9.302 1.044 13.163 3.133 3.86 2.09 6.844 4.874 9.126 8.53 2.281 3.656 3.334 7.66 3.334 12.36 0 4.525-1.053 8.703-3.334 12.358-2.282 3.656-5.265 6.441-9.126 8.53-3.861 2.089-8.249 3.133-13.163 3.133-4.913 0-9.3-1.044-13.162-3.133z"/>
                <path fill="#00C0D1" d="M352.397 72.589c2.282-1.219 4.037-2.96 5.265-5.222a16.01 16.01 0 0 0 1.93-7.66 16.01 16.01 0 0 0-1.93-7.659c-1.228-2.263-2.983-4.004-5.265-5.222-2.281-1.219-4.738-1.915-7.546-1.915s-5.265.696-7.546 1.915c-2.282 1.218-4.037 2.96-5.265 5.222a16.01 16.01 0 0 0-1.93 7.66c0 2.959.701 5.396 1.93 7.659 1.228 2.263 2.983 4.003 5.265 5.222 2.281 1.218 4.738 1.915 7.546 1.915s5.265-.523 7.546-1.915zm-20.533 8.007c-3.86-2.089-7.02-4.874-9.126-8.53-2.281-3.655-3.334-7.659-3.334-12.359 0-4.526 1.053-8.703 3.334-12.359 2.282-3.655 5.265-6.44 9.126-8.53 3.861-2.088 8.249-3.133 13.162-3.133 4.914 0 9.302 1.045 13.163 3.134 3.86 2.088 6.844 4.874 9.126 8.53 2.281 3.655 3.334 7.658 3.334 12.358 0 4.526-1.053 8.704-3.334 12.36-2.282 3.655-5.265 6.44-9.126 8.53-3.861 2.088-8.249 3.133-13.163 3.133-4.913 0-9.3-1.045-13.162-3.134z"/>
                <path fill="#FFF" d="M111.616.348h10.88v37.774h23.517v8.704h-34.397zM189.536 38.296v8.53h-36.152V.522h35.275v8.53h-24.57v10.096h21.762v8.356h-21.762v10.792zM472.086 37.948v8.704h-36.152V.174h35.275v8.53h-24.57V18.8h21.762v8.356h-21.762v10.792zM309.927.348h-10.88v46.478h10.88zM422.947.174v46.478h-8.95l-23.341-28.2v28.2H379.95V.174h8.95l23.342 28.2V.174zM487.179 81.815c-3.51-1.045-6.143-2.263-8.249-3.83l3.686-8.007c1.93 1.392 4.387 2.61 7.195 3.481 2.808.87 5.44 1.393 8.249 1.393 3.159 0 5.265-.522 6.844-1.393 1.404-.87 2.281-2.089 2.281-3.655 0-1.045-.35-2.09-1.228-2.785-.878-.697-1.93-1.393-3.334-1.741-1.404-.348-3.16-.87-5.44-1.393-3.51-.87-6.494-1.74-8.776-2.437-2.281-.87-4.212-2.263-5.791-4.004-1.58-1.914-2.457-4.351-2.457-7.485 0-2.61.702-5.048 2.281-7.31 1.404-2.264 3.686-4.005 6.67-5.223 2.983-1.219 6.493-1.915 10.88-1.915 2.984 0 5.967.348 8.775 1.045 2.808.696 5.265 1.74 7.546 3.133l-3.334 8.181c-4.388-2.437-8.6-3.655-12.987-3.655-2.983 0-5.265.522-6.669 1.392-1.404 1.045-2.106 2.263-2.106 3.83 0 1.567.878 2.785 2.457 3.482 1.755.696 4.212 1.566 7.722 2.262 3.51.87 6.493 1.741 8.775 2.438 2.281.87 4.212 2.088 5.791 4.003 1.58 1.741 2.457 4.352 2.457 7.311 0 2.611-.702 5.048-2.281 7.311-1.58 2.263-3.686 4.004-6.67 5.223-2.983 1.218-6.668 1.914-10.88 1.914-4.387 0-7.897-.522-11.407-1.566z"/>
                <path fill="#00C0D1" d="M487.179 32.726c-3.51-1.045-6.143-2.263-8.249-3.83l3.686-8.181c1.93 1.392 4.387 2.61 7.195 3.481 2.808.87 5.44 1.393 8.249 1.393 3.159 0 5.265-.522 6.844-1.393 1.404-.87 2.281-2.089 2.281-3.655 0-1.045-.35-2.09-1.228-2.785-.878-.697-1.93-1.393-3.334-1.741-1.404-.522-3.16-.87-5.44-1.393-3.51-.87-6.494-1.74-8.776-2.437-2.281-.87-4.212-2.263-5.791-4.003-1.58-1.915-2.457-4.352-2.457-7.486 0-2.61.702-5.048 2.281-7.31 1.404-2.264 3.686-4.004 6.67-5.223 2.983-1.218 6.493-1.915 10.88-1.915 2.984 0 5.967.348 8.775 1.045 2.808.696 5.265 1.74 7.546 3.133l-3.334 8.181c-4.388-2.437-8.6-3.655-12.987-3.655-2.983 0-5.265.522-6.669 1.393-1.404 1.044-2.106 2.262-2.106 3.83 0 1.566.878 2.784 2.457 3.48 1.755.697 4.212 1.567 7.722 2.264 3.51.87 6.493 1.74 8.775 2.437 2.281.87 4.212 2.089 5.791 4.003 1.58 1.741 2.457 4.178 2.457 7.311 0 2.611-.702 5.049-2.281 7.311-1.58 2.263-3.686 4.004-6.67 5.223-2.983 1.218-6.668 1.915-10.88 1.915-4.387 0-7.897-.349-11.407-1.393z"/>
            </g>
        </g>
        <g fill="#FFF" fill-rule="nonzero">
            <path d="M181 77.3v-1h2.586V63H181v-1h10.497v1h-2.89v13.3h.608c3.499 0 6.237-.859 6.237-4.434v-.715h1.37V77.3H181zM203.965 72.01l2.693-5.291h.15l2.692 5.29h-5.535zm13.465 4.29L209.65 62h-1.795l-6.583 13.012c-.449.715-1.047 1.287-2.244 1.287h-.45V77.3h6.284v-1h-1.196c-.599 0-1.197-.144-1.197-.859 0-.286.15-.429.299-.715l.898-1.716h6.732l1.646 3.29h-2.693v1h10.323v-1h-2.244zM230.221 77.3v-1H231.026c.966 0 1.933-.287 1.933-1.574v-10.01c0-1-1.128-1.715-2.094-1.715h-.483V62h8.052l8.856 9.151v-6.863c0-.858-.805-1.287-2.093-1.287h-.805V62h6.924v1h-.644c-1.45 0-2.094.573-2.094 1.145V77.3h-2.254l-12.077-12.44v9.866c0 1.287.644 1.43 2.415 1.43h.483v1.001l-6.924.143zM256.702 72.01l2.693-5.291h.299l2.693 5.29h-5.685zm13.614 4.29l-7.78-14.3h-1.945l-6.582 13.012c-.45.715-1.048 1.287-2.244 1.287h-.45V77.3h6.284v-1h-1.197c-.598 0-1.196-.144-1.196-.859 0-.286.15-.429.15-.715l.897-1.716h6.732l1.646 3.29h-2.543v1h10.323v-1h-2.095zM289.99 62.447v5.667h-1.439c-.48-2.386-1.918-5.07-5.273-5.07-4.156 0-5.114 3.28-5.114 7.456 0 3.877.799 7.307 4.954 7.307 3.196 0 5.433-2.088 5.433-4.921h1.438c0 3.877-3.196 6.114-7.19 6.114-5.115 0-10.388-3.728-10.388-8.5 0-4.623 5.113-8.5 10.067-8.5 3.676 0 4.955 1.342 5.594 1.342.639 0 .799-.447.799-.895h1.118zM291.747 79v-1.102h2.637V63.26h-2.637V62h10.548v1.26h-2.792v14.638h2.792V79zM315.404 77.807c-3.747 0-4.347-3.579-4.347-7.307s.45-7.307 4.347-7.307c3.897 0 4.347 3.579 4.347 7.307 0 3.579-.45 7.307-4.347 7.307m0-15.807c-4.797 0-9.593 3.728-9.593 8.5s4.796 8.5 9.593 8.5 9.743-3.728 9.743-8.5c0-4.921-4.946-8.5-9.743-8.5M326.905 77.3v-1H327.71c.967 0 1.933-.287 1.933-1.574v-10.01c0-1-1.127-1.715-2.094-1.715h-.483V62h8.052l8.856 9.151h.161v-6.863c0-.858-.805-1.287-2.093-1.287h-.966V62H348v1h-.644c-1.45 0-2.093.573-2.093 1.145V77.3h-2.255l-12.077-12.44v9.866c0 1.287.644 1.43 2.415 1.43h.483v1.001l-6.924.143z"/>
        </g>
    </g>
</svg>
