<?xml version="1.0" encoding="UTF-8"?>
<svg viewBox="0 0 39 15" version="1.1" xmlns="http://www.w3.org/2000/svg" xmlns:xlink="http://www.w3.org/1999/xlink">
    <!-- Generator: Sketch 52.6 (67491) - http://www.bohemiancoding.com/sketch -->
    <title>hola</title>
    <desc>Created with Sketch.</desc>
    <defs>
        <path d="M38.5862344,0 L38.5862344,14.8674 L0,14.8674 L0,0 L38.5862344,0 Z M19.2373594,3.6114 C18.4689375,2.3616 16.6267969,2.3736 15.5920781,2.49 C15.1025889,2.52169423 14.6306424,2.68183784 14.22525,2.9538 C13.6554631,3.34866609 13.2971845,3.97570885 13.25025,4.6602 L13.25025,9.378 C13.2676393,10.2914355 13.7105141,11.1463014 14.4513281,11.6964 C15.4890049,12.3418071 16.7821541,12.4451652 17.9119688,11.973 C18.9460254,11.468332 19.6009739,10.4309589 19.6029844,9.2946 L19.6133438,5.067 C19.6376579,4.55579762 19.5067641,4.04905065 19.2373594,3.6114 Z M16.9217344,9.1806 C16.9327815,9.35748366 16.8277657,9.52152276 16.6609219,9.588 C16.5308336,9.63150704 16.3904252,9.63527174 16.258125,9.5988 C16.0850255,9.54079705 15.956844,9.39580506 15.9223594,9.219 L15.9315,5.0664 C15.9522387,4.89342855 16.0665131,4.74509075 16.2300938,4.6788 C16.4209897,4.61258117 16.6331543,4.64944597 16.7895,4.776 C16.8725049,4.85748916 16.9229112,4.96569709 16.9314844,5.0808 L16.9217344,9.1806 Z M31.1634375,2.4426 L27.1567969,2.4426 L25.3170937,12.2604466 L27.8392969,12.2604 C27.8569687,12.2604 28.1244844,10.7922 28.12875,10.7922 L29.9952656,10.7922 C29.9952656,10.7922 30.2579062,12.27 30.2548594,12.2604 C30.2518125,12.2508 32.6887031,12.2604 32.706375,12.2604466 C32.706375,12.234 31.2316875,2.4636 31.1634375,2.4426 Z M28.4675625,8.65622143 C29.0355,5.793 29.0355,5.8362 29.0379375,5.8362 C29.040375,5.8362 29.5973437,8.6652 29.5973437,8.65622143 C29.5973437,8.6472 28.4675625,8.65622143 28.4675625,8.65622143 Z M23.1233437,9.6912 L23.1257812,9.6912 L23.1257812,2.4414 L20.4981562,2.4414 L20.4981562,12.2604 C20.4981562,12.2604 24.6997969,12.2514 24.7077187,12.2604 L24.7077187,9.6912 L23.1233437,9.6912 Z M8.76707812,6.1338 L8.76585937,2.6418 L6.16565625,2.6418 L6.16565625,12.4596 L8.789625,12.4596 L8.79510937,8.6106 L9.82190625,8.6106 L9.82190625,12.4596 L12.3623906,12.4596 L12.3623906,2.6418 L9.80301562,2.6418 L9.80301562,6.1338 L8.76707812,6.1338 Z M33.2468906,10.9026 C33.2467975,11.2590739 33.3906027,11.6009686 33.6466406,11.853 C34.1069337,12.3060902 34.8281753,12.3759724 35.3693371,12.0199147 C35.9104989,11.663857 36.1208844,10.9810103 35.8718459,10.388925 C35.6228075,9.79683964 34.9836946,9.46039288 34.3453151,9.58531677 C33.7069355,9.71024067 33.247058,10.2617478 33.2468906,10.9026 Z M35.9049844,2.424 L33.3181875,2.424 L33.3181875,8.7942 L35.9049844,8.7942 L35.9049844,2.424 Z M5.18578125,3.9072 L5.18639062,3.9072 C5.18632208,3.550934 5.04252923,3.20928436 4.78664062,2.9574 C4.32658108,2.50396713 3.60527289,2.43368204 3.06387241,2.7895315 C2.52247193,3.14538097 2.31178168,3.82824613 2.56066106,4.42048262 C2.80954045,5.01271911 3.44866623,5.34936446 4.08714529,5.22452438 C4.72562434,5.09968431 5.18561374,4.54813195 5.18578125,3.9072 Z M5.11448438,6.012 L2.5276875,6.012 L2.5276875,12.3828 L5.11448438,12.3828 L5.11448438,6.012 Z" id="path-1"></path>
    </defs>
    <g id="Page-1" stroke="none" stroke-width="1" fill="none" fill-rule="evenodd">
        <g id="Elementos" transform="translate(-65.000000, -510.000000)">
            <g id="hola" transform="translate(65.000000, 510.000000)">
                <rect id="Rectangle" x="5.32907052e-14" y="0" width="38.920678" height="16"></rect>
                <g id="marcas/hola-chico" transform="translate(0.000000, 0.000000)">
                    <g id="hola-mobile">
                        <g id="Color/Revistas/Hola">
                            <mask id="mask-2" fill="white">
                                <use xlink:href="#path-1"></use>
                            </mask>
                            <use id="hola" fill="#BF0811" fill-rule="nonzero" xlink:href="#path-1"></use>
                            <g mask="url(#mask-2)" fill="#BF0811" id="Color">
                                <g transform="translate(-4.265625, -17.400000)">
                                    <rect x="0" y="0" width="49" height="48"></rect>
                                </g>
                            </g>
                        </g>
                    </g>
                </g>
            </g>
        </g>
    </g>
</svg>