<?xml version="1.0" encoding="UTF-8"?>
<svg viewBox="0 0 85 41" version="1.1" xmlns="http://www.w3.org/2000/svg" xmlns:xlink="http://www.w3.org/1999/xlink">
    <!-- Generator: Sketch 55.2 (78181) - https://sketchapp.com -->
    <title>hola</title>
    <desc>Created with Sketch.</desc>
    <g id="Page-1" stroke="none" stroke-width="1" fill="none" fill-rule="evenodd">
        <g id="Libreria---Marcas" transform="translate(-626.000000, -292.000000)">
            <g id="hola" transform="translate(626.000000, 292.000000)">
                <g id="Vector" fill-rule="nonzero">
                    <polygon id="Path_67" fill="#BF0811" points="84.7188462 0.246 0.245192308 0.246 0.245192308 40.754 84.7188462 40.754"></polygon>
                    <path d="M0.245192308,0.246 L0.245192308,1.11022302e-16 L1.11022302e-16,1.11022302e-16 L1.11022302e-16,0.246 L0.245192308,0.246 Z M84.7188462,0.246 L84.9640385,0.246 L84.9640385,1.11022302e-16 L84.7188462,1.11022302e-16 L84.7188462,0.246 Z M84.7188462,40.754 L84.7188462,41 L84.9640385,41 L84.9640385,40.754 L84.7188462,40.754 Z M0.245192308,40.754 L1.11022302e-16,40.754 L1.11022302e-16,41 L0.245192308,41 L0.245192308,40.754 Z M0.245192308,0.492 L84.7188462,0.492 L84.7188462,4.4408921e-16 L0.245192308,4.4408921e-16 L0.245192308,0.492 Z M84.4736538,0.246 L84.4736538,40.754 L84.9640385,40.754 L84.9640385,0.246 L84.4736538,0.246 Z M84.7188462,40.508 L0.245192308,40.508 L0.245192308,41 L84.7188462,41 L84.7188462,40.508 Z M0.490384615,40.754 L0.490384615,0.246 L0,0.246 L0,40.754 L0.490384615,40.754 Z" id="Path_68" fill="#FFFFFF"></path>
                </g>
                <g id="Vector-2" transform="translate(29.494536, 5.590909)" fill="#FFFFFF">
                    <path d="M13.0818716,2.63571429 C11.402541,-0.177910714 7.37734973,-0.14990625 5.11765027,0.112017857 C4.0500178,0.183635498 3.02067126,0.543071705 2.13614754,1.153125 C0.88795368,2.03940343 0.102636838,3.4504714 -3.44169138e-16,4.99138393 L-3.44169138e-16,15.6001339 C0.038103447,17.6545147 1.00623653,19.5770694 2.62547814,20.8139062 C4.89287613,22.2646616 7.71814706,22.4967202 10.1865301,21.4349464 C12.4461442,20.3004177 13.8773919,17.9676901 13.8817077,15.4123393 L13.9044672,5.90564732 C13.9566407,4.7570966 13.6702864,3.61879799 13.0818716,2.63571429 Z M8.0227459,15.1553571 C8.04676708,15.5527708 7.81777862,15.9213772 7.45375683,16.0712679 C7.16975785,16.1691811 6.86317909,16.1777946 6.5742623,16.0959777 C6.19599847,15.9652166 5.91608503,15.6388114 5.84107923,15.2410179 L5.85245902,5.90564732 C5.89734865,5.51722049 6.14614117,5.18381292 6.50273224,5.03421429 C6.91970373,4.88483246 7.38340813,4.96731077 7.7252459,5.25166071 C7.90695789,5.43464218 8.01724064,5.67803626 8.03575137,5.93694643 L8.0227459,15.1553571 Z" id="Path_69"></path>
                </g>
                <g id="Vector-3" transform="translate(55.969945, 5.590909)" fill="#FFFFFF">
                    <path d="M12.7746175,0 L4.02031421,0 L0,22.0742832 L5.51106557,22.0742832 C5.55008197,22.0742832 6.13370219,18.7794643 6.14345628,18.7794643 L10.2222951,18.7794643 C10.2222951,18.7794643 10.7961612,22.1021116 10.7896585,22.0742832 C10.7831557,22.0461027 16.1072678,22.0742832 16.1544126,22.0742832 C16.1462842,22.0180982 12.9225546,0.0477723214 12.7746175,0 Z M6.88476776,13.9726062 C8.1284153,7.53320089 8.1284153,7.62541435 8.1284153,7.62541435 C8.1284153,7.62541435 9.35092896,13.9874062 9.35092896,13.9726062 C9.35092896,13.9577545 6.88476776,13.9726062 6.88476776,13.9726062 Z" id="Path_70"></path>
                </g>
                <g id="Vector-4" transform="translate(45.286885, 5.590909)" fill="#FFFFFF" fill-rule="nonzero">
                    <path d="M5.74028689,16.3084821 L9.19811475,16.3084821 L9.19811475,22.0741071 C9.18185792,22.0609286 0,22.0741071 0,22.0741071 L0,0 L5.74516393,0 L5.74516393,16.3084821" id="Path_71"></path>
                </g>
                <g id="Vector-5" transform="translate(73.387978, 21.664773)" fill="#FFFFFF" fill-rule="nonzero">
                    <path d="M-4.9197808e-06,2.99067045 C0.00258127051,1.56437576 1.00892137,0.338391978 2.40390935,0.0620840899 C3.79889733,-0.214223798 5.19428148,0.536045957 5.73715327,1.85430174 C6.28002505,3.17255752 5.81929291,4.69190364 4.63657276,5.48366159 C3.45385261,6.27541954 1.87831798,6.119228 0.872991803,5.11055682 C0.31268769,4.54838841 -0.00143863407,3.78559533 -4.9197808e-06,2.99067045" id="Path_72"></path>
                </g>
                <g id="Vector-6" transform="translate(73.387978, 5.823864)" fill="#FFFFFF" fill-rule="nonzero">
                    <polygon id="Path_73" points="5.6525 0 0 0 0 14.1869318 5.6525 14.1869318"></polygon>
                </g>
                <g id="Vector-7" transform="translate(5.341530, 5.823864)" fill="#FFFFFF" fill-rule="nonzero">
                    <path d="M6.19525082,3.223625 C6.19266463,4.64991969 5.18632453,5.87590348 3.79133655,6.15221136 C2.39634857,6.42851925 1.00096442,5.6782495 0.458092634,4.35999372 C-0.0847791495,3.04173794 0.375952989,1.52239182 1.55867314,0.730633868 C2.74139329,-0.0611240819 4.31692792,0.0950674521 5.3222541,1.10373864 C5.88255821,1.66590704 6.19668454,2.42870013 6.19525082,3.223625" id="Path_74"></path>
                </g>
                <g id="Vector-8" transform="translate(5.806011, 13.744318)" fill="#FFFFFF" fill-rule="nonzero">
                    <polygon id="Path_75" points="5.6525 0 0 0 0 14.1869318 5.6525 14.1869318"></polygon>
                </g>
                <g id="Vector-9" transform="translate(13.934426, 6.056818)" fill="#FFFFFF" fill-rule="nonzero">
                    <polygon id="Path_76" points="5.68989071 7.85278125 7.94471311 7.85278125 7.94959016 0 13.5386885 0 13.5386885 22.0741071 7.98372951 22.0741071 7.98372951 13.4190804 5.74516393 13.4190804 5.73378415 22.0741071 0 22.0741071 0 0 5.68989071 0"></polygon>
                </g>
                <g id="Vector-10" transform="translate(6.038251, 31.681818)" fill="#FFFFFF" fill-rule="nonzero">
                    <path d="M2.19954918,0 L2.97012295,0 L5.16804645,4.99151705 L4.38934426,4.99151705 L3.94228142,3.94951136 L1.1997541,3.94951136 L0.747814208,4.99314773 L0,4.99314773 L2.19954918,0 Z M3.66266393,3.32496023 L2.55394809,0.815340909 L1.44198087,3.32496023 L3.66266393,3.32496023 Z" id="Path_77"></path>
                </g>
                <g id="Vector-11" transform="translate(15.560109, 31.681818)" fill="#FFFFFF" fill-rule="nonzero">
                    <path d="M2.27595628,3.049375 L0.73318306,3.049375 L0.73318306,4.95727273 L0,4.95727273 L0,0 L2.43852459,0 C3.83661202,0 4.36983607,0.515295455 4.36983607,1.49370455 C4.40114364,1.87249464 4.27746698,2.24775985 4.0272495,2.53319589 C3.77703203,2.81863193 3.4218102,2.98967103 3.04327869,3.00697727 L4.28692623,4.96379545 L3.49034153,4.96379545 L2.27595628,3.049375 Z M2.43852459,2.42645455 C3.1863388,2.42645455 3.61714481,2.23240341 3.61714481,1.51001136 C3.61714481,0.787619318 3.20096995,0.6278125 2.41739071,0.6278125 L0.73318306,0.6278125 L0.73318306,2.4215625 L2.43852459,2.42645455 Z" id="Path_78"></path>
                </g>
                <g id="Vector-12" transform="translate(23.920765, 31.448864)" fill="#FFFFFF" fill-rule="nonzero">
                    <path d="M0,2.78986364 C0,1.00263636 0.991666667,0.232954545 2.7636612,0.232954545 C3.50948629,0.174091129 4.24946235,0.404002329 4.83153005,0.875443182 L4.29830601,1.36464773 C3.8670313,1.01713377 3.32239962,0.842780675 2.77016393,0.875443182 C1.39971311,0.875443182 0.747814208,1.49836364 0.747814208,2.78986364 C0.747814208,4.08136364 1.27290984,4.73689773 2.7636612,4.73689773 C4.12760929,4.73689773 4.4527459,4.24769318 4.4527459,3.26928409 L4.4527459,3.12578409 L2.68400273,3.12578409 L2.68400273,2.51590909 L5.20218579,2.51590909 L5.20218579,3.13882955 C5.20218579,4.50371023 4.75674863,5.34514205 2.74090164,5.34514205 C0.725054645,5.34514205 0,4.47272727 0,2.78986364 Z" id="Path_79"></path>
                </g>
                <g id="Vector-13" transform="translate(33.210383, 31.681818)" fill="#FFFFFF" fill-rule="nonzero">
                    <polygon id="Path_80" points="0.00975409836 0 3.76670765 0 3.76670765 0.652272727 0.757568306 0.652272727 0.757568306 2.07585795 3.68379781 2.07585795 3.68379781 2.71834659 0.757568306 2.71834659 0.757568306 4.33924432 3.78784153 4.33924432 3.78784153 4.96216477 0 4.96216477"></polygon>
                </g>
                <g id="Vector-14" transform="translate(41.571038, 31.681818)" fill="#FFFFFF" fill-rule="nonzero">
                    <polygon id="Path_81" points="0.0243852459 0 0.837226776 0 3.91464481 3.82231818 3.91464481 0 4.64782787 0 4.64782787 4.95890341 3.93415301 4.95890341 0.73318306 0.989823864 0.73318306 4.95890341 0 4.95890341"></polygon>
                </g>
                <g id="Vector-15" transform="translate(50.396175, 31.681818)" fill="#FFFFFF" fill-rule="nonzero">
                    <polygon id="Path_82" points="2.01584699 0.652272727 0 0.652272727 0 0 4.78763661 0 4.78763661 0.652272727 2.7636612 0.652272727 2.7636612 4.95890341 2.01584699 4.95890341"></polygon>
                </g>
                <g id="Vector-16" transform="translate(58.989071, 31.681818)" fill="#FFFFFF" fill-rule="nonzero">
                    <polygon id="Path_83" points="0.464480874 0 1.19766393 0 1.19766393 4.95890341 0.464480874 4.95890341"></polygon>
                </g>
                <g id="Vector-17" transform="translate(64.795082, 31.681818)" fill="#FFFFFF" fill-rule="nonzero">
                    <polygon id="Path_84" points="0 0 0.81284153 0 3.89025956 3.82231818 3.89025956 0 4.62344262 0 4.62344262 4.95890341 3.93415301 4.95890341 0.73318306 0.989823864 0.73318306 4.95890341 0 4.95890341"></polygon>
                </g>
                <g id="Vector-18" transform="translate(73.620219, 31.681818)" fill="#FFFFFF" fill-rule="nonzero">
                    <path d="M2.19954918,0 L2.96199454,0 L5.16154372,4.99151705 L4.38934426,4.99151705 L3.93740437,3.94788068 L1.1997541,3.94788068 L0.747814208,4.99151705 L0,4.99151705 L2.19954918,0 Z M3.66266393,3.32496023 L2.55394809,0.815340909 L1.44198087,3.32496023 L3.66266393,3.32496023 Z" id="Path_85"></path>
                </g>
            </g>
        </g>
    </g>
</svg>