<?xml version="1.0" encoding="UTF-8"?>
<svg viewBox="0 0 39 16" version="1.1" xmlns="http://www.w3.org/2000/svg" xmlns:xlink="http://www.w3.org/1999/xlink">
    <!-- Generator: Sketch 52.6 (67491) - http://www.bohemiancoding.com/sketch -->
    <title>hola-bco</title>
    <desc>Created with Sketch.</desc>
    <defs>
        <path d="M38.5077539,0 L38.5077539,15.1977867 L0,15.1977867 L0,0 L38.5077539,0 Z M19.1982325,3.69165333 C18.4313736,2.41408 16.5929797,2.42634667 15.5603654,2.54533333 C15.0718718,2.57773188 14.6008852,2.74143423 14.1963173,3.01944 C13.6276893,3.42308089 13.2701393,4.06405793 13.2233003,4.76376 L13.2233003,9.5864 C13.2406543,10.520134 13.6826283,11.393997 14.4219356,11.95632 C15.4575018,12.6160695 16.7480209,12.7217244 17.8755376,12.2390667 C18.9074912,11.7231838 19.5611076,10.662758 19.5631139,9.50114667 L19.5734522,5.1796 C19.5977169,4.65703757 19.4670894,4.13902956 19.1982325,3.69165333 Z M16.8873173,9.38461333 C16.8983419,9.56542774 16.7935397,9.73311215 16.6270353,9.80106667 C16.4972116,9.84554053 16.3570888,9.84938889 16.2250576,9.81210667 C16.0523102,9.75281476 15.9243894,9.60460072 15.8899749,9.42386667 L15.8990969,5.17898667 C15.9197935,5.00217141 16.0338354,4.85053721 16.1970834,4.78277333 C16.3875911,4.71508297 16.5993242,4.75276699 16.7553519,4.88213333 C16.838188,4.96543336 16.8884917,5.07604592 16.8970475,5.19370667 L16.8873173,9.38461333 Z M31.1000542,2.49688 L27.1015627,2.49688 L25.2656014,12.5329009 L27.7826746,12.5328533 C27.8003105,12.5328533 28.067282,11.0320267 28.071539,11.0320267 L29.9342583,11.0320267 C29.9342583,11.0320267 30.1963647,12.5426667 30.1933241,12.5328533 C30.1902834,12.52304 32.6222176,12.5328533 32.6398536,12.5329009 C32.6398536,12.5058667 31.1681654,2.51834667 31.1000542,2.49688 Z M28.4096624,8.8485819 C28.9764447,5.92173333 28.9764447,5.96589333 28.9788773,5.96589333 C28.9813098,5.96589333 29.5371458,8.85776 29.5371458,8.8485819 C29.5371458,8.83936 28.4096624,8.8485819 28.4096624,8.8485819 Z M23.0763132,9.90656 L23.0787458,9.90656 L23.0787458,2.49565333 L20.4564651,2.49565333 L20.4564651,12.5328533 C20.4564651,12.5328533 24.64956,12.5236533 24.6574658,12.5328533 L24.6574658,9.90656 L23.0763132,9.90656 Z M8.74924678,6.27010667 L8.74803051,2.70050667 L6.15311593,2.70050667 L6.15311593,12.73648 L8.7717478,12.73648 L8.77722102,8.80194667 L9.80192949,8.80194667 L9.80192949,12.73648 L12.3372468,12.73648 L12.3372468,2.70050667 L9.78307729,2.70050667 L9.78307729,6.27010667 L8.74924678,6.27010667 Z M33.1792698,11.14488 C33.1791769,11.5092756 33.3226896,11.8587679 33.5782068,12.1164 C34.0375637,12.5795589 34.7573383,12.650994 35.2973995,12.2870239 C35.8374606,11.9230538 36.0474181,11.2250328 35.7988862,10.61979 C35.5503543,10.0145472 34.9125414,9.67062384 34.2754602,9.79832381 C33.638379,9.92602379 33.1794369,10.4897866 33.1792698,11.14488 Z M35.8319573,2.47786667 L33.2504217,2.47786667 L33.2504217,8.98962667 L35.8319573,8.98962667 L35.8319573,2.47786667 Z M5.1752339,3.99402667 L5.17584203,3.99402667 C5.17577362,3.62984364 5.03227324,3.28060179 4.77690508,3.02312 C4.31778126,2.55961085 3.59794013,2.48776386 3.0576408,2.85152109 C2.51734148,3.21527832 2.30707975,3.91331827 2.55545294,4.51871557 C2.80382613,5.12411286 3.44165199,5.46823922 4.07883245,5.34062492 C4.7160129,5.21301062 5.17506673,4.64920155 5.1752339,3.99402667 Z M5.10408203,6.1456 L2.52254644,6.1456 L2.52254644,12.6579733 L5.10408203,12.6579733 L5.10408203,6.1456 Z" id="path-1"></path>
    </defs>
    <g id="Page-1" stroke="none" stroke-width="1" fill="none" fill-rule="evenodd">
        <g id="Elementos" transform="translate(-507.000000, -510.000000)">
            <g id="hola-bco" transform="translate(507.000000, 510.000000)">
                <rect id="Rectangle" x="5.32907052e-14" y="0" width="38.920678" height="16"></rect>
                <mask id="mask-2" fill="white">
                    <use xlink:href="#path-1"></use>
                </mask>
                <use id="hola" fill="#FFFFFF" fill-rule="nonzero" xlink:href="#path-1"></use>
            </g>
        </g>
    </g>
</svg>