<?xml version="1.0" encoding="UTF-8"?>
<svg  viewBox="0 0 46 15" version="1.1" xmlns="http://www.w3.org/2000/svg" xmlns:xlink="http://www.w3.org/1999/xlink">
    <!-- Generator: Sketch 52.6 (67491) - http://www.bohemiancoding.com/sketch -->
    <title>jardin-bco</title>
    <desc>Created with Sketch.</desc>
    <defs>
        <path d="M12.3977867,8.24787302 C11.9443204,9.03922863 11.3031335,9.70503241 10.5315936,10.1857143 C9.93044901,10.5816179 9.23438953,10.806875 8.51677197,10.837746 C7.62793016,10.8204709 6.7904551,10.4148857 6.2220939,9.72644444 C5.47414507,8.77277841 5.11391557,7.56854324 5.21432059,6.35749206 C5.19494506,5.25904246 5.42585548,4.1707374 5.8893112,3.17619048 C6.29520508,2.29637339 6.91670703,1.53502992 7.69532797,0.963809524 C8.51999071,0.401403657 9.50072662,0.11734328 10.4960677,0.152603175 C10.8184585,0.152603175 11.3047031,0.187164021 11.9548015,0.256285714 C12.0505037,0.268698413 12.2063823,0.284031746 12.3898115,0.30447619 L14.1023011,0.30447619 L14.1023011,7.54692063 C14.0726298,8.56447314 14.2045533,9.58026634 14.4930852,10.5559048 L12.7327445,10.5559048 C12.5651553,9.79585324 12.4532018,9.02443578 12.3977867,8.24787302 Z M12.3977867,6.21803175 L12.3977867,1.82393651 C11.8492582,1.67246657 11.2837544,1.59222908 10.7150228,1.5851746 C9.70223848,1.5686614 8.73747214,2.01910272 8.09553722,2.80819048 C7.3574934,3.75085786 6.98673977,4.93254522 7.05296311,6.13114286 C6.9980961,6.93960316 7.19830713,7.74484924 7.62500134,8.43187302 C7.90365839,8.89310564 8.39162992,9.18479097 8.92713146,9.21022222 C9.58911162,9.15470477 10.2118464,8.87104257 10.6903722,8.40704762 C11.385618,7.79125914 11.9634901,7.0529088 12.3956117,6.22825397 L12.3977867,6.21803175 Z M15.3848558,10.5559048 L15.3848558,0.28184127 L17.0879202,0.28184127 L17.0879202,2.53730159 C17.53364,1.76891098 18.1509987,1.11567449 18.8910369,0.629396825 C19.5740277,0.210357255 20.3598968,-0.00767520528 21.1596144,-1.16127268e-14 C21.782277,0.0015039507 22.4012373,0.0964953288 22.9960818,0.28184127 L22.9960818,3.47847619 L21.3771194,3.47847619 L21.3771194,1.63628571 C21.1551429,1.59389566 20.9301517,1.56947897 20.7043038,1.56326984 C20.0167659,1.58654087 19.3600889,1.85635697 18.852611,2.32409524 C18.1376168,2.97531393 17.5419949,3.74816882 17.0929953,4.60730159 L17.0929953,10.5690476 L15.3848558,10.5559048 Z M34.2686425,10.5559048 L34.2686425,1.71514286 L32.5909537,1.71514286 L32.5909537,0.28184127 L35.9709819,0.28184127 L35.9709819,10.5559048 L34.2686425,10.5559048 Z M37.4978672,10.5559048 L37.4978672,0.28184127 L39.2031066,0.28184127 L39.2031066,2.52196825 C39.6454066,1.78000156 40.2471698,1.14727415 40.9641724,0.670285714 C41.5705355,0.249719913 42.2857041,0.0167456395 43.02177,-2.33951584e-14 C43.6043713,-0.00599077989 44.1757196,0.161675554 44.6639329,0.481904762 C45.137245,0.78051349 45.5007801,1.22661804 45.6992569,1.75238095 C45.948318,2.75416305 46.0475297,3.78777001 45.9936137,4.81904762 L45.9936137,10.5551746 L44.2912743,10.5551746 L44.2912743,4.6 C44.320314,3.9446751 44.2731086,3.28817898 44.1506211,2.64390476 C44.0623973,2.33609113 43.8809096,2.06371585 43.6315091,1.8648254 C43.4005154,1.66990387 43.1092465,1.56222733 42.80789,1.56034921 C42.089644,1.6122705 41.4118064,1.91460685 40.8909457,2.41536508 C40.190695,3.0090229 39.6166207,3.73890707 39.2031066,4.56130159 L39.2031066,10.5559048 L37.4978672,10.5559048 Z M0.0203004695,0.28184127 L4.23482294,0.28184127 L4.23482294,9.31244444 C4.23482294,11.0526561 4.03157657,12.2610688 3.62508384,12.9376825 C3.27943178,13.5537082 2.76731313,14.0583185 2.14822468,14.3928889 C1.4724549,14.6949869 0.739233812,14.8445154 0,14.8309841 L0,13.2246349 C0.429343932,13.3035975 0.871831657,13.2657899 1.28182964,13.1151111 C1.69646499,12.8936414 2.02285154,12.5352924 2.20622602,12.1001905 C2.47662319,11.3102399 2.58922758,10.474234 2.53755869,9.64028571 L2.53755869,1.71514286 L0.0203004695,1.71514286 L0.0203004695,0.28184127 Z M23.9799296,0.319079365 C24.9255246,0.175868914 25.8802715,0.102656875 26.8364956,0.100031746 C28.7585151,0.100031746 30.1266217,0.533746032 31.0328927,1.38365079 C32.0398032,2.36534442 32.5777311,3.73646524 32.5090268,5.14615873 C32.5703601,6.64547053 32.0333071,8.10713861 31.0176673,9.20511111 C30.0628203,10.1689206 28.4358826,10.7070476 26.4232361,10.7070476 C25.6069862,10.7192641 24.790815,10.6778003 23.9799296,10.5829206 L23.9799296,0.319079365 Z M25.6895191,9.11749206 C26.0812274,9.16616829 26.47611,9.18398957 26.8705714,9.17079365 C29.3668042,9.18320635 30.7218605,7.67688889 30.7218605,5.21844444 C30.7341858,3.04403175 29.5277579,1.61584127 27.0598008,1.61584127 C26.6008017,1.60863287 26.142302,1.649498 25.6916942,1.73777778 L25.6895191,9.11749206 Z" id="path-1"></path>
    </defs>
    <g id="Page-1" stroke="none" stroke-width="1" fill="none" fill-rule="evenodd">
        <g id="Elementos" transform="translate(-507.000000, -591.000000)">
            <g id="jardin-bco" transform="translate(507.000000, 591.000000)">
                <rect id="Rectangle-Copy-2" x="0" y="0" width="46.2585915" height="16"></rect>
                <mask id="mask-2" fill="white">
                    <use xlink:href="#path-1"></use>
                </mask>
                <use id="jardin" fill="#FFFFFF" fill-rule="nonzero" xlink:href="#path-1"></use>
            </g>
        </g>
    </g>
</svg>