<?xml version="1.0" encoding="UTF-8"?>
<svg viewBox="0 0 46 15" version="1.1" xmlns="http://www.w3.org/2000/svg" xmlns:xlink="http://www.w3.org/1999/xlink">
    <!-- Generator: Sketch 52.6 (67491) - http://www.bohemiancoding.com/sketch -->
    <title>jardin</title>
    <desc>Created with Sketch.</desc>
    <defs>
        <path d="M12.290625,8.06857143 C11.8410783,8.84272366 11.2054335,9.49405344 10.4405625,9.96428571 C9.84461401,10.3515827 9.154571,10.5719429 8.44315625,10.6021429 C7.56199725,10.5852433 6.731761,10.1884752 6.1683125,9.515 C5.42682866,8.58206584 5.06971284,7.40400969 5.16925,6.21928571 C5.15004194,5.14471545 5.37895647,4.0800692 5.83840625,3.10714286 C6.24079174,2.24645223 6.85692166,1.50165971 7.6288125,0.942857143 C8.44634718,0.39267749 9.41860598,0.114792339 10.4053437,0.149285714 C10.7249479,0.149285714 11.2069896,0.183095238 11.8514687,0.250714286 C11.9463437,0.262857143 12.100875,0.277857143 12.2827187,0.297857143 L13.9804062,0.297857143 L13.9804062,7.38285714 C13.9509914,8.37828894 14.0817746,9.37199968 14.3678125,10.3264286 L12.6226875,10.3264286 C12.4565469,9.58289991 12.345561,8.82825239 12.290625,8.06857143 Z M12.290625,6.08285714 L12.290625,1.78428571 C11.7468377,1.6361086 11.186222,1.5576154 10.6224062,1.55071429 C9.61837605,1.53456006 8.66194877,1.97520918 8.0255625,2.74714286 C7.29389805,3.66931747 6.92634907,4.82531598 6.992,5.99785714 C6.93760724,6.78874222 7.13608772,7.57648295 7.55909375,8.24857143 C7.83534219,8.69977726 8.31909589,8.98512161 8.84996875,9.01 C9.50622702,8.95568945 10.1235791,8.67819382 10.5979687,8.22428571 C11.2872051,7.62188395 11.8600823,6.8995847 12.2884687,6.09285714 L12.290625,6.08285714 Z M15.251875,10.3264286 L15.251875,0.275714286 L16.9402187,0.275714286 L16.9402187,2.48214286 C17.3820859,1.73045639 17.9941084,1.0914207 18.72775,0.615714286 C19.4048373,0.205784272 20.1839137,-0.007508353 20.9767187,4.5277638e-15 C21.5939993,0.00147125612 22.2076096,0.0943976042 22.7973125,0.275714286 L22.7973125,3.40285714 L21.1923437,3.40285714 L21.1923437,1.60071429 C20.9722859,1.55924576 20.7492394,1.53535986 20.5253437,1.52928571 C19.8437486,1.55205085 19.1927477,1.81600138 18.6896562,2.27357143 C17.9808422,2.9106332 17.3903687,3.66668689 16.94525,4.50714286 L16.94525,10.3392857 L15.251875,10.3264286 Z M33.9724375,10.3264286 L33.9724375,1.67785714 L32.30925,1.67785714 L32.30925,0.275714286 L35.6600625,0.275714286 L35.6600625,10.3264286 L33.9724375,10.3264286 Z M37.17375,10.3264286 L37.17375,0.275714286 L38.86425,0.275714286 L38.86425,2.46714286 C39.3027269,1.74130587 39.8992887,1.12233341 40.6100937,0.655714286 C41.2112157,0.244291219 41.9202027,0.0163816038 42.6499062,-7.44266844e-15 C43.2274719,-0.00586054555 43.7938816,0.158160868 44.277875,0.471428571 C44.7470959,0.763545806 45.1074888,1.19995243 45.30425,1.71428571 C45.5511584,2.69428994 45.6495125,3.70542718 45.5960625,4.71428571 L45.5960625,10.3257143 L43.9084375,10.3257143 L43.9084375,4.5 C43.9372262,3.8589213 43.8904288,3.21669683 43.769,2.58642857 C43.6815388,2.28530654 43.5016199,2.01885246 43.254375,1.82428571 C43.025378,1.63360161 42.7366267,1.52826586 42.437875,1.52642857 C41.7258373,1.57722114 41.0538586,1.87298496 40.5375,2.36285714 C39.843302,2.94360935 39.2741898,3.65762648 38.86425,4.46214286 L38.86425,10.3264286 L37.17375,10.3264286 Z M0.020125,0.275714286 L4.19821875,0.275714286 L4.19821875,9.11 C4.19821875,10.812381 3.99672917,11.9945238 3.59375,12.6564286 C3.25108562,13.2590623 2.74339353,13.7527028 2.12965625,14.08 C1.45972756,14.3755307 0.732844158,14.5218085 0,14.5085714 L0,12.9371429 C0.425632847,13.0143889 0.864295878,12.9774032 1.27075,12.83 C1.68180139,12.6133448 2.00536678,12.2627861 2.18715625,11.8371429 C2.45521621,11.0643651 2.56684729,10.2465332 2.515625,9.43071429 L2.515625,1.67785714 L0.020125,1.67785714 L0.020125,0.275714286 Z M23.7726562,0.312142857 C24.710078,0.172045677 25.6565723,0.100425204 26.6045312,0.0978571429 C28.5099375,0.0978571429 29.8662187,0.522142857 30.7646562,1.35357143 C31.7628634,2.31392388 32.2961417,3.65523774 32.2280312,5.03428571 C32.2888344,6.50100377 31.7564235,7.93089646 30.7495625,9.005 C29.8029687,9.94785714 28.1900937,10.4742857 26.1948437,10.4742857 C25.3856492,10.4862366 24.5765327,10.4456742 23.7726562,10.3528571 L23.7726562,0.312142857 Z M25.4674687,8.91928571 C25.8557913,8.96690376 26.2472606,8.98433762 26.6383125,8.97142857 C29.1129687,8.98357143 30.4563125,7.51 30.4563125,5.105 C30.4685312,2.97785714 29.2725312,1.58071429 26.8259062,1.58071429 C26.3708746,1.57366259 25.916338,1.61363934 25.469625,1.7 L25.4674687,8.91928571 Z" id="path-1"></path>
    </defs>
    <g id="Page-1" stroke="none" stroke-width="1" fill="none" fill-rule="evenodd">
        <g id="Elementos" transform="translate(-65.000000, -591.000000)">
            <g id="jardin" transform="translate(65.000000, 591.000000)">
                <rect id="Rectangle-Copy-2" x="5.68434189e-14" y="0" width="46.2585915" height="16"></rect>
                <g id="marcas/jardin" transform="translate(0.000000, 0.000000)">
                    <g id="Color/Revistas/Jardin">
                        <mask id="mask-2" fill="white">
                            <use xlink:href="#path-1"></use>
                        </mask>
                        <use id="jardin" fill="#DC9A44" fill-rule="nonzero" xlink:href="#path-1"></use>
                        <g mask="url(#mask-2)" fill="#E6B87B" id="Color">
                            <g transform="translate(-1.437500, -2.142857)">
                                <rect x="0" y="0" width="49" height="19"></rect>
                            </g>
                        </g>
                    </g>
                </g>
            </g>
        </g>
    </g>
</svg>