<?xml version="1.0" encoding="UTF-8"?>
<svg  viewBox="0 0 46 16" version="1.1" xmlns="http://www.w3.org/2000/svg" xmlns:xlink="http://www.w3.org/1999/xlink">
    <!-- Generator: Sketch 52.6 (67491) - http://www.bohemiancoding.com/sketch -->
    <title>living</title>
    <desc>Created with Sketch.</desc>
    <defs>
        <path d="M0,12.0598261 C0.429550748,12.0393564 0.857140249,11.9889144 1.27963636,11.9088696 C1.62118429,11.7783077 1.82962868,11.4322267 1.78493939,11.069913 L1.78493939,1.84069565 C1.8371324,1.48086358 1.62464778,1.13509525 1.27963636,1.01843478 C0.861184077,0.910187926 0.432041091,0.848364443 1.63076623e-16,0.834086957 L0,0.716521739 L6.31245455,0.716521739 L6.31245455,0.834086957 C5.91185748,0.834781053 5.51202353,0.868987749 5.11715152,0.936347826 C4.7683912,1.05039472 4.54952222,1.39513984 4.59512121,1.7586087 L4.59512121,10.5328696 C4.59512121,11.8413913 5.12690909,11.9756522 6.46090909,11.9756522 C7.31118233,11.9986211 8.13413237,11.674836 8.74,11.0789565 C9.38638836,10.3413252 9.87877365,9.48234412 10.188303,8.55234783 L10.3228182,8.55234783 L10.1032727,12.1766957 L0,12.1766957 L0,12.0598261 Z M27.1107273,11.9422609 C27.3649458,12.036255 27.6361274,12.0758362 27.9066667,12.0584348 L27.9066667,12.176 L23.1331212,12.176 L23.1331212,12.0584348 C23.3782867,12.0625198 23.6225952,12.0284893 23.8572727,11.9575652 C24.1517498,11.8363173 24.3306615,11.5355769 24.2963636,11.2194783 L24.2963636,5.6653913 C24.3003553,5.3644304 24.1739501,5.07640775 23.9496052,4.87527889 C23.7252603,4.67415004 23.4248296,4.57950733 23.1254545,4.61565217 C22.6125722,4.59566161 22.1507146,4.92346647 22.0012424,5.41356522 C21.7147879,6.10226087 20.4351515,9.30921739 20.0985152,10.2135652 C19.8462121,10.8862609 19.6113333,11.5561739 19.3917879,12.2775652 L18.4669091,12.2775652 C17.9114242,10.9349565 16.0428485,6.53843478 15.5040909,5.36417391 C15.3396452,4.90833727 14.9264975,4.58808932 14.443303,4.54191304 L14.443303,4.42295652 L19.113,4.42295652 L19.113,4.53426087 C18.8195758,4.53426087 18.0961212,4.59617391 18.0961212,4.98504348 C18.1293247,5.14305822 18.1783591,5.29734114 18.2424848,5.44556522 C18.4613333,6.01321739 19.5646364,8.76034783 20.0190606,9.75026087 C20.2553333,9.1666087 21.2652424,6.46747826 21.5175455,5.81078261 C21.6227291,5.57361336 21.6800437,5.31807619 21.6862121,5.05878261 C21.6520606,4.6893913 20.9118788,4.60591304 20.3055152,4.52173913 L20.3055152,4.41947826 L26.6709394,4.41947826 L26.7406364,4.48904348 L26.7406364,11.2375652 C26.689401,11.5290856 26.8413785,11.8184683 27.1107273,11.9422609 Z M24.0893636,1.9986087 C24.0893636,1.52465703 24.3426927,1.08670762 24.7539242,0.849731771 C25.1651558,0.612755927 25.6718139,0.612755927 26.0830455,0.849731771 C26.494277,1.08670762 26.7476061,1.52465703 26.7476061,1.9986087 C26.7515111,2.34857169 26.6126018,2.68506052 26.3628229,2.93069326 C26.113044,3.17632599 25.7738928,3.30996215 25.4233636,3.30086957 C25.0721738,3.30911984 24.7325174,3.17552347 24.4813798,2.93036105 C24.2302421,2.68519862 24.0888907,2.34923138 24.0893636,1.9986087 Z M10.534697,12.0598261 C10.7798721,12.0640703 11.0242052,12.0300363 11.2588485,11.9589565 C11.5528463,11.8371562 11.7315219,11.5368127 11.6979394,11.2208696 L11.6979394,5.66608696 C11.7125486,5.33322633 11.5545631,5.01627581 11.2797576,4.82713043 C10.9767651,4.65401886 10.6355658,4.55842467 10.2865758,4.54886957 L10.2865758,4.41947826 L14.0718182,4.41947826 L14.1415152,4.48904348 L14.1415152,11.2333913 C14.0900249,11.5249513 14.2420797,11.8144811 14.5116061,11.938087 C14.767728,12.0344157 15.0412869,12.0758934 15.3145152,12.0598261 L15.3145152,12.1773913 L10.534697,12.1773913 L10.534697,12.0598261 Z M11.4909394,1.9986087 C11.4909394,1.52502984 11.7440692,1.08742491 12.1549772,0.850635477 C12.5658853,0.61384604 13.072145,0.61384604 13.4830531,0.850635477 C13.8939611,1.08742491 14.1470909,1.52502984 14.1470909,1.9986087 C14.150996,2.34857169 14.0120866,2.68506052 13.7623077,2.93069326 C13.5125288,3.17632599 13.1733777,3.30996215 12.8228485,3.30086957 C12.4719056,3.3089359 12.1325696,3.17521269 11.8818041,2.93002917 C11.6310385,2.68484565 11.4900947,2.34898005 11.4909394,1.9986087 Z M28.2328485,12.0598261 C28.474828,12.0545416 28.71533,12.0206828 28.9493333,11.9589565 C29.2518182,11.858087 29.3535758,11.6737391 29.3535758,11.3022609 L29.3535758,5.75026087 C29.3896832,5.41441216 29.2546188,5.0828758 28.9939394,4.86747826 C28.7401759,4.66765969 28.4302438,4.55189803 28.1073939,4.53634783 L28.1073939,4.42295652 L31.7267576,4.42295652 L31.7964545,4.48347826 L31.7964545,5.584 L31.8466364,5.584 C32.452303,4.94608696 33.0084848,4.208 34.4254242,4.208 C36.0751515,4.208 36.731697,5.25147826 36.731697,6.84243478 L36.731697,11.2389565 C36.731697,11.6083478 36.7651515,11.8093913 37.0850606,11.9269565 C37.3312959,12.0018389 37.5856547,12.0469157 37.8426667,12.0612174 L37.8426667,12.1787826 L33.3820606,12.1787826 L33.3820606,12.0612174 C33.5942434,12.0513013 33.8039838,12.0117273 34.0051515,11.9436522 C34.2428182,11.858087 34.2602424,11.5728696 34.2602424,11.2013913 L34.2602424,6.74365217 C34.2602424,5.58608696 33.7890909,5.2333913 33.2001515,5.2333913 C32.6356239,5.20820104 32.1018778,5.49081804 31.8062121,5.97147826 L31.8062121,11.2243478 C31.8062121,11.5937391 31.8396667,11.8114783 32.0585152,11.9123478 C32.2741247,11.9959515 32.5010688,12.0468354 32.7317879,12.0633043 L32.7317879,12.1808696 L28.243303,12.1808696 L28.2328485,12.0598261 Z M37.2899697,13.9387826 C37.2899697,13.0344348 38.1820909,12.4681739 39.9663333,12.4006957 L39.9663333,12.3311304 C39.1613333,12.096 38.1479394,11.6431304 38.1479394,10.7033043 C38.1479394,9.74678261 39.123697,9.45113043 39.9321818,9.33286957 L39.9321818,9.26330435 C38.4845758,8.82573913 37.743697,7.89843478 37.743697,6.82434783 C37.743697,5.04556522 39.6624545,4.19826087 41.2452727,4.19826087 C41.9617392,4.16251212 42.6766364,4.29473848 43.332697,4.58434783 C43.7508788,3.51026087 44.3258788,2.83895652 45.0667576,2.83895652 C45.3087541,2.83028343 45.5439145,2.92001681 45.7183953,3.0876109 C45.8928761,3.25520499 45.9917337,3.48630602 45.9923333,3.728 C46.0104079,3.97133171 45.9258812,4.21114635 45.7591466,4.38958498 C45.5924119,4.5680236 45.3586109,4.66888184 45.1141515,4.66782609 C44.6449626,4.65474174 44.2283983,4.36470937 44.0540606,3.92973913 C43.7941441,4.08324637 43.6017651,4.32891662 43.515303,4.61773913 L43.515303,4.66782609 C44.2603375,5.17228112 44.7125616,6.00727527 44.7273333,6.90573913 C44.7273333,8.416 43.1277879,9.39478261 41.3944242,9.39478261 L40.1008485,9.39478261 C39.8987273,9.54573913 39.7140303,9.73078261 39.7140303,9.92278261 C39.7140303,10.5565217 40.3726667,10.4793043 41.2794242,10.5126957 L43.4679091,10.5968696 C44.7872855,10.6449136 45.8304521,11.7292091 45.8250606,13.0469565 C45.8250606,14.7248696 44.4109091,15.9944348 41.262697,15.9944348 C38.4009394,16.0027826 37.2899697,15.1805217 37.2899697,13.9387826 Z M43.9732121,13.682087 C43.9655679,13.1908639 43.639795,12.7612624 43.1682121,12.6205217 C42.8657273,12.5704348 41.2494545,12.5363478 40.0876061,12.5363478 C39.5513003,12.7922874 39.2248703,13.3480699 39.2630909,13.9401739 C39.2630909,15.0476522 40.1252424,15.7843478 41.653,15.7843478 C42.248751,15.8500082 42.8440875,15.6573312 43.2878763,15.2552301 C43.7316651,14.853129 43.9812286,14.2802724 43.9732121,13.682087 Z M42.3402121,6.8466087 C42.3402121,5.60626087 42.0704848,4.39095652 41.2292424,4.39095652 C40.4040303,4.39095652 40.204697,5.4706087 40.204697,6.7986087 C40.204697,8.40973913 40.5580606,9.25426087 41.2501515,9.25426087 C42.0537576,9.25217391 42.3402121,8.30678261 42.3402121,6.8466087 Z" id="path-1"></path>
    </defs>
    <g id="Page-1" stroke="none" stroke-width="1" fill="none" fill-rule="evenodd">
        <g id="Elementos" transform="translate(-65.000000, -631.000000)">
            <g id="living" transform="translate(65.000000, 631.000000)">
                <rect id="Rectangle-Copy-3" x="5.68434189e-14" y="0" width="45.92" height="16"></rect>
                <g id="marcas/living" transform="translate(0.000000, 0.000000)">
                    <g id="living">
                        <g id="Color/Revistas/Negro">
                            <mask id="mask-2" fill="white">
                                <use xlink:href="#path-1"></use>
                            </mask>
                            <use id="living" fill="#000000" fill-rule="nonzero" xlink:href="#path-1"></use>
                            <g mask="url(#mask-2)" fill="#000000" id="Color">
                                <g transform="translate(-1.393939, -2.782609)">
                                    <rect x="0" y="0" width="49" height="20"></rect>
                                </g>
                            </g>
                        </g>
                    </g>
                </g>
            </g>
        </g>
    </g>
</svg>