<?xml version="1.0" encoding="utf-8"?>
<!-- Generator: Adobe Illustrator 22.0.0, SVG Export Plug-In . SVG Version: 6.00 Build 0)  -->
<svg version="1.1" id="Capa_1" xmlns="http://www.w3.org/2000/svg" xmlns:xlink="http://www.w3.org/1999/xlink" x="0px" y="0px"
	 viewBox="0 0 250 145" style="enable-background:new 0 0 250 145;" xml:space="preserve">
<style type="text/css">
	.st0{fill:#3B6994;}
</style>
<path class="st0" d="M13.6,126.9h93.2V85.6h-7.7V90c0,23.7-16.3,29.8-36.8,29.8h-3.7V30.1h17.1v-7.1H13.6v7.1h15.5v89.8H13.6V126.9z
	 M232.4,30.1v-7.1H194v7.1h2.8c7.7,0,11.9,2.8,11.9,8.4v45.9h1.5l-49.6-61.5h-44.9v7.1h0.8c5.9,0,11.8,4.6,11.8,11.6v67.5
	c0,9-5.1,10.6-10.5,10.6h0h-2.6v7.1l38.7,0.1l-0.4-7.2h-1.1c-9.8,0-13.6-1.4-13.6-9.8V43.2h-1.5l67.3,83.8h14.7V38
	c0-3.7,3.3-8,11.2-8H232.4z"/>
</svg>
