<?xml version="1.0" encoding="UTF-8"?>
<svg  viewBox="0 0 23 15" version="1.1" xmlns="http://www.w3.org/2000/svg" xmlns:xlink="http://www.w3.org/1999/xlink">
    <!-- Generator: Sketch 52.6 (67491) - http://www.bohemiancoding.com/sketch -->
    <title>ln-mas</title>
    <desc>Created with Sketch.</desc>
    <defs>
        <linearGradient x1="50%" y1="0%" x2="50%" y2="100%" id="linearGradient-1">
            <stop stop-color="#7A74AC" offset="0%"></stop>
            <stop stop-color="#4E3D71" offset="100%"></stop>
        </linearGradient>
        <path d="M13.3604054,3 L20.125,11.0521117 L20.125,14.25 L18.7887838,14.25 L9.97797297,3.99551174 L8.625,3.99551174 L8.625,3 L13.3604054,3 Z M6.0379824,13.2547154 C8.7731643,13.2006328 9.42841805,12.0930441 9.39250639,10.0221788 L10.0625,10.0221788 L10.0625,14.25 L0,14.25 L0,13.2544394 L2.01132081,13.2544394 L2.01132081,3.99556057 L0.00133998722,3.99556057 L0.00133998722,3 L6.70878,3 L6.70878,3.99556057 L4.69638719,3.99556057 L4.69638719,13.2547154 L6.0379824,13.2547154 Z M23,2.8603481 L23,3.88822785 L20.258084,3.88822785 L20.258084,6.75 L19.273166,6.75 L19.273166,3.88794304 L16.53125,3.88794304 L16.53125,2.8603481 L19.273166,2.8603481 L19.273166,0 L20.258084,0 L20.258084,2.8603481 L23,2.8603481 Z" id="path-2"></path>
    </defs>
    <g id="Page-1" stroke="none" stroke-width="1" fill="none" fill-rule="evenodd">
        <g id="Elementos" transform="translate(-65.000000, -793.000000)">
            <g id="ln-mas" transform="translate(65.000000, 793.000000)">
                <rect id="Rectangle-Copy-7" x="5.68434189e-14" y="0" width="23.2533333" height="16"></rect>
                <g id="marcas/LN+" transform="translate(-0.000000, 0.000000)">
                    <g id="LNmas">
                        <g id="Color/Revistas/LN+">
                            <mask id="mask-3" fill="white">
                                <use xlink:href="#path-2"></use>
                            </mask>
                            <use id="ln-mas" fill="url(#linearGradient-1)" fill-rule="nonzero" xlink:href="#path-2"></use>
                            <g mask="url(#mask-3)" fill="url(#linearGradient-1)" id="Color">
                                <g transform="translate(-12.937500, -23.250000)">
                                    <rect x="0" y="0" width="58" height="60"></rect>
                                </g>
                            </g>
                        </g>
                    </g>
                </g>
            </g>
        </g>
    </g>
</svg>