<?xml version="1.0" encoding="UTF-8"?>
<svg  viewBox="0 0 61 12" version="1.1" xmlns="http://www.w3.org/2000/svg" xmlns:xlink="http://www.w3.org/1999/xlink">
    <!-- Generator: Sketch 52.6 (67491) - http://www.bohemiancoding.com/sketch -->
    <title>lugares-bco</title>
    <desc>Created with Sketch.</desc>
    <defs>
        <path d="M60.919653,8.41677083 C60.9348431,7.09109662 60.0778862,5.9144187 58.816199,5.52854167 C57.6005477,4.99697917 56.2731957,4.7096875 56.2731957,3.76104167 C56.2731957,3.34395833 56.6452895,2.74020833 57.7028191,2.74020833 C58.4097575,2.73641971 59.1014779,2.94653277 59.6880444,3.34322917 L60.7165609,1.6340625 C59.8277439,1.03011793 58.77625,0.714323938 57.7035444,0.729166667 C55.8590329,0.729166667 53.9869589,1.60416667 53.9869589,3.76104167 C53.9869589,5.4271875 54.8167352,6.08854167 55.8604836,6.67114583 C56.7308783,7.1596875 58.6334161,7.51916667 58.6334161,8.56697917 C58.6334161,9.19916667 58.3476365,9.55791667 57.3038882,9.55791667 C56.4419146,9.51657299 55.6156715,9.199248 54.9458437,8.65229167 L53.7592056,10.2622917 C54.7373932,11.098265 55.977235,11.5611478 57.2610938,11.5696875 C59.5190428,11.5696875 60.9269063,10.4030208 60.9269063,8.42333333 L60.919653,8.41677083 Z M52.814102,11.3983333 L52.814102,9.45875 L48.8146382,9.45875 L48.8146382,7.23916667 L52.3266809,7.23916667 L52.3266809,5.29958333 L48.8146382,5.29958333 L48.8146382,2.84375 L52.5965033,2.84375 L52.5965033,0.901979167 L46.527676,0.901979167 L46.527676,11.4019792 L52.814102,11.3983333 Z M42.721875,4.0271875 C42.7535496,4.38492923 42.6281173,4.73871983 42.3785081,4.99567759 C42.128899,5.25263534 41.7800466,5.38709264 41.4235362,5.36375 L39.965625,5.36375 L39.965625,2.84375 L41.4235362,2.84375 C41.756109,2.81482979 42.0855603,2.92702973 42.3321701,3.15319984 C42.5787798,3.37936995 42.7200786,3.6989031 42.721875,4.03447917 L42.721875,4.0271875 Z M45.4520132,11.3990625 L42.6819819,7.00875 C44.069221,6.71006343 45.0484871,5.46097301 45.0131891,4.03520833 C45.0131891,2.22322917 43.608227,0.899791667 41.4242615,0.899791667 L37.6786628,0.899791667 L37.6786628,11.3997917 L39.965625,11.3997917 L39.965625,6.43416667 L42.8596875,11.3925 L45.4520132,11.3990625 Z M32.9313849,6.8053125 L30.9331036,6.8053125 L31.7186349,4.24666667 C31.8325115,3.85875 31.9362336,3.39864583 31.9362336,3.39864583 C31.9362336,3.39864583 32.0501102,3.871875 32.1661628,4.24666667 L32.9313849,6.8053125 Z M36.819148,11.3990625 L33.0343816,0.901979167 L30.8322829,0.901979167 L27.1026414,11.4019792 L29.5208882,11.4019792 L30.3354326,8.75802083 L33.5101974,8.75802083 L34.3080592,11.4019792 L36.819148,11.3990625 Z M22.1413914,6.10239583 L22.1413914,8.04197917 L24.8004474,8.04197917 C24.362056,9.05493704 23.3213963,9.66564297 22.2284309,9.55135417 C21.3628522,9.50901404 20.5499356,9.12092528 19.9702842,8.47330827 C19.3906327,7.82569126 19.0922515,6.97217985 19.1414309,6.10239583 C19.099885,5.249912 19.3979418,4.41592226 19.96966,3.7849363 C20.5413783,3.15395034 21.3396302,2.77798157 22.1878125,2.74020833 C23.173164,2.71576633 24.1224333,3.11338796 24.7989967,3.83395833 L26.2133882,2.4390625 C25.1847643,1.30611305 23.7150849,0.681517196 22.1899885,0.729166667 C20.7659356,0.694320762 19.3904797,1.25067989 18.3872806,2.26732673 C17.3840815,3.28397358 16.8417252,4.67113461 16.8878339,6.10239583 C16.8128899,7.55711773 17.3488934,8.97664721 18.3651862,10.0149546 C19.3814791,11.053262 20.7846957,11.6149593 22.2327829,11.563125 C25.0767977,11.563125 27.3369227,9.56520833 27.3369227,6.10239583 L22.1413914,6.10239583 Z M15.7396382,7.13052083 L15.7396382,0.901979167 L13.5767072,0.901979167 L13.5767072,7.13052083 C13.6082206,7.76523517 13.3800329,8.38527384 12.9451772,8.84653315 C12.5103216,9.30779245 11.9066684,9.57010264 11.2745132,9.5725 C9.98777961,9.5725 9.11738487,8.5596875 9.11738487,7.13052083 L9.11738487,0.901979167 L6.70494079,0.901979167 L6.70494079,7.13052083 C6.70494079,10.005625 8.87367434,11.5572917 11.2745132,11.5572917 C12.4685329,11.6297606 13.6369602,11.188877 14.4886565,10.3444965 C15.3403529,9.500116 15.7951182,8.33174967 15.7396382,7.13052083 Z M6.00282237,11.3983333 L6.00282237,9.45875 L2.28623684,9.45875 L2.28623684,0.901979167 L0,0.901979167 L0,11.4019792 L6.00282237,11.3983333 Z" id="path-1"></path>
    </defs>
    <g id="Page-1" stroke="none" stroke-width="1" fill="none" fill-rule="evenodd">
        <g id="Elementos" transform="translate(-507.000000, -672.000000)">
            <g id="lugares-bco" transform="translate(507.000000, 672.000000)">
                <rect id="Rectangle-Copy-4" x="0" y="0" width="62.9204211" height="16"></rect>
                <mask id="mask-2" fill="white">
                    <use xlink:href="#path-1"></use>
                </mask>
                <use id="lugares" fill="#FFFFFF" fill-rule="nonzero" xlink:href="#path-1"></use>
            </g>
        </g>
    </g>
</svg>