<?xml version="1.0" encoding="UTF-8"?>
<svg viewBox="0 0 61 12" version="1.1" xmlns="http://www.w3.org/2000/svg" xmlns:xlink="http://www.w3.org/1999/xlink">
    <!-- Generator: Sketch 52.6 (67491) - http://www.bohemiancoding.com/sketch -->
    <title>lugares-negro</title>
    <desc>Created with Sketch.</desc>
    <defs>
        <path d="M60.9920119,8.65725 C61.0072201,7.29369939 60.1492453,6.08340209 58.8860595,5.6865 C57.6689643,5.13975 56.3400357,4.84425 56.3400357,3.8685 C56.3400357,3.4395 56.7125714,2.8185 57.7713571,2.8185 C58.4791353,2.81460313 59.1716772,3.03071942 59.7589405,3.43875 L60.7886786,1.68075 C59.8988059,1.05954987 58.846063,0.734733194 57.7720833,0.75 C55.925381,0.75 54.0510833,1.65 54.0510833,3.8685 C54.0510833,5.58225 54.8818452,6.2625 55.9268333,6.86175 C56.7982619,7.36425 58.7030595,7.734 58.7030595,8.81175 C58.7030595,9.462 58.4169405,9.831 57.3719524,9.831 C56.508955,9.78847507 55.6817305,9.46208366 55.0111071,8.8995 L53.8230595,10.5555 C54.802409,11.4153583 56.0437235,11.8914663 57.3291071,11.90025 C59.5897381,11.90025 60.9992738,10.70025 60.9992738,8.664 L60.9920119,8.65725 Z M52.8768333,11.724 L52.8768333,9.729 L48.872619,9.729 L48.872619,7.446 L52.3888333,7.446 L52.3888333,5.451 L48.872619,5.451 L48.872619,2.925 L52.6589762,2.925 L52.6589762,0.92775 L46.5829405,0.92775 L46.5829405,11.72775 L52.8768333,11.724 Z M42.772619,4.14225 C42.8043313,4.51021292 42.67875,4.87411183 42.4288444,5.13841123 C42.1789387,5.40271064 41.8296719,5.54100958 41.4727381,5.517 L40.0130952,5.517 L40.0130952,2.925 L41.4727381,2.925 C41.8057059,2.8952535 42.1355486,3.01065915 42.3824512,3.24329126 C42.6293539,3.47592338 42.7708205,3.80458605 42.772619,4.14975 L42.772619,4.14225 Z M45.506,11.72475 L42.7326786,7.209 C44.1215653,6.90177953 45.1019946,5.61700081 45.0666548,4.1505 C45.0666548,2.28675 43.6600238,0.9255 41.4734643,0.9255 L37.7234167,0.9255 L37.7234167,11.7255 L40.0130952,11.7255 L40.0130952,6.618 L42.9105952,11.718 L45.506,11.72475 Z M32.9705,6.99975 L30.9698452,6.99975 L31.7563095,4.368 C31.8703214,3.969 31.9741667,3.49575 31.9741667,3.49575 C31.9741667,3.49575 32.0881786,3.9825 32.204369,4.368 L32.9705,6.99975 Z M36.862881,11.72475 L33.073619,0.92775 L30.8689048,0.92775 L27.1348333,11.72775 L29.5559524,11.72775 L30.3714643,9.00825 L33.55,9.00825 L34.3488095,11.72775 L36.862881,11.72475 Z M22.1676905,6.27675 L22.1676905,8.27175 L24.8299048,8.27175 C24.3909927,9.31364953 23.3490969,9.9418042 22.2548333,9.82425 C21.3882265,9.78070016 20.5743444,9.38152314 19.9940044,8.71540279 C19.4136645,8.04928244 19.1149288,7.17138499 19.1641667,6.27675 C19.1225714,5.39990949 19.4209822,4.54209147 19.9933795,3.89307734 C20.5657769,3.24406321 21.3649769,2.85735247 22.2141667,2.8185 C23.2006885,2.79335965 24.1510853,3.20234191 24.8284524,3.9435 L26.2445238,2.50875 C25.2146782,1.34343056 23.7432531,0.700989116 22.2163452,0.75 C20.7906009,0.714158498 19.4135113,1.2864136 18.4091206,2.3321075 C17.4047299,3.37780139 16.8617294,4.8045956 16.9078929,6.27675 C16.8328598,7.77303538 17.3695,9.23312285 18.387,10.3010962 C19.4045,11.3690695 20.8093833,11.9468152 22.2591905,11.8935 C25.1065833,11.8935 27.3693929,9.8385 27.3693929,6.27675 L22.1676905,6.27675 Z M15.7583333,7.33425 L15.7583333,0.92775 L13.5928333,0.92775 L13.5928333,7.33425 C13.6243842,7.98709903 13.3959253,8.6248531 12.9605532,9.09929123 C12.525181,9.57372937 11.9208108,9.84353415 11.2879048,9.846 C9.99964286,9.846 9.12821429,8.80425 9.12821429,7.33425 L9.12821429,0.92775 L6.71290476,0.92775 L6.71290476,7.33425 C6.71290476,10.2915 8.88421429,11.8875 11.2879048,11.8875 C12.4833427,11.9620394 13.6531579,11.5085592 14.5058658,10.6400535 C15.3585738,9.77154789 15.8138793,8.56979966 15.7583333,7.33425 Z M6.00995238,11.724 L6.00995238,9.729 L2.28895238,9.729 L2.28895238,0.92775 L0,0.92775 L0,11.72775 L6.00995238,11.724 Z" id="path-1"></path>
    </defs>
    <g id="Page-1" stroke="none" stroke-width="1" fill="none" fill-rule="evenodd">
        <g id="Elementos" transform="translate(-280.000000, -672.000000)">
            <g id="lugares-negro" transform="translate(280.000000, 672.000000)">
                <rect id="Rectangle-Copy-4" x="0" y="0" width="62.9204211" height="16"></rect>
                <g id="marcas/lugares">
                    <g id="lugares">
                        <g id="Color/Systema/Negro">
                            <mask id="mask-2" fill="white">
                                <use xlink:href="#path-1"></use>
                            </mask>
                            <use id="lugares" fill="#000000" fill-rule="nonzero" xlink:href="#path-1"></use>
                            <g id="Color/Sistema/Negro" mask="url(#mask-2)" fill="#000000">
                                <g transform="translate(-1.452381, -1.500000)" id="Color">
                                    <rect x="0" y="0" width="64" height="16"></rect>
                                </g>
                            </g>
                        </g>
                    </g>
                </g>
            </g>
        </g>
    </g>
</svg>