<?xml version="1.0" encoding="UTF-8"?>
<svg viewBox="0 0 201 130" version="1.1" xmlns="http://www.w3.org/2000/svg" xmlns:xlink="http://www.w3.org/1999/xlink">
    <!-- Generator: Sketch 56.2 (81672) - https://sketch.com -->
    <title>lineas trama der</title>
    <desc>Created with Sketch.</desc>
    <g id="Page-1" stroke="none" stroke-width="1" fill="none" fill-rule="evenodd" stroke-linecap="square">
        <g id="GRID-1366-CAJA-NEWSLETTER-LN-|-Logueado" transform="translate(-1158.000000, -356.000000)" stroke="#FFFFFF">
            <g id="DISEÑO" transform="translate(0.000000, -646.000000)">
                <g id="CAJA-NEWSLETTER-100%" transform="translate(0.000000, 1002.000000)">
                    <g id="lineas-trama-der" transform="translate(1156.593750, 0.000000)">
                        <g id="lineas-largas" transform="translate(7.500000, 1.000000)" opacity="0.3">
                            <path d="M1.40625,0.00994723658 L1.40625,37.4547055" id="Line-3"></path>
                            <path d="M36.40625,0.00994723658 L36.40625,45.5" id="Line-3"></path>
                            <path d="M51.40625,0.409411044 L51.40625,48.9116107" id="Line-3"></path>
                            <path d="M16.40625,0.2512341 L16.40625,52.3206573" id="Line-3-Copy-7"></path>
                            <path d="M106.5,0.409411044 L106.5,97.4138103" id="Line-3"></path>
                            <path d="M114.40625,0.409411044 L114.40625,74.5" id="Line-3"></path>
                            <path d="M98.40625,0.409411044 L98.40625,33.4920396" id="Line-3-Copy-3"></path>
                            <path d="M74.40625,0.00994723658 L74.40625,66.974132" id="Line-3-Copy-9"></path>
                            <path d="M122.40625,0.00994723658 L122.40625,127.5" id="Line-3"></path>
                            <path d="M130,0.2512341 L130,22.0539775" id="Line-3-Copy"></path>
                            <path d="M66.40625,0.2512341 L66.40625,40.5" id="Line-3-Copy-11"></path>
                            <path d="M82.40625,0.00994723658 L82.40625,112.5" id="Line-3-Copy-7"></path>
                            <path d="M177.40625,0.00994723658 L177.40625,97.4138103" id="Line-3"></path>
                            <path d="M162.40625,0.409411044 L162.40625,60.5" id="Line-3-Copy-5"></path>
                            <path d="M170.40625,0.409411044 L170.40625,63.5" id="Line-3-Copy-3"></path>
                            <path d="M146.40625,0.00994723658 L146.40625,66.974132" id="Line-3-Copy-9"></path>
                            <path d="M138.40625,0.0689284698 L138.40625,41.5" id="Line-3-Copy-11"></path>
                            <path d="M154.40625,0.141314529 L154.40625,104.5" id="Line-3-Copy-7"></path>
                            <path d="M186.40625,0.2512341 L186.40625,76.5" id="Line-3"></path>
                            <path d="M194.40625,0.00994723658 L194.40625,102" id="Line-3"></path>
                        </g>
                        <g id="lineas-cortas" transform="translate(0.500000, 0.139410)">
                            <path d="M1.40625,1.29217757 L1.40625,23.3605898" id="Line-3"></path>
                            <path d="M8.40625,16.3605898 L8.40625,38.3605898" id="Line-3-Copy-8"></path>
                            <path d="M15.40625,1.29217757 L15.40625,35.0958445" id="Line-3-Copy-2"></path>
                            <path d="M23.40625,32.3417798 L23.40625,55.3605898" id="Line-3-Copy-8"></path>
                            <path d="M29.40625,1.29217757 L29.40625,10.018483" id="Line-3-Copy-6"></path>
                            <path d="M36.40625,1.29217757 L36.40625,13.3263837" id="Line-3-Copy-4"></path>
                            <path d="M43.40625,10.018483 L43.40625,46.3605898" id="Line-3"></path>
                            <path d="M50.40625,1.29217757 L50.40625,25.3605898" id="Line-3"></path>
                            <path d="M58.40625,39.3605898 L58.40625,51.3605898" id="Line-3"></path>
                            <path d="M65.40625,1.29217757 L65.40625,14.3605898" id="Line-3-Copy-2"></path>
                            <path d="M113.40625,62.1578932 L113.40625,99.2649612" id="Line-3"></path>
                            <path d="M121.40625,32.3417798 L121.40625,77.1981076" id="Line-3"></path>
                            <path d="M97.40625,1.29217757 L97.40625,12.3263837" id="Line-3-Copy-6"></path>
                            <path d="M105.40625,19.3605898 L105.40625,35.0958445" id="Line-3-Copy-4"></path>
                            <path d="M81.40625,53.8851254 L81.40625,84.996585" id="Line-3-Copy-10"></path>
                            <path d="M129.40625,91.8579368 L129.40625,129.36059" id="Line-3"></path>
                            <path d="M137.40625,1.29217757 L137.40625,67.3105312" id="Line-3-Copy-2"></path>
                            <path d="M73.40625,21.0559966 L73.40625,67.3189343" id="Line-3-Copy-12"></path>
                            <path d="M89.40625,77.1981076 L89.40625,114.36059" id="Line-3-Copy-8"></path>
                            <path d="M184.40625,61.897244 L184.40625,99.2649612" id="Line-3"></path>
                            <path d="M193.40625,32.3417798 L193.40625,77.1981076" id="Line-3"></path>
                            <path d="M169.40625,17.3605898 L169.40625,61.897244" id="Line-3-Copy-6"></path>
                            <path d="M177.40625,49.3605898 L177.40625,65.3605898" id="Line-3-Copy-4"></path>
                            <path d="M153.40625,53.8851254 L153.40625,84.996585" id="Line-3-Copy-10"></path>
                            <path d="M201.40625,91.3605898 L201.40625,102.86059" id="Line-3"></path>
                            <path d="M145.40625,21.0559966 L145.40625,67.3189343" id="Line-3-Copy-12"></path>
                            <path d="M161.40625,76.3605898 L161.40625,107.36059" id="Line-3-Copy-8"></path>
                        </g>
                    </g>
                </g>
            </g>
        </g>
    </g>
</svg>