<?xml version="1.0" encoding="UTF-8"?>
<svg  viewBox="0 0 53 13" version="1.1" xmlns="http://www.w3.org/2000/svg" xmlns:xlink="http://www.w3.org/1999/xlink">
    <!-- Generator: Sketch 52.6 (67491) - http://www.bohemiancoding.com/sketch -->
    <title>ohlala-negro</title>
    <desc>Created with Sketch.</desc>
    <defs>
        <path d="M5.6716969,1.23903322 C8.98692825,1.23903322 11.3571429,3.82132212 11.3571429,6.8099928 C11.3571429,9.79866348 9.00495553,12.3809524 5.66052297,12.3809524 C2.27243758,12.3809524 0.000404592616,9.69695635 0.000404592616,6.93999327 C-0.00866369942,6.15579318 0.13478544,5.37730136 0.42277925,4.64778561 C1.31184931,2.54683002 3.38979492,1.19737047 5.6716969,1.23903322 Z M5.71549872,9.97333765 C7.66378563,9.97333765 8.60969628,8.20306775 8.60969628,6.82458621 C8.60969628,5.43166017 7.66646737,3.64679685 5.68719142,3.64679685 C3.78017357,3.64679685 2.74502044,5.27157941 2.74502044,6.78095489 C2.74502044,8.43492426 3.86494647,9.97333765 5.71117813,9.97333765 L5.71549872,9.97333765 Z M11.9880952,1.85714286 L14.812502,1.85714286 L14.812502,6.04398256 L17.9971749,6.04398256 L17.9971749,1.85714286 L20.8214286,1.85714286 L20.8214286,13 L17.9974811,13 L17.9974811,8.54362988 L14.8128082,8.54362988 L14.8128082,13 L11.9880952,13 L11.9880952,1.85714286 Z M32.0353223,1.85714286 L35.3333333,1.85714286 L35.3333333,13 L32.4669443,13 L32.4669443,11.3884611 L28.8074518,11.3884611 L27.7095727,13 L21.452381,13 L21.452381,1.85714286 L24.329705,1.85714286 L24.329705,10.5037613 L26.1460168,10.5037613 L32.0353223,1.85714286 Z M32.4624141,9.13295592 L32.4624141,6.02985829 L30.3432014,9.13295592 L32.4624141,9.13295592 Z M53,9.69440425 L50.4761905,9.69440425 L50.4761905,1.85714286 L53,1.85714286 L53,9.69440425 Z M53,13 L50.4761905,13 L50.4761905,10.438859 L53,10.438859 L53,13 Z M47.2218068,0 L49.2105478,0 L49.2105478,1.03425002 L46.5513673,1.03425002 L47.2218068,0 Z M40.4230667,10.483605 L46.0658819,1.78146765 L49.2142857,1.78146765 L49.2142857,13 L46.4706275,13 L46.4706275,11.3776836 L42.9687628,11.3776836 L41.9179492,12.9992221 L35.9642857,12.9992221 L35.9642857,1.78706828 L38.7185597,1.78706828 L38.7185597,10.483605 L40.4230667,10.483605 Z M46.4686838,9.10429382 L46.4670391,5.98194155 L44.4386758,9.10429382 L46.4686838,9.10429382 Z" id="path-1"></path>
    </defs>
    <g id="Page-1" stroke="none" stroke-width="1" fill="none" fill-rule="evenodd">
        <g id="Elementos" transform="translate(-280.000000, -712.000000)">
            <g id="ohlala-negro" transform="translate(280.000000, 712.000000)">
                <rect id="Rectangle-Copy-5" x="5.68434189e-14" y="0" width="53.92" height="16"></rect>
                <g id="marcas/ohlala">
                    <g id="ohlala">
                        <g id="Color/Revistas/Ohlala">
                            <mask id="mask-2" fill="white">
                                <use xlink:href="#path-1"></use>
                            </mask>
                            <use id="ohlala" fill="#E61F63" fill-rule="nonzero" xlink:href="#path-1"></use>
                            <g id="Color/Revistas/Negro" mask="url(#mask-2)" fill="#000000">
                                <g transform="translate(-5.047619, -3.714286)" id="Color">
                                    <rect x="0" y="0" width="64" height="22"></rect>
                                </g>
                            </g>
                        </g>
                    </g>
                </g>
            </g>
        </g>
    </g>
</svg>