<?xml version="1.0" encoding="UTF-8"?>
<svg  viewBox="0 0 54 14" version="1.1" xmlns="http://www.w3.org/2000/svg" xmlns:xlink="http://www.w3.org/1999/xlink">
    <!-- Generator: Sketch 52.6 (67491) - http://www.bohemiancoding.com/sketch -->
    <title>ohlala-bco</title>
    <desc>Created with Sketch.</desc>
    <defs>
        <path d="M5.70736795,1.2708033 C9.04344981,1.2708033 11.4285714,3.91930474 11.4285714,6.984608 C11.4285714,10.0499113 9.06159047,12.6984127 5.69612374,12.6984127 C2.28672964,12.6984127 0.000407137224,9.94559626 0.000407137224,7.11794182 C-0.0087181881,6.31363403 0.135633147,5.51518088 0.425438239,4.7669596 C1.32009994,2.61213336 3.41111439,1.22807228 5.70736795,1.2708033 Z M5.75144525,10.2290643 C7.71198554,10.2290643 8.66384531,8.41340282 8.66384531,6.9995756 C8.66384531,5.57093351 7.71468415,3.74030447 5.72295992,3.74030447 C3.80394825,3.74030447 2.76228472,5.40674811 2.76228472,6.95482553 C2.76228472,8.65120437 3.88925431,10.2290643 5.74709749,10.2290643 L5.75144525,10.2290643 Z M12.0634921,1.9047619 L14.9056624,1.9047619 L14.9056624,6.19895648 L18.1103647,6.19895648 L18.1103647,1.9047619 L20.952381,1.9047619 L20.952381,13.3333333 L18.1106728,13.3333333 L18.1106728,8.76269731 L14.9059705,8.76269731 L14.9059705,13.3333333 L12.0634921,13.3333333 L12.0634921,1.9047619 Z M32.2368023,1.9047619 L35.5555556,1.9047619 L35.5555556,13.3333333 L32.6711389,13.3333333 L32.6711389,11.6804729 L28.9886307,11.6804729 L27.8838468,13.3333333 L21.5873016,13.3333333 L21.5873016,1.9047619 L24.482722,1.9047619 L24.482722,10.7730885 L26.3104572,10.7730885 L32.2368023,1.9047619 Z M32.6665802,9.36713427 L32.6665802,6.18447004 L30.5340392,9.36713427 L32.6665802,9.36713427 Z M53.3333333,9.94297872 L50.7936508,9.94297872 L50.7936508,1.9047619 L53.3333333,1.9047619 L53.3333333,9.94297872 Z M53.3333333,13.3333333 L50.7936508,13.3333333 L50.7936508,10.7065221 L53.3333333,10.7065221 L53.3333333,13.3333333 Z M47.5187993,0 L49.5200481,0 L49.5200481,1.06076925 L46.8441432,1.06076925 L47.5187993,0 Z M40.6772998,10.7524154 L46.3556044,1.82714631 L49.5238095,1.82714631 L49.5238095,13.3333333 L46.7628956,13.3333333 L46.7628956,11.6694191 L43.2390066,11.6694191 L42.1815841,13.3325355 L36.1904762,13.3325355 L36.1904762,1.83289055 L38.9620726,1.83289055 L38.9620726,10.7524154 L40.6772998,10.7524154 Z M46.7609397,9.33773725 L46.7592846,6.13532467 L44.7181643,9.33773725 L46.7609397,9.33773725 Z" id="path-1"></path>
    </defs>
    <g id="Page-1" stroke="none" stroke-width="1" fill="none" fill-rule="evenodd">
        <g id="Elementos" transform="translate(-507.000000, -712.000000)">
            <g id="ohlala-bco" transform="translate(507.000000, 712.000000)">
                <rect id="Rectangle-Copy-5" x="0" y="0" width="53.92" height="16"></rect>
                <mask id="mask-2" fill="white">
                    <use xlink:href="#path-1"></use>
                </mask>
                <use id="ohlala" fill="#FFFFFF" fill-rule="nonzero" xlink:href="#path-1"></use>
            </g>
        </g>
    </g>
</svg>