<?xml version="1.0" encoding="UTF-8"?>
<svg viewBox="0 0 84 16" version="1.1" xmlns="http://www.w3.org/2000/svg" xmlns:xlink="http://www.w3.org/1999/xlink">
    <!-- Generator: Sketch 52.6 (67491) - http://www.bohemiancoding.com/sketch -->
    <title>rolling-bco</title>
    <desc>Created with Sketch.</desc>
    <defs>
        <path d="M57.3203883,0.466019417 L56.6432071,4.48051913 L55.3802282,4.48051913 C55.4673394,4.16711803 55.5147349,3.84415099 55.5213169,3.51909915 C55.5326948,3.08391923 55.3536265,2.66518884 55.0303755,2.37108994 C54.7071245,2.07699104 54.2713996,1.93637268 53.8357733,1.9855646 C53.4639745,1.96722171 53.1010242,2.10199096 52.8325812,2.35806588 C52.5641382,2.6141408 52.4139855,2.96883414 52.4175602,3.33843579 C52.4175602,4.14719901 53.048741,4.83064321 53.5692286,5.41605045 C53.7921584,5.66674419 54.0875833,5.97554115 54.356289,6.26614079 C55.2956647,7.28778189 56.2378751,8.44388245 56.2378751,9.977417 C56.2117954,10.9735318 55.7833891,11.9173907 55.0490665,12.5965838 C54.3147439,13.2757769 53.3361971,13.6332437 52.3336423,13.5885383 C51.6987965,13.5996516 51.0668556,13.5008428 50.4661736,13.2965453 C50.1457145,13.1475813 49.8057508,13.0441003 49.4562675,12.9891417 C49.2030543,12.9891417 49.0909298,13.1831256 49.0909298,13.4905292 L48.122646,13.8252427 L46.7572816,9.72532989 L48.0337884,9.34995809 C48.5253398,10.7574491 49.4823691,11.914943 51.2503993,11.914943 C52.4020396,11.914943 53.3428467,11.2868432 53.3428467,10.1433386 C53.3428467,9.2092285 52.5734118,8.35493021 51.5458802,7.29825997 C50.5938186,6.32212608 49.7199776,5.26545585 49.7199776,3.78723779 C49.7177546,2.88911706 50.0858358,2.02922541 50.7386261,1.40752561 C51.3914164,0.78582581 52.2720296,0.456494606 53.1756844,0.496116043 C53.6346717,0.5064546 54.0893838,0.586265075 54.5241249,0.732792563 C54.8441344,0.854781991 55.1802761,0.930026995 55.5220467,0.956176406 C55.9437694,0.956176406 56.0841284,0.82804281 56.168748,0.466019417 L57.3203883,0.466019417 Z M31.8439883,2.19888712 L31.8439883,2.19752887 C31.7040484,3.18281089 30.8242711,3.90851 29.8008637,3.88283465 C29.2409281,3.88283465 28.7378641,3.65348203 28.7378641,3.02755012 C28.8423367,1.99914953 29.7449832,1.22276741 30.8083619,1.24667848 C31.0802341,1.22212401 31.3498108,1.31258926 31.5481258,1.4949304 C31.7464409,1.67727154 31.8542558,1.93379976 31.8439883,2.19888712 Z M31.223301,3.89736344 L30.1668276,10.0591565 C30.0452018,10.7679649 30.3365466,10.9477812 31.0959906,10.9477812 L30.9418336,11.961165 L26.407767,11.961165 L26.5916128,10.9477812 C27.2669149,10.9477812 27.5893838,10.7778114 27.6756363,10.2508163 L28.1261473,7.47552146 C28.1946709,7.05875155 28.1120767,7.00369443 27.9995123,7.00369443 C27.8127145,7.01950258 27.6356424,7.09262298 27.4931975,7.2127728 L26.9727559,6.33948645 L31.2092304,3.88349515 L31.223301,3.89736344 Z M27.4951456,0.16936554 L25.8517872,9.98118019 C25.7268315,10.7248246 25.8913134,10.9362766 26.5266266,10.9362766 L26.3459072,11.961165 L22.0582524,11.961165 L22.2552094,10.9362766 C22.5299413,10.9844254 22.8119613,10.9092295 23.0260856,10.7307355 C23.24021,10.5522415 23.3646745,10.288592 23.3662981,10.0100732 L24.4230278,3.75010746 C24.4865731,3.37020642 24.3801023,3.27292393 24.2677321,3.27292393 C24.063833,3.30074942 23.8728725,3.38864791 23.719253,3.52538714 L23.225133,2.62667419 L27.4534844,0.155339806 L27.4951456,0.16936554 Z M79.5907806,12.1140763 C78.6805313,12.1497221 77.7984849,11.7916069 77.1663524,11.1297463 C76.5342199,10.4678857 76.2121156,9.56522118 76.2810037,8.64864633 C76.2810037,6.32924562 77.9286407,3.88349515 80.3246752,3.88349515 C82.0557042,3.88349515 82.815145,5.11372961 83.1065606,6.83101393 L78.7667407,8.93636854 C78.8772844,9.81570592 79.3341279,10.5434739 80.2063542,10.5434739 C80.7010871,10.5429369 81.1671933,10.3093117 81.4665349,9.91183675 C81.1341014,9.95325512 80.7321145,9.64651342 80.7321145,9.06000921 C80.7920684,8.41308327 81.3495425,7.93063185 81.9922952,7.9694186 C82.3026536,7.95502732 82.6037801,8.0780345 82.8168202,8.30622887 C83.0298603,8.53442324 83.1335947,8.84507608 83.1008591,9.15683826 C83.1008591,10.805334 81.3274282,12.1043571 79.5830586,12.1043571 L79.5907806,12.1140763 Z M79.8112036,5.35034217 C78.9515706,5.35034217 78.5920408,6.44093278 78.6344426,7.62835244 L80.626968,6.69215208 C80.626968,5.86755509 80.391876,5.35034217 79.8097921,5.35034217 L79.8112036,5.35034217 Z M76.2608256,12.0467629 L71.9942111,12.0467629 L72.1768703,11.024056 C72.8485406,11.024056 73.0902222,10.8833694 73.1983974,10.2503357 L73.6740718,7.43685594 C73.780821,6.80382229 73.589746,6.55553537 73.1822647,6.55553537 C72.3971801,6.72562498 71.7779541,7.32945906 71.5874568,8.11070158 L71.2101718,10.3509381 C71.1293689,10.8285335 71.350696,11.0233562 71.9513772,11.0233562 L71.770116,12.0460631 L67.6249853,12.0460631 L67.8125654,11.0233562 C68.5537708,11.0233562 68.6465124,10.9262808 68.7497947,10.2953745 L69.2113775,7.48189468 C69.2415737,7.3004241 69.2528414,7.10417387 69.0582435,7.10417387 C68.8833447,7.12414497 68.7205,7.2033061 68.5966607,7.32855582 L68.4139456,7.00639865 C68.435714,7.14098535 68.4495592,7.27673705 68.4554094,7.41295098 C68.4554094,9.79317431 66.8197807,12.0903741 64.1606397,12.0903741 C63.0378224,12.1013074 61.9978721,11.5001626 61.4459713,10.521156 C60.7047658,11.3335329 59.6698742,12.2718447 58.4101604,12.2718447 C56.9270785,12.2718447 56.5069316,11.4453879 56.5069316,10.2405106 C56.5236453,9.97633727 56.5609827,9.71387843 56.6186017,9.4555377 L57.1504467,6.06668728 L56.0776699,6.06668728 L56.2540941,5.20787209 L60.0892941,2.95145631 L60.1461916,2.97888824 L59.8082735,4.8681361 L61.8927635,4.8681361 L61.2913554,6.24110393 C61.1044898,6.11627661 60.88362,6.05239827 60.6590521,6.05823377 L59.6101527,6.05823377 L59.0783357,9.44708419 C58.9687346,10.1462344 59.064356,10.385368 59.5399186,10.385368 C60.0813248,10.3117426 60.5753163,10.0370859 60.9239121,9.6158745 L61.1346706,9.82687639 C60.7023155,8.51254107 60.9028791,7.07180198 61.67772,5.92590745 C62.4525608,4.78001292 63.7141601,4.05839242 65.0936471,3.97203588 C66.5856111,3.8428893 67.9476079,4.82550412 68.2972987,6.28331551 L72.2169083,3.97976161 L72.2583721,4.00719353 L72.006737,5.61792338 C72.761307,4.86250975 73.7681833,4.00719353 74.7467646,4.00719353 C75.1913572,4.00124942 75.6184669,4.18033327 75.9261386,4.50169609 C76.2338103,4.82305891 76.3944357,5.25786371 76.3696718,5.70231854 C76.3549121,5.97575198 76.3175044,6.24748676 76.257834,6.51472339 L75.6543569,10.24261 C75.5496766,10.8861966 75.7386547,11.0163302 76.4271845,11.0163302 L76.2608256,12.0467629 Z M65.174394,5.32392592 C64.0271333,5.32392592 63.4397888,7.88701942 63.4397888,9.56806457 C63.4397888,10.3804694 63.6639118,10.7722421 64.265264,10.7722421 C65.1181676,10.7722421 66.0139609,9.00876122 66.0139609,6.74193251 C66.0139609,5.92952765 65.8032024,5.32745289 65.1751769,5.32745289 L65.174394,5.32392592 Z M48.8455254,6.019599 C48.743946,5.9993361 48.6404842,5.99011764 48.536934,5.99210347 C48.0453245,5.95636591 47.5680813,6.16765474 47.2631515,6.55604243 C47.1424693,6.79458819 47.0576805,7.04974501 47.011545,7.31320765 C46.6793067,8.95201956 45.2492284,10.1343337 43.5818186,10.1487264 C43.066327,10.1694276 42.5521052,10.0834736 42.0711724,9.89621644 C41.9615897,10.0086403 41.8966071,10.1572583 41.8883842,10.3142607 C41.8883842,10.8077775 42.2243911,10.9177316 42.714344,10.9177316 C43.5403038,10.9177316 44.2826186,10.8055049 45.1043541,10.8055049 C46.4055241,10.8055049 47.2743694,11.4089757 47.2743694,12.5602529 C47.2743694,14.6244939 44.1940779,16 41.0588996,16 C39.1834323,16 37.3634114,15.436061 37.3634114,13.9801726 C37.3634114,13.1517996 37.8955225,12.5349177 39.3091796,12.0005224 L35.3496081,12.0005224 L35.5168982,10.9754441 C36.1186109,10.9754441 36.4145857,10.8760394 36.5108754,10.3155514 L37.0282437,7.31082283 C37.1112174,6.83352285 36.9727135,6.49653425 36.5523622,6.49653425 C35.7513763,6.64309111 35.1165624,7.25785411 34.9424889,8.05555894 L34.5651071,10.3165895 C34.5018558,10.6951861 34.7057091,10.9764822 35.2926511,10.9764822 L35.125361,12.0015605 L31.0679612,12.0015605 L31.2212078,10.9764822 C31.7399749,10.9764822 31.9944629,10.8502272 32.0759818,10.3581975 L32.5680608,7.49378034 C32.6109464,7.24127036 32.5820483,7.04470537 32.399344,7.04470537 C32.2087532,7.05097415 32.0281472,7.13167937 31.8960471,7.26960759 L31.403968,6.40102936 L35.6117891,3.90811052 L35.6257766,3.93560605 L35.3601546,5.55009877 C36.2276012,4.69423021 37.1526762,3.9356341 38.0905078,3.9356341 C38.5491948,3.92813782 38.9894628,4.11641992 39.3016184,4.45356961 C39.6137739,4.79071929 39.7684254,5.24499167 39.7270411,5.70320399 C39.7121133,5.84015222 39.6886336,5.9760263 39.6567401,6.11002563 L39.0114424,10.2315497 C38.9348191,10.7250664 39.1646611,10.9365576 39.6834562,10.9612194 C39.8111871,10.2095797 40.3629922,9.60100456 41.0969734,9.40227886 C40.5207523,8.88534483 40.1989365,8.14140859 40.2162108,7.36623474 C40.2162108,5.23289012 41.9932622,3.92648763 43.968544,3.92648763 C45.1100057,3.81801423 46.2093601,4.38858221 46.7803042,5.38579894 C47.3229322,4.45228042 48.3206459,3.87971656 49.3980583,3.88351392 L48.8455254,6.019599 Z M44.0865703,5.21156705 C43.105965,5.21156705 42.7558868,6.9522306 42.7558868,7.82007936 C42.7558868,8.46656103 42.9372482,8.87265319 43.4975022,8.87265319 C44.3663475,8.87265319 44.7297419,7.00581883 44.7297419,6.19363449 C44.7297419,5.74455951 44.5765232,5.21016422 44.0851435,5.21016422 L44.0865703,5.21156705 Z M42.3496069,13.0026504 C41.6129388,13.0308961 40.8811394,12.8715451 40.2224771,12.5394629 C39.8399777,12.7712092 39.6063547,13.1868643 39.606693,13.6350476 C39.606693,14.2695491 39.998342,14.7588293 41.2304978,14.7588293 C43.244413,14.7588293 44.464064,14.001664 44.464064,13.3700243 C44.464064,13.0605313 44.1280571,12.9343324 43.7505634,12.9343324 C43.3013979,12.932144 42.8254884,13.0026504 42.3496069,13.0026504 Z M11.3400325,8.3185596 C11.3281891,7.14909296 11.7809314,6.02320896 12.5978477,5.19061208 C13.414764,4.35801521 14.5283288,3.88752712 15.69157,3.88349515 C16.5551305,3.88907061 17.3778885,4.25372552 17.96452,4.89089018 C18.5511514,5.52805484 18.8493388,6.38090515 18.788292,7.24697299 C18.788292,9.61076453 17.2121045,11.9591925 14.5846464,11.9591925 C12.6009824,11.961165 11.3400325,10.2376417 11.3400325,8.3185596 Z M13.823716,9.44321018 C13.823716,10.1413209 14.0028608,10.6243975 14.6937416,10.6243975 C15.6200004,10.6243975 16.3532426,8.60827221 16.3532426,6.62426313 C16.3532426,5.60921327 16.0637038,5.22037382 15.5102973,5.22037382 C14.4042028,5.21687327 13.823716,7.96669824 13.823716,9.44321018 Z M21.309711,10.2549825 C21.2394456,10.6604151 21.2957306,10.9809592 22.0825738,10.9809592 L21.8999063,12.0008494 L20.2839153,12.0008494 C20.8853228,12.2660387 21.6272611,12.7408671 21.6272611,13.5643497 C21.6272611,14.7666064 20.2432044,15.5339806 17.3737614,15.5339806 C11.5527827,15.5339806 7.93866125,12.083728 7.0765757,7.46047331 L6.22712841,7.46047331 L5.68125088,10.6603872 C5.58570903,11.2214719 5.93289754,11.4705545 6.85599342,11.4705545 L6.57496002,12.6573744 L0.938745825,12.6573744 L1.26054599,11.4012145 C2.18375371,11.4012145 2.64460263,11.3142324 2.77042596,10.577034 L4.36530659,1.48212913 C3.64896189,1.49103723 2.9537666,1.72576764 2.37905948,2.15277895 C2.68112468,2.34569525 2.85751357,2.68453466 2.84206138,3.042196 C2.84206138,3.78221376 2.20972924,4.17220954 1.42914925,4.17220954 C1.05488548,4.21437455 0.680934641,4.09049552 0.406160276,3.83332307 C0.13138591,3.57615063 -0.0165461132,3.21157837 0.00147384834,2.83599037 C0.00150180908,0.559046992 4.15311253,0 6.87002971,0 C10.0463698,0 12.9425433,0.561084762 12.9425433,3.50717057 C12.9425433,5.26579445 11.4867674,6.66362129 9.87785043,7.11184707 C10.5221218,11.0504109 13.6128182,14.0826972 17.0548412,14.0826972 C18.5935208,14.0826972 19.2237559,13.6078129 19.2237559,13.0782438 C19.2320433,12.7930466 19.1231797,12.5168653 18.9224294,12.3137941 C18.7216791,12.110723 18.4464966,11.9984182 18.1607444,12.002943 L17.616181,12.002943 L17.8269491,10.9830528 C18.38896,10.9830528 18.7304725,10.7999884 18.805575,10.3517626 L19.9254586,3.77300192 C19.9781646,3.46507526 19.8551933,3.38219662 19.7441891,3.38219662 C19.5530605,3.40420578 19.3726904,3.48204573 19.2256851,3.60596057 L18.7339955,2.72717901 L22.9902913,0.22446182 L21.309711,10.2549825 Z M7.2072642,1.48073339 L6.4526877,6.14666962 C8.35460522,6.11931324 10.0359125,5.40595399 10.0359125,3.46507526 C10.0359125,1.83206737 8.74876778,1.5094855 7.21008824,1.48212913 L7.2072642,1.48073339 Z" id="path-1"></path>
    </defs>
    <g id="Page-1" stroke="none" stroke-width="1" fill="none" fill-rule="evenodd">
        <g id="Elementos" transform="translate(-507.000000, -752.000000)">
            <g id="rolling-bco" transform="translate(507.000000, 752.000000)">
                <rect id="Rectangle-Copy-7" x="0" y="0" width="83.2533333" height="16"></rect>
                <mask id="mask-2" fill="white">
                    <use xlink:href="#path-1"></use>
                </mask>
                <use id="Mask" fill="#FFFFFF" fill-rule="nonzero" xlink:href="#path-1"></use>
            </g>
        </g>
    </g>
</svg>